<svg xmlns="http://www.w3.org/2000/svg" width="400" height="400" viewBox="0 0 400 400"><defs><style>.a{opacity:0.2;}.b{fill:#efeadc;}</style></defs><title>log_bg_page</title><path d="M397 315.264l-1.598 24.572-4.352 4.376 4.436 2.942L396.5 398 292 395l-6-5-4 5-203.5 1-4-5-5 6L7 399l1.59-44.696 5.174-2.893-4.824-2.955-.44-40.276V85L7 46.503V10h64.5l5 5 5-5H315l80.5-1v57.503l.43 49.638-7.16 6.233L394 125l3 190.264" class="a"/><path class="b" d="M395 311.264l-1.598 24.572-4.352 4.376 4.436 2.942L394.5 394 290 391l-6-5-4 5-203.5 1-4-5-5 6L5 395l1.59-44.696 5.174-2.893-4.824-2.955-.44-40.276V81L5 42.503V6h64.5l5 5 5-5H313l80.5-1v57.503l.43 49.638-7.16 6.233L392 121l3 190.264"/></svg>