<svg xmlns="http://www.w3.org/2000/svg" width="350" height="350" viewBox="0 0 350 350"><defs><style>.a{fill:#f4b358;}</style></defs><title>log_bg_swirl_pattern</title><path class="a" d="M47.18 282.817l-32.817-52.1L0 247.837v19.95l18.418-19.22 17.04 27.71-14.103 9.404-9.796-5.235 8.8-11.946-6.387-8.195L0 276.442v1.13l26.824 20.246 20.355-15M124.845 161.805L91.03 133.288l-14.03.028-.087.606 34.02 27.08-30.326 29.268-14.895-26.486 13.507-8.264 8.952 5.245-8.65 10.83 5.662 7.88 14.208-15.168-24.835-20.316-19.548 13.26 28.73 49.83 41.105-45.275M177.37 214.708l-5.983-12.93-11.964 41.817-38.783-16.833 18.806-23.99 12.853 9.334-1.415 10.313-13.36-3.85-5.124 8.28 19.52 7.326 9.266-30.825-19.806-13.007-35.108 45.79 57.76 20.66 13.34-42.085M0 50.462L28.345 68.74 2.69 92.292 0 89.57v14.688l46.283-43.415L0 35.153v15.31M128.144 49.417l-10.065-15.1 5.61-10.488 12.785 9.425 8.774-6.835-18.004-15.598-22.163 29.346 16.054 21.797 55.79-35.118L144.948 0h-19.654l32.52 31.182-29.67 18.235"/><path class="a" d="M15.103 66.457L0 57.764v13.372l7.792 3.703 7.31-8.383M201.5 0h-7.612l-3.82 9.75 4.294 10.01L201.5 0M243.643 0h-9.638l2.503 1.333-16.68 19.26-9.6-8.4 1.848-8.58 10.39 3.826 4.665-6.71-1.567-.73H209.71l-7.184 19.13 14.89 11.793L243.644 0M207.807 151.805l-37.26-11.848-7.896 29.494 4.307 7.573 6.786-28.354 25.074 9.946-11.54 16.798-8.383-5.82.705-6.986 8.6 2.114 3.11-5.75-12.598-4.234-5.32 21.057 12.89 8.046 21.525-32.035M266.577 84.505l13.84-2.623L243.2 60.336 268.684 27.2l18.474 23.813-12.046 10.077-9.55-3.84 6.91-11.886-6.705-6.906L254.04 55.41l27.327 16.31 17.243-15.858-35.452-44.697-33.723 50.412 37.142 22.928M35.523 171.19l-2.868-12.118-20.696 36.176L0 185.92v13.915l12.844 8.648 22.68-37.293M229.72 187.033l-9.196 19.988 31.74 12.097 15.198-19.857-45.527-40.436-26.138 59.226 43.283 17.24 14.065-5.315-43.107-15.773 20.668-39.542 23.82 21.618-10.8 12.82-10.748-2.273 5.066-13.77-8.324-6.022M274.232 96.792l-29.24 43.52 1.843 16.526.725.023 27.52-43.574 38.395 31.957-29.285 20.965-11.48-14.85 5.026-11.224 13.875 8.796 8.556-7.688-19.704-14.784-20.734 31.882 18.143 21.32 55.008-40.276-58.646-42.592"/><path class="a" d="M23.335 158.173L8.882 141.958 0 149.355v7.133l4.132-3.37 9.162 11.354-3.772 9.3L0 168.248v11.392l7.58 5.286 15.755-26.753M336.218 0h-11.57l-13.924 8.558L305.02 0h-15.493l-.032.043 14.778 20.065L336.218 0M304.586 234.42l4.495-5.827-13.235-6.984-9.718 22.442L299 255.322l29.712-31.715-39.27-19.9-14.106 31.352 3.418 9.193 12.665-30.287 26.07 15.586-15.862 16.585-8.264-7.985 2.045-7.636 9.176 3.904M57.596 218.498l-9.918 9.403 16.564 14.98 13.52-7.83-18.728-34.99-28.717 28.134 22.987 21.385 8.953-.264L39.77 229.49l21.12-17.984 9.697 18.578-9.327 4.81-6.006-4.007 6.065-6.794-3.724-5.595M15.622 114.547l.965 8.658L34.02 99.837l19.106 19.044-17.237 10.874-5.402-8.66 3.406-6.138 7.067 5.34 5.128-4.053-9.9-8.867-13.206 17.243 8.663 12.482 32.43-20.927-29.548-25.603-18.905 23.975M110.688 116.574l21.166 22.97 10.044.865-21.486-22.033 23.958-17.912 8.133 19.975-10.247 4.618-5.838-4.49 7.055-6.856-3.286-6.053-11.354 9.416 15.68 16.515 14.944-7.597L143.66 88.35l-32.972 28.224M191.358 80.842l-8.016 4.532 12.85 14.96 21.71-21.34-10.498-19.8-49.95 21.984 38.483 43.418 30.37-28.966 1.413-13.236-.562-.143-29.035 29.307-24.49-31.608 26.51-11.33 6.407 13.588-5.867 7.906-9.325-9.272M81.087 74.217l-6.723 3.8L85.14 90.566l18.213-17.9-8.806-16.606-41.9 18.438 32.28 36.42 25.476-24.297 1.186-11.102-.474-.12L86.762 99.98 66.218 73.468l22.237-9.503 5.376 11.398-4.92 6.632-7.823-7.777M0 341.325l5.63-3.544L0 333.055v8.27M350 302.44v-11.903l-12.797-9.395L350 267.788v-19.952l-27.712 33.03L350 302.44"/><path class="a" d="M350 277.57v-1.128l-.59.683.59.446M277.538 333.114l.603 14.79.643.066 27.158-36.972 32.096 30.773-13.388 8.23h11.57L350 341.325v-8.27l-43.782-36.757-28.68 36.816"/><path class="a" d="M309.897 323.03L289.527 350h15.493l-3.562-5.344 5.164-9.654 11.77 8.678 8.077-6.293-16.573-14.358M193.888 350h7.612l5.245-14.52 27.26 14.52h9.638l4.982-5.874-44.635-19.914L193.888 350M276.77 272.72l-.595-.047-24.304 34.82-30.386-27.76 24.9-16.143 8.883 12.657-4.563 9.048-11.086-7.766-7.333 6.002 15.657 12.916 18.275-25.453-14.124-18.237-46.8 31.062 46.65 37.28 25.717-34.708-.89-13.672M341.996 174.056L350 179.64v-11.393l-1.428-.83-6.576 6.64M328.29 87.604l19.913 18.34 1.797-1.686v-14.69l-10.066-10.184 3.51-11.363L350 71.137V57.764l-5.54-3.19-16.17 33.03"/><path class="a" d="M335.005 26.83l-22.968 45.195 3.703 15.647.7-.062 21.31-45.047 12.25 7.9v-15.31l-14.995-8.323M350 199.835V185.92l-18.447-14.388L350 156.488v-7.133l-33.515 27.91L350 199.835M171.946 294.326l-12.112 11.562 19.063 17.46 16.32-9.786-20.866-41.377-35.102 34.57 25.785 24.336 11.442.186-26.073-23.25 25.712-22.177 10.79 21.974-11.238 6.04-6.966-4.622 7.446-8.322-4.2-6.594M35.59 350h21.295l.537-.628-16.63-9.887L35.588 350M24.724 308.687L0 290.537v11.904l9.65 7.515 15.008-.617.066-.65M25.672 0H16.25l-2.822 5.505 3.81 12.095L25.67 0M77.105 0H66.48l1.736 1.163-21.568 20.372L36.5 10.682 39.644.957 51.236 6.6l5.65-6.6H35.588l-8.82 17.824 15.88 15.398L77.104 0M109.06 350h12.238l1.65-2.248 2.345 2.248h19.655l-21.698-18.215L109.06 350M209.71 350h15.853l-13.492-6.287-2.36 6.287"/><path class="a" d="M16.25 350h9.422l9.907-20.674L66.48 350h10.625l5.99-5.776L33.7 315.95 16.25 350M93.447 37.916L121.297 0H109.06L92.094 21.778l.656 16.066.697.072M84.992 260.036l-12.43 38.373 5.165 10.283 10.886-36.945 32.402 14.833-16.37 21.376-10.662-8.252 1.405-9.167 11.203 3.376 4.496-7.373-16.33-6.447-8.457 27.42 16.456 11.493 30.584-40.797-48.348-18.174"/></svg>