
<svg id="Layer_1" data-name="Layer 1" xmlns="http://www.w3.org/2000/svg" width="26" height="26" viewBox="0 0 26 26"><defs><style>.cls-1{fill:#ffc628;}</style></defs><title>login_spinner</title><path class="cls-1" d="M24.92 13.345H22.27a9.3 9.3 0 0 1-13.8 7.8 1.188 1.188 0 1 1 1.154-2.078 6.91 6.91 0 0 0 10.25-5.717h-2.51c-.41 0-.51-.238-.22-.528l3.733-3.73a.373.373 0 0 1 .527 0l3.728 3.73c.293.285.195.523-.216.523zm-16.29-.02H6.08c-.004-.11-.022-.215-.022-.325A6.93 6.93 0 0 1 16.7 7.15a1.187 1.187 0 1 0 1.275-2A9.3 9.3 0 0 0 3.683 13c0 .11.018.215.022.324H1.08c-.41 0-.508.238-.218.528l3.728 3.73a.373.373 0 0 0 .528 0l3.732-3.73c.29-.29.192-.528-.22-.528z"/></svg>
