<svg xmlns="http://www.w3.org/2000/svg" xmlns:xlink="http://www.w3.org/1999/xlink" width="54" height="162" viewBox="0 0 54 162"><defs><style>.a{opacity:0.25;}.b{fill:url(#a);}.c{fill:#893131;}.d{fill:#f75769;}.e{fill:url(#b);}.f{fill:url(#c);}.g{fill:#8c1722;opacity:0.2;}.h{opacity:0.6;}.i{fill:#ff9194;}.j{fill:#800f08;}.k{fill:url(#d);}.l{fill:#bf3b45;}.m{fill:#f77082;}.n{fill:url(#e);}.o{fill:url(#f);}.p{fill:#ff9496;}.q{fill:#913033;}.r{fill:url(#g);}.s{fill:#d95050;}.t{fill:url(#h);}.u{fill:#eb5e61;}.v{fill:#852629;}</style><linearGradient id="a" x1="27" y1="51.125" x2="27" y2="1.875" gradientUnits="userSpaceOnUse"><stop offset="0" stop-color="#ff7a70"/><stop offset="0.5" stop-color="#db2b2b"/></linearGradient><radialGradient id="b" cx="27" cy="2.635" r="45.422" gradientTransform="translate(30.952 -24.365) rotate(90) scale(1 1.5)" gradientUnits="userSpaceOnUse"><stop offset="0" stop-color="#fff" stop-opacity="0.75"/><stop offset="0.54" stop-color="#fff" stop-opacity="0.2"/><stop offset="0.55" stop-color="#fff" stop-opacity="0"/></radialGradient><linearGradient id="c" x1="26.892" y1="39.433" x2="26.892" y2="13.617" gradientUnits="userSpaceOnUse"><stop offset="0" stop-color="#db2b2b"/><stop offset="1" stop-color="#ba1714"/></linearGradient><linearGradient id="d" x1="27" y1="105.125" x2="27" y2="55.875" gradientUnits="userSpaceOnUse"><stop offset="0" stop-color="#ff9994"/><stop offset="0.5" stop-color="#ff5959"/></linearGradient><radialGradient id="e" cx="27" cy="56.635" r="44.767" gradientTransform="translate(111.952 29.635) rotate(90) scale(1 1.5)" xlink:href="#b"/><linearGradient id="f" x1="27" y1="93.5" x2="27" y2="67.5" gradientUnits="userSpaceOnUse"><stop offset="0" stop-color="#d65752"/><stop offset="1" stop-color="#ba3636"/></linearGradient><linearGradient id="g" x1="27" y1="157.875" x2="27" y2="111.125" gradientUnits="userSpaceOnUse"><stop offset="0" stop-color="#f79694"/><stop offset="1" stop-color="#c41f21"/></linearGradient><linearGradient id="h" x1="27" y1="147.5" x2="27" y2="121.5" gradientUnits="userSpaceOnUse"><stop offset="0" stop-color="#c43d40"/><stop offset="1" stop-color="#9c241f"/></linearGradient></defs><title>core_close_btn_sprite</title><g class="a"><path d="M28,52.625A24.625,24.625,0,1,1,52.625,28,24.653,24.653,0,0,1,28,52.625Z"/><path d="M28,4A24,24,0,1,1,4,28,24,24,0,0,1,28,4m0-1.25A25.25,25.25,0,1,0,53.25,28,25.279,25.279,0,0,0,28,2.75Z"/><path d="M28,5.25A22.75,22.75,0,1,1,5.25,28,22.776,22.776,0,0,1,28,5.25M28,4A24,24,0,1,0,52,28,24,24,0,0,0,28,4Z"/><circle cx="28" cy="28" r="24"/></g><path class="b" d="M27,51.125A24.625,24.625,0,1,1,51.625,26.5,24.653,24.653,0,0,1,27,51.125Z"/><path class="c" d="M27,2.5a24,24,0,1,1-24,24,24,24,0,0,1,24-24m0-1.25A25.25,25.25,0,1,0,52.25,26.5,25.279,25.279,0,0,0,27,1.25Z"/><path class="d" d="M27,3.75A22.75,22.75,0,1,1,4.25,26.5,22.776,22.776,0,0,1,27,3.75M27,2.5a24,24,0,1,0,24,24,24,24,0,0,0-24-24Z"/><circle class="e" cx="27" cy="26.5" r="24"/><path class="f" d="M32.47,26.525,39.7,19.3c.923-.923-4.651-6.5-5.579-5.579l-7.223,7.226-7.226-7.226c-.926-.926-6.5,4.656-5.579,5.579l7.226,7.226-7.226,7.223c-.926.928,4.656,6.5,5.579,5.582L26.894,32.1l7.223,7.226c.923.923,6.5-4.653,5.579-5.582Z"/><path class="g" d="M32.47,26.525,39.7,19.3c.923-.923-4.651-6.5-5.579-5.579l-7.223,7.226-7.226-7.226c-.926-.926-6.5,4.656-5.579,5.579l7.226,7.226-7.226,7.223c-.926.928,4.656,6.5,5.579,5.582L26.894,32.1l7.223,7.226c.923.923,6.5-4.653,5.579-5.582Z"/><g class="h"><path class="i" d="M34.4,13.617c1.451,0,6.144,4.829,5.291,5.682L32.47,26.525,39.7,33.749c.856.858-3.846,5.684-5.293,5.684a.388.388,0,0,1-.286-.1L26.894,32.1,19.668,39.33a.388.388,0,0,1-.286.1c-1.448,0-6.148-4.826-5.293-5.684l7.226-7.223L14.089,19.3c-.853-.853,3.842-5.683,5.292-5.682a.39.39,0,0,1,.287.1l7.226,7.226,7.223-7.226a.391.391,0,0,1,.288-.1m0-1a1.392,1.392,0,0,0-.994.4l-6.517,6.52-6.519-6.519a1.391,1.391,0,0,0-.994-.4h0c-.847,0-2.032.714-3.521,2.121a12.253,12.253,0,0,0-2.68,3.414,1.582,1.582,0,0,0,.2,1.854L19.9,26.525l-6.518,6.516a1.587,1.587,0,0,0-.2,1.86,12.255,12.255,0,0,0,2.682,3.413c1.489,1.406,2.673,2.118,3.519,2.118a1.389,1.389,0,0,0,.993-.4l6.519-6.518,6.516,6.518a1.389,1.389,0,0,0,.993.4c.846,0,2.03-.713,3.519-2.118A12.256,12.256,0,0,0,40.6,34.9a1.586,1.586,0,0,0-.2-1.859l-6.52-6.517L40.4,20.007a1.582,1.582,0,0,0,.2-1.855,12.251,12.251,0,0,0-2.679-3.414c-1.489-1.407-2.674-2.121-3.521-2.121Z"/></g><path class="j" d="M38.938,35.717l-5.106-5.105L32.47,26.525,39.7,33.749C39.994,34.046,39.615,34.829,38.938,35.717ZM16.211,21.42c1.427-1.876,4.192-4.241,4.819-3.613l7.226,7.226,7.223-7.226c.471-.468,2.139.74,3.546,2.163l.67-.67c.923-.923-4.651-6.5-5.579-5.579l-7.223,7.226-7.226-7.226c-.926-.926-6.5,4.656-5.579,5.579Zm6.466,9.192-1.362-4.086-7.226,7.223c-.455.458.666,2.038,2.031,3.419Z"/><g class="a"><path d="M28,106.625A24.625,24.625,0,1,1,52.625,82,24.653,24.653,0,0,1,28,106.625Z"/><path d="M28,58A24,24,0,1,1,4,82,24,24,0,0,1,28,58m0-1.25A25.25,25.25,0,1,0,53.25,82,25.279,25.279,0,0,0,28,56.75Z"/><path d="M28,59.25A22.75,22.75,0,1,1,5.25,82,22.776,22.776,0,0,1,28,59.25M28,58A24,24,0,1,0,52,82,24,24,0,0,0,28,58Z"/><circle cx="28" cy="82" r="24"/></g><path class="k" d="M27,105.125A24.625,24.625,0,1,1,51.625,80.5,24.653,24.653,0,0,1,27,105.125Z"/><path class="l" d="M27,56.5a24,24,0,1,1-24,24,24,24,0,0,1,24-24m0-1.25A25.25,25.25,0,1,0,52.25,80.5,25.279,25.279,0,0,0,27,55.25Z"/><path class="m" d="M27,57.75A22.75,22.75,0,1,1,4.25,80.5,22.776,22.776,0,0,1,27,57.75m0-1.25a24,24,0,1,0,24,24,24,24,0,0,0-24-24Z"/><circle class="n" cx="27" cy="80.5" r="24"/><path class="o" d="M32.618,80.5,39.9,73.221c.931-.93-4.683-6.549-5.618-5.617L27,74.881,19.721,67.6c-.931-.932-6.547,4.687-5.617,5.617L21.381,80.5,14.1,87.774c-.933.937,4.689,6.554,5.617,5.623L27,86.118,34.277,93.4c.928.931,6.552-4.686,5.618-5.623Z"/><path class="g" d="M32.618,80.5,39.9,73.221c.931-.93-4.683-6.549-5.618-5.617L27,74.881,19.721,67.6c-.931-.932-6.547,4.687-5.617,5.617L21.381,80.5,14.1,87.774c-.933.937,4.689,6.554,5.617,5.623L27,86.118,34.277,93.4c.928.931,6.552-4.686,5.618-5.623Z"/><g class="h"><path class="p" d="M34.567,67.5c1.462,0,6.189,4.862,5.328,5.721L32.618,80.5,39.9,87.774c.863.866-3.873,5.727-5.33,5.727a.39.39,0,0,1-.288-.1L27,86.118,19.721,93.4a.39.39,0,0,1-.288.1c-1.457,0-6.19-4.861-5.329-5.727L21.381,80.5,14.1,73.221c-.859-.859,3.869-5.721,5.328-5.721a.391.391,0,0,1,.289.1L27,74.881,34.277,67.6a.393.393,0,0,1,.29-.1m0-1a1.372,1.372,0,0,0-1,.4L27,73.467,20.428,66.9a1.392,1.392,0,0,0-1-.4c-.851,0-2.042.718-3.54,2.134a12.33,12.33,0,0,0-2.7,3.435,1.586,1.586,0,0,0,.2,1.859l6.57,6.57L13.4,87.067a1.593,1.593,0,0,0-.2,1.868,12.347,12.347,0,0,0,2.7,3.435c1.5,1.414,2.688,2.131,3.537,2.131a1.391,1.391,0,0,0,1-.4L27,87.532,33.57,94.1a1.39,1.39,0,0,0,1,.4c.85,0,2.04-.717,3.539-2.131a12.337,12.337,0,0,0,2.7-3.436,1.592,1.592,0,0,0-.2-1.866L34.033,80.5l6.57-6.57a1.586,1.586,0,0,0,.2-1.859,12.316,12.316,0,0,0-2.7-3.435c-1.5-1.416-2.69-2.134-3.542-2.134Z"/></g><path class="q" d="M22.754,83.243,21.381,80.5,14.1,87.774c-.382.385.338,1.555,1.382,2.735Z"/><path class="q" d="M39.9,87.774,32.618,80.5l1.373,2.745,5.693,5.693C39.98,88.407,40.1,87.978,39.9,87.774Z"/><path class="q" d="M15.689,74.809c1.081-1.909,4.675-5.191,5.406-4.462l7.279,7.277,7.275-7.277c.552-.552,2.731,1.182,4.236,2.886l.011-.013c.931-.93-4.683-6.549-5.618-5.617L27,74.881,19.721,67.6c-.931-.932-6.547,4.687-5.617,5.617Z"/><path class="r" d="M27,157.875A23.375,23.375,0,1,1,50.375,134.5,23.4,23.4,0,0,1,27,157.875Z"/><path class="s" d="M27,111.75A22.75,22.75,0,1,1,4.25,134.5,22.776,22.776,0,0,1,27,111.75m0-1.25a24,24,0,1,0,24,24,24,24,0,0,0-24-24Z"/><path class="c" d="M27,110.5a24,24,0,1,1-24,24,24,24,0,0,1,24-24m0-1.25A25.25,25.25,0,1,0,52.25,134.5,25.279,25.279,0,0,0,27,109.25Z"/><path class="t" d="M32.618,134.5l7.277-7.277c.931-.929-4.683-6.549-5.618-5.617L27,128.881,19.721,121.6c-.931-.932-6.546,4.687-5.617,5.617l7.277,7.277L14.1,141.774c-.933.937,4.689,6.554,5.617,5.623L27,140.118l7.274,7.278c.928.931,6.552-4.686,5.618-5.623Z"/><path class="g" d="M32.618,134.5l7.277-7.277c.931-.929-4.683-6.549-5.618-5.617L27,128.881,19.721,121.6c-.931-.932-6.546,4.687-5.617,5.617l7.277,7.277L14.1,141.774c-.933.937,4.689,6.554,5.617,5.623L27,140.118l7.274,7.278c.928.931,6.552-4.686,5.618-5.623Z"/><g class="h"><path class="u" d="M34.567,121.5c1.462,0,6.188,4.862,5.328,5.721L32.618,134.5l7.277,7.276c.863.866-3.873,5.726-5.33,5.726a.39.39,0,0,1-.288-.1L27,140.118,19.721,147.4a.39.39,0,0,1-.288.1c-1.457,0-6.19-4.861-5.329-5.726l7.277-7.276L14.1,127.221c-.859-.859,3.869-5.721,5.328-5.721a.391.391,0,0,1,.289.1L27,128.881l7.274-7.277a.393.393,0,0,1,.29-.1m0-1a1.372,1.372,0,0,0-1,.4L27,127.467l-6.574-6.57a1.392,1.392,0,0,0-1-.4c-.851,0-2.042.718-3.54,2.134a12.331,12.331,0,0,0-2.7,3.435,1.586,1.586,0,0,0,.2,1.859l6.57,6.57-6.57,6.569a1.593,1.593,0,0,0-.2,1.868,12.346,12.346,0,0,0,2.7,3.435c1.5,1.414,2.688,2.131,3.537,2.131a1.391,1.391,0,0,0,1-.4L27,141.532,33.57,148.1a1.391,1.391,0,0,0,1,.4c.85,0,2.04-.717,3.539-2.131a12.336,12.336,0,0,0,2.7-3.436,1.592,1.592,0,0,0-.2-1.866l-6.571-6.57,6.57-6.57a1.586,1.586,0,0,0,.2-1.859,12.315,12.315,0,0,0-2.7-3.435c-1.5-1.416-2.69-2.134-3.542-2.134Z"/></g><path class="v" d="M22.754,137.243,21.381,134.5,14.1,141.774c-.382.385.338,1.554,1.382,2.735Z"/><path class="v" d="M39.9,141.774,32.618,134.5l1.372,2.745,5.693,5.693C39.98,142.407,40.1,141.978,39.9,141.774Z"/><path class="v" d="M15.69,128.809c1.081-1.909,4.675-5.191,5.405-4.462l7.279,7.277,7.274-7.277c.551-.551,2.731,1.182,4.236,2.886l.011-.013c.931-.929-4.683-6.549-5.618-5.617L27,128.881,19.721,121.6c-.931-.932-6.546,4.687-5.617,5.617Z"/></svg>