<?xml version="1.0" encoding="UTF-8" standalone="no"?>
<svg
   xmlns:dc="http://purl.org/dc/elements/1.1/"
   xmlns:cc="http://creativecommons.org/ns#"
   xmlns:rdf="http://www.w3.org/1999/02/22-rdf-syntax-ns#"
   xmlns:svg="http://www.w3.org/2000/svg"
   xmlns="http://www.w3.org/2000/svg"
   xmlns:xlink="http://www.w3.org/1999/xlink"
   xmlns:sodipodi="http://sodipodi.sourceforge.net/DTD/sodipodi-0.dtd"
   xmlns:inkscape="http://www.inkscape.org/namespaces/inkscape"
   version="1.1"
   preserveAspectRatio="none"
   x="0px"
   y="0px"
   width="26.598255"
   height="49.364555"
   viewBox="0 0 26.598255 49.364555"
   id="svg2"
   inkscape:version="0.91 r13725"
   sodipodi:docname="UI_arrow_up.svg">
  <metadata
     id="metadata67">
    <rdf:RDF>
      <cc:Work
         rdf:about="">
        <dc:format>image/svg+xml</dc:format>
        <dc:type
           rdf:resource="http://purl.org/dc/dcmitype/StillImage" />
        <dc:title></dc:title>
      </cc:Work>
    </rdf:RDF>
  </metadata>
  <sodipodi:namedview
     pagecolor="#ffffff"
     bordercolor="#666666"
     borderopacity="1"
     objecttolerance="10"
     gridtolerance="10"
     guidetolerance="10"
     inkscape:pageopacity="0"
     inkscape:pageshadow="2"
     inkscape:window-width="697"
     inkscape:window-height="480"
     id="namedview65"
     showgrid="false"
     fit-margin-top="0"
     fit-margin-left="0"
     fit-margin-right="0"
     fit-margin-bottom="0"
     inkscape:zoom="0.52363636"
     inkscape:cx="47.235828"
     inkscape:cy="-104.93544"
     inkscape:window-x="0"
     inkscape:window-y="0"
     inkscape:window-maximized="0"
     inkscape:current-layer="svg2" />
  <defs
     id="defs4">
    <linearGradient
       id="Gradient_1"
       gradientUnits="userSpaceOnUse"
       x1="37.650002"
       y1="5.5"
       x2="32.849998"
       y2="5.5"
       spreadMethod="pad">
      <stop
         offset="0%"
         stop-color="#7CF1FF"
         id="stop7" />
      <stop
         offset="49.80392156862745%"
         stop-color="#4990F3"
         id="stop9" />
    </linearGradient>
    <radialGradient
       id="Gradient_2"
       gradientUnits="userSpaceOnUse"
       cx="0"
       cy="0"
       r="6.0625"
       fx="0"
       fy="0"
       gradientTransform="matrix(1,0,0,-1.4989691,32.85,5.5)"
       spreadMethod="pad">
      <stop
         offset="0%"
         stop-color="#FFFFFF"
         stop-opacity="0.7490196078431373"
         id="stop12" />
      <stop
         offset="54.11764705882353%"
         stop-color="#FFFFFF"
         stop-opacity="0.2"
         id="stop14" />
      <stop
         offset="54.90196078431372%"
         stop-color="#FFFFFF"
         stop-opacity="0"
         id="stop16" />
    </radialGradient>
    <linearGradient
       id="Gradient_3"
       gradientUnits="userSpaceOnUse"
       x1="36.012501"
       y1="5.5"
       x2="33.387501"
       y2="5.5"
       spreadMethod="pad">
      <stop
         offset="0%"
         stop-color="#349AD5"
         id="stop19" />
      <stop
         offset="100%"
         stop-color="#2264B8"
         id="stop21" />
    </linearGradient>
    <g
       id="Layer0_0_MEMBER_0_MEMBER_0_FILL">
      <path
         d="m 34.65,2.1 q -1.8,1.45 -1.8,3.4 0,1.9 1.8,3.4 1.45,1.15 3,1.4 l 0,-9.65 q -1.55,0.25 -3,1.45 z"
         id="path24"
         inkscape:connector-curvature="0"
         style="fill:url(#Gradient_1);stroke:none" />
    </g>
    <g
       id="Layer0_0_MEMBER_0_MEMBER_1_FILL">
      <path
         d="m 38.2,0 -0.65,0.1 q -1.75,0.3 -3.3,1.6 -1.95,1.65 -1.95,3.8 0,2.15 1.95,3.75 1.55,1.3 3.3,1.6 l 0.65,0.1 0,-10.95 m -5.35,5.5 q 0,-1.95 1.8,-3.4 1.45,-1.2 3,-1.45 l 0,9.65 q -1.55,-0.25 -3,-1.4 -1.8,-1.5 -1.8,-3.4 z"
         id="path27"
         inkscape:connector-curvature="0"
         style="fill:#4a7d9f;stroke:none" />
    </g>
    <g
       id="Layer0_0_MEMBER_0_MEMBER_2_FILL">
      <path
         d="m 34.65,2.1 q -1.8,1.45 -1.8,3.4 0,1.9 1.8,3.4 1.45,1.15 3,1.4 l 0,-9.65 Q 36.1,0.9 34.65,2.1 M 33.2,5.5 Q 33.2,3.85 34.65,2.55 35.8,1.5 37.3,1.1 l 0,8.75 Q 35.8,9.45 34.65,8.4 33.2,7.15 33.2,5.5 Z"
         id="path30"
         inkscape:connector-curvature="0"
         style="fill:#59d0d9;stroke:none" />
    </g>
    <g
       id="Layer0_0_MEMBER_0_MEMBER_3_FILL">
      <path
         d="m 34.65,2.1 q -1.8,1.45 -1.8,3.4 0,1.9 1.8,3.4 1.45,1.15 3,1.4 l 0,-9.65 q -1.55,0.25 -3,1.45 z"
         id="path33"
         inkscape:connector-curvature="0"
         style="fill:url(#Gradient_2);stroke:none" />
    </g>
    <g
       id="Layer0_0_MEMBER_1_FILL">
      <path
         d="M 33.4,5.5 36,7.95 36,3 33.4,5.5 Z"
         id="path36"
         inkscape:connector-curvature="0"
         style="fill:url(#Gradient_3);stroke:none" />
    </g>
    <g
       id="Layer0_0_MEMBER_2_FILL">
      <path
         d="M 36,6.9 34.1,5.1 36,3.3 36,3 33.4,5.5 36,7.95 36,6.9 Z"
         id="path39"
         inkscape:connector-curvature="0"
         style="fill:#1f5da5;stroke:none" />
    </g>
  </defs>
  <g
     transform="matrix(4.5081787,0,0,4.5081787,-145.61417,0)"
     id="g41">
    <use
       xlink:href="#Layer0_0_MEMBER_0_MEMBER_0_FILL"
       id="use43"
       x="0"
       y="0"
       width="100%"
       height="100%" />
  </g>
  <g
     transform="matrix(4.5081787,0,0,4.5081787,-145.61417,0)"
     id="g45">
    <use
       xlink:href="#Layer0_0_MEMBER_0_MEMBER_1_FILL"
       id="use47"
       x="0"
       y="0"
       width="100%"
       height="100%" />
  </g>
  <g
     transform="matrix(4.5081787,0,0,4.5081787,-145.61417,0)"
     id="g49">
    <use
       xlink:href="#Layer0_0_MEMBER_0_MEMBER_2_FILL"
       id="use51"
       x="0"
       y="0"
       width="100%"
       height="100%" />
  </g>
  <g
     transform="matrix(4.5081787,0,0,4.5081787,-145.61417,0)"
     id="g53">
    <use
       xlink:href="#Layer0_0_MEMBER_0_MEMBER_3_FILL"
       id="use55"
       x="0"
       y="0"
       width="100%"
       height="100%" />
  </g>
  <g
     transform="matrix(4.5081787,0,0,4.5081787,-145.61417,0)"
     id="g57">
    <use
       xlink:href="#Layer0_0_MEMBER_1_FILL"
       id="use59"
       x="0"
       y="0"
       width="100%"
       height="100%" />
  </g>
  <g
     transform="matrix(4.5081787,0,0,4.5081787,-145.61417,0)"
     id="g61">
    <use
       xlink:href="#Layer0_0_MEMBER_2_FILL"
       id="use63"
       x="0"
       y="0"
       width="100%"
       height="100%" />
  </g>
</svg>
