<?xml version="1.0" encoding="UTF-8" standalone="no"?>
<svg
   xmlns:dc="http://purl.org/dc/elements/1.1/"
   xmlns:cc="http://creativecommons.org/ns#"
   xmlns:rdf="http://www.w3.org/1999/02/22-rdf-syntax-ns#"
   xmlns:svg="http://www.w3.org/2000/svg"
   xmlns="http://www.w3.org/2000/svg"
   xmlns:xlink="http://www.w3.org/1999/xlink"
   xmlns:sodipodi="http://sodipodi.sourceforge.net/DTD/sodipodi-0.dtd"
   xmlns:inkscape="http://www.inkscape.org/namespaces/inkscape"
   version="1.1"
   preserveAspectRatio="none"
   x="0px"
   y="0px"
   width="95.122574"
   height="36.06543"
   viewBox="0 0 95.122574 36.06543"
   id="svg2"
   inkscape:version="0.91 r13725"
   sodipodi:docname="UI_expand_up.svg">
  <metadata
     id="metadata169">
    <rdf:RDF>
      <cc:Work
         rdf:about="">
        <dc:format>image/svg+xml</dc:format>
        <dc:type
           rdf:resource="http://purl.org/dc/dcmitype/StillImage" />
        <dc:title></dc:title>
      </cc:Work>
    </rdf:RDF>
  </metadata>
  <sodipodi:namedview
     pagecolor="#ffffff"
     bordercolor="#666666"
     borderopacity="1"
     objecttolerance="10"
     gridtolerance="10"
     guidetolerance="10"
     inkscape:pageopacity="0"
     inkscape:pageshadow="2"
     inkscape:window-width="1800"
     inkscape:window-height="1108"
     id="namedview167"
     showgrid="false"
     borderlayer="false"
     fit-margin-top="0"
     fit-margin-left="0"
     fit-margin-right="0"
     fit-margin-bottom="0"
     inkscape:zoom="2.9621346"
     inkscape:cx="-40.929156"
     inkscape:cy="-50.155606"
     inkscape:window-x="0"
     inkscape:window-y="0"
     inkscape:window-maximized="0"
     inkscape:current-layer="svg2" />
  <defs
     id="defs4">
    <linearGradient
       id="Gradient_1"
       gradientUnits="userSpaceOnUse"
       x1="11.5"
       y1="8.7875004"
       x2="11.5"
       y2="1.4125"
       spreadMethod="pad">
      <stop
         offset="0%"
         stop-color="#7BFD65"
         id="stop7" />
      <stop
         offset="49.80392156862745%"
         stop-color="#47B007"
         id="stop9" />
    </linearGradient>
    <linearGradient
       id="Gradient_2"
       gradientUnits="userSpaceOnUse"
       x1="8.1499996"
       y1="8.1875"
       x2="8.1499996"
       y2="2.0125"
       spreadMethod="pad">
      <stop
         offset="0%"
         stop-color="#63C523"
         id="stop12" />
      <stop
         offset="49.80392156862745%"
         stop-color="#217500"
         id="stop14" />
    </linearGradient>
    <linearGradient
       id="Gradient_3"
       gradientUnits="userSpaceOnUse"
       x1="11.5"
       y1="4.5625"
       x2="11.5"
       y2="1.4375"
       spreadMethod="pad">
      <stop
         offset="0%"
         stop-color="#FFFFFF"
         stop-opacity="0.2"
         id="stop17" />
      <stop
         offset="100%"
         stop-color="#FFFFFF"
         stop-opacity="0.7490196078431373"
         id="stop19" />
    </linearGradient>
    <linearGradient
       id="Gradient_4"
       gradientUnits="userSpaceOnUse"
       x1="19.975"
       y1="7.5250001"
       x2="18.325001"
       y2="5.875"
       spreadMethod="pad">
      <stop
         offset="0%"
         stop-color="#38B600"
         id="stop22" />
      <stop
         offset="100%"
         stop-color="#348E0E"
         id="stop24" />
    </linearGradient>
    <linearGradient
       id="Gradient_5"
       gradientUnits="userSpaceOnUse"
       x1="15.4"
       y1="2.7874999"
       x2="17.1"
       y2="4.5124998"
       spreadMethod="pad">
      <stop
         offset="0%"
         stop-color="#38B600"
         id="stop27" />
      <stop
         offset="100%"
         stop-color="#348E0E"
         id="stop29" />
    </linearGradient>
    <linearGradient
       id="Gradient_6"
       gradientUnits="userSpaceOnUse"
       x1="15.4"
       y1="7.5124998"
       x2="17.4"
       y2="5.4875002"
       spreadMethod="pad">
      <stop
         offset="0%"
         stop-color="#38B600"
         id="stop32" />
      <stop
         offset="100%"
         stop-color="#348E0E"
         id="stop34" />
    </linearGradient>
    <linearGradient
       id="Gradient_7"
       gradientUnits="userSpaceOnUse"
       x1="19.950001"
       y1="2.7874999"
       x2="17.950001"
       y2="4.8125"
       spreadMethod="pad">
      <stop
         offset="0%"
         stop-color="#38B600"
         id="stop37" />
      <stop
         offset="100%"
         stop-color="#348E0E"
         id="stop39" />
    </linearGradient>
    <g
       id="Layer7_0_MEMBER_0_MEMBER_0_MEMBER_0_MEMBER_0_FILL">
      <path
         d="M 20.9,7.95 Q 22.05,6.75 22.05,5.1 22.05,3.45 20.9,2.3 19.7,1.1 18.05,1.1 l -13.1,0 q -1.65,0 -2.8,1.2 -1.2,1.15 -1.2,2.8 0,1.65 1.2,2.85 1.15,1.15 2.8,1.15 l 13.1,0 q 1.65,0 2.85,-1.15 z"
         id="path42"
         inkscape:connector-curvature="0"
         style="fill:#457c15;stroke:none" />
    </g>
    <g
       id="Layer7_0_MEMBER_0_MEMBER_0_MEMBER_0_MEMBER_1_MEMBER_0_FILL">
      <path
         d="m 20.65,7.7 q 1.1,-1.05 1.1,-2.6 0,-1.55 -1.1,-2.6 -1.05,-1.1 -2.6,-1.1 l -13.1,0 q -1.55,0 -2.6,1.1 -1.1,1.05 -1.1,2.6 0,1.55 1.1,2.6 1.05,1.1 2.6,1.1 l 13.1,0 q 1.55,0 2.6,-1.1 z"
         id="path45"
         inkscape:connector-curvature="0"
         style="fill:url(#Gradient_1);stroke:none" />
    </g>
    <g
       id="Layer7_0_MEMBER_0_MEMBER_0_MEMBER_0_MEMBER_1_MEMBER_1_MEMBER_0_FILL">
      <path
         d="m 21.75,5.1 q 0,-1.55 -1.1,-2.6 -1.05,-1.1 -2.6,-1.1 l -13.1,0 q -1.55,0 -2.6,1.1 -1.1,1.05 -1.1,2.6 0,1.55 1.1,2.6 1.05,1.1 2.6,1.1 l 13.1,0 q 1.55,0 2.6,-1.1 1.1,-1.05 1.1,-2.6 m -1.2,-2.45 q 1,1 1,2.45 0,1.45 -1,2.5 -1.05,1 -2.5,1 l -13.1,0 Q 3.5,8.6 2.5,7.6 1.45,6.55 1.45,5.1 1.45,3.7 2.5,2.65 3.55,1.6 4.95,1.6 l 13.1,0 q 1.45,0 2.5,1.05 z"
         id="path48"
         inkscape:connector-curvature="0"
         style="fill:#52d818;stroke:none" />
    </g>
    <g
       id="Layer7_0_MEMBER_0_MEMBER_0_MEMBER_0_MEMBER_2_MEMBER_0_FILL">
      <path
         d="m 14.45,8.2 0,-6.2 -9.5,0 q -1.25,0 -2.2,0.9 -0.9,0.95 -0.9,2.2 0,1.3 0.9,2.2 0.95,0.9 2.2,0.9 l 9.5,0 z"
         id="path51"
         inkscape:connector-curvature="0"
         style="fill:url(#Gradient_2);stroke:none" />
    </g>
    <g
       id="Layer7_0_MEMBER_0_MEMBER_0_MEMBER_0_MEMBER_2_MEMBER_1_MEMBER_0_FILL">
      <path
         d="m 14.45,8.2 0,-6.2 -9.5,0 q -1.25,0 -2.2,0.9 -0.9,0.95 -0.9,2.2 0,1.3 0.9,2.2 0.95,0.9 2.2,0.9 l 9.5,0 m -0.2,-6 0,5.8 -9.3,0 Q 3.75,8 2.9,7.15 2.05,6.3 2.05,5.1 2.05,3.9 2.9,3.05 3.75,2.2 4.95,2.2 l 9.3,0 z"
         id="path54"
         inkscape:connector-curvature="0"
         style="fill:#47b007;stroke:none" />
    </g>
    <g
       id="Layer7_0_MEMBER_0_MEMBER_0_MEMBER_0_MEMBER_3_FILL">
      <path
         d="m 14.05,4.55 0,-2.15 -9.1,0 Q 4,2.4 3.25,3 2.55,3.6 2.35,4.55 l 11.7,0 m 7.65,0 Q 21.5,3.2 20.5,2.3 19.45,1.4 18.05,1.4 l -13.1,0 q -1.35,0 -2.4,0.9 -1,0.9 -1.25,2.25 l 0.6,0 Q 2.15,3.45 3,2.75 3.85,2 4.95,2 l 9.5,0 0,2.55 7.25,0 z"
         id="path57"
         inkscape:connector-curvature="0"
         style="fill:url(#Gradient_3);stroke:none" />
    </g>
    <g
       id="Layer7_0_MEMBER_0_MEMBER_1_MEMBER_0_MEMBER_0_MEMBER_0_MEMBER_0_MEMBER_0_FILL">
      <path
         d="m 17.9,6.3 0.55,0.6 -0.55,0.5 2.05,0.2 0,-2.05 L 19.4,6 18.8,5.35 q 0,0.05 -0.9,0.95 z"
         id="path60"
         inkscape:connector-curvature="0"
         style="fill:url(#Gradient_4);stroke:none" />
    </g>
    <g
       id="Layer7_0_MEMBER_0_MEMBER_1_MEMBER_0_MEMBER_0_MEMBER_0_MEMBER_0_MEMBER_1_MEMBER_0_FILL">
      <path
         d="M 18.95,5.2 18.8,5.15 18.7,5.2 17.85,6 17.75,6.15 q -0.15,0.1 -0.05,0.3 l 0.45,0.45 -0.4,0.35 q -0.1,0.1 -0.05,0.25 l 0.15,0.1 2.05,0.2 0.05,0 L 20.1,7.75 20.15,7.6 20.2,5.55 q 0,-0.2 -0.15,-0.2 L 19.95,5.3 19.8,5.35 19.45,5.7 18.95,5.2 M 19.4,6 19.95,5.55 19.95,7.6 17.9,7.4 18.45,6.9 17.9,6.3 18.8,5.35 19.4,6 Z"
         id="path63"
         inkscape:connector-curvature="0"
         style="fill:#77ef59;stroke:none" />
    </g>
    <g
       id="Layer7_0_MEMBER_0_MEMBER_1_MEMBER_0_MEMBER_1_MEMBER_0_MEMBER_0_MEMBER_0_FILL">
      <path
         d="M 17.55,4.05 16.95,3.4 17.5,2.9 15.45,2.75 15.4,4.75 15.95,4.3 16.65,5 q 0.9,-0.9 0.9,-0.95 z"
         id="path66"
         inkscape:connector-curvature="0"
         style="fill:url(#Gradient_5);stroke:none" />
    </g>
    <g
       id="Layer7_0_MEMBER_0_MEMBER_1_MEMBER_0_MEMBER_1_MEMBER_0_MEMBER_0_MEMBER_1_MEMBER_0_FILL">
      <path
         d="m 17.5,2.7 -2.05,-0.2 -0.15,0.05 -0.05,0.2 -0.05,2 q 0,0.2 0.15,0.2 L 15.4,5 15.55,4.95 15.95,4.6 16.5,5.15 16.65,5.2 q 0.15,0 0.15,-0.05 L 17.05,4.9 Q 17.8,4.15 17.75,4 L 17.7,3.9 17.25,3.4 17.65,3.05 Q 17.8,2.95 17.7,2.85 17.7,2.7 17.5,2.7 m -2.05,0.05 2.05,0.15 -0.55,0.5 0.6,0.65 -0.9,0.95 -0.7,-0.7 -0.55,0.45 0.05,-2 z"
         id="path69"
         inkscape:connector-curvature="0"
         style="fill:#77ef59;stroke:none" />
    </g>
    <g
       id="Layer7_0_MEMBER_0_MEMBER_1_MEMBER_0_MEMBER_2_FILL">
      <path
         d="M 16.95,3.4 17.5,2.9 15.45,2.75 15.4,4.75 15.8,4.4 15.85,3.35 16.95,3.4 Z"
         id="path72"
         inkscape:connector-curvature="0"
         style="fill:#2a7700;stroke:none" />
    </g>
    <g
       id="Layer7_0_MEMBER_0_MEMBER_1_MEMBER_0_MEMBER_3_FILL">
      <path
         d="M 19.15,5.7 18.8,5.4 17.9,6.25 18.45,6.9 17.9,7.4 19.25,7.5 18.45,7.25 18.95,6.8 18.5,6.35 19.15,5.7 Z"
         id="path75"
         inkscape:connector-curvature="0"
         style="fill:#2a7700;stroke:none" />
    </g>
    <g
       id="Layer7_0_MEMBER_0_MEMBER_1_MEMBER_1_MEMBER_0_MEMBER_0_MEMBER_0_MEMBER_0_FILL">
      <path
         d="m 16.95,6.9 0.9,-1 -0.9,-0.9 -1,1 L 15.4,5.55 15.45,7.6 17.5,7.4 16.95,6.9 Z"
         id="path78"
         inkscape:connector-curvature="0"
         style="fill:url(#Gradient_6);stroke:none" />
    </g>
    <g
       id="Layer7_0_MEMBER_0_MEMBER_1_MEMBER_1_MEMBER_0_MEMBER_0_MEMBER_0_MEMBER_1_MEMBER_0_FILL">
      <path
         d="M 15.95,5.7 15.55,5.35 15.4,5.3 15.35,5.35 q -0.15,0 -0.15,0.2 L 15.25,7.6 15.3,7.75 15.45,7.8 17.5,7.6 17.7,7.5 Q 17.75,7.35 17.65,7.25 L 17.25,6.9 18,6.1 18.05,6 Q 18.1,5.85 18,5.75 L 17.1,4.85 16.95,4.8 16.9,4.8 q -0.1,0 -0.95,0.9 M 15.4,5.55 15.95,6 l 1,-1 0.9,0.9 -0.9,1 0.55,0.5 -2.05,0.2 -0.05,-2.05 z"
         id="path81"
         inkscape:connector-curvature="0"
         style="fill:#77ef59;stroke:none" />
    </g>
    <g
       id="Layer7_0_MEMBER_0_MEMBER_1_MEMBER_1_MEMBER_1_MEMBER_0_MEMBER_0_MEMBER_0_FILL">
      <path
         d="m 18.45,3.4 -0.9,1 0.9,0.9 0.95,-1 0.55,0.45 0,-2 -2.05,0.15 0.55,0.5 z"
         id="path84"
         inkscape:connector-curvature="0"
         style="fill:url(#Gradient_7);stroke:none" />
    </g>
    <g
       id="Layer7_0_MEMBER_0_MEMBER_1_MEMBER_1_MEMBER_1_MEMBER_0_MEMBER_0_MEMBER_1_MEMBER_0_FILL">
      <path
         d="M 20.1,2.55 19.95,2.5 19.9,2.5 17.85,2.7 q -0.15,0 -0.15,0.15 -0.05,0.1 0.05,0.2 l 0.4,0.35 -0.6,0.65 -0.15,0.2 -0.05,0.1 q -0.1,0.1 0.05,0.2 l 0.9,0.9 0.15,0.05 q 0.15,0 1,-0.9 L 19.8,4.95 19.95,5 20.05,4.95 q 0.15,0 0.15,-0.2 l -0.05,-2 -0.05,-0.2 m -2.2,0.35 2.05,-0.15 0,2 -0.55,-0.45 -0.95,1 -0.9,-0.9 0.9,-1 -0.55,-0.5 z"
         id="path87"
         inkscape:connector-curvature="0"
         style="fill:#77ef59;stroke:none" />
    </g>
    <g
       id="Layer7_0_MEMBER_0_MEMBER_1_MEMBER_1_MEMBER_2_FILL">
      <path
         d="m 17.9,2.9 0.55,0.5 1.1,-0.05 0,1.05 0.4,0.35 0,-2 -2.05,0.15 z"
         id="path90"
         inkscape:connector-curvature="0"
         style="fill:#2a7700;stroke:none" />
    </g>
    <g
       id="Layer7_0_MEMBER_0_MEMBER_1_MEMBER_1_MEMBER_3_FILL">
      <path
         d="M 16.6,5.35 17.25,6 16.45,6.8 16.9,7.25 16.15,7.5 17.5,7.4 16.95,6.9 17.85,5.9 16.95,5 16.6,5.35 Z"
         id="path93"
         inkscape:connector-curvature="0"
         style="fill:#2a7700;stroke:none" />
    </g>
  </defs>
  <g
     transform="matrix(4.5081787,0,0,4.5081787,-4.2827698,-4.9589966)"
     id="g95">
    <use
       xlink:href="#Layer7_0_MEMBER_0_MEMBER_0_MEMBER_0_MEMBER_0_FILL"
       id="use97"
       x="0"
       y="0"
       width="100%"
       height="100%" />
  </g>
  <g
     transform="matrix(4.5081787,0,0,4.5081787,-4.2827698,-4.9589966)"
     id="g99">
    <use
       xlink:href="#Layer7_0_MEMBER_0_MEMBER_0_MEMBER_0_MEMBER_1_MEMBER_0_FILL"
       id="use101"
       x="0"
       y="0"
       width="100%"
       height="100%" />
  </g>
  <g
     transform="matrix(4.5081787,0,0,4.5081787,-4.2827698,-4.9589966)"
     id="g103">
    <use
       xlink:href="#Layer7_0_MEMBER_0_MEMBER_0_MEMBER_0_MEMBER_1_MEMBER_1_MEMBER_0_FILL"
       id="use105"
       x="0"
       y="0"
       width="100%"
       height="100%" />
  </g>
  <g
     transform="matrix(4.5081787,0,0,4.5081787,-4.2827698,-4.9589966)"
     id="g107">
    <use
       xlink:href="#Layer7_0_MEMBER_0_MEMBER_0_MEMBER_0_MEMBER_2_MEMBER_0_FILL"
       id="use109"
       x="0"
       y="0"
       width="100%"
       height="100%" />
  </g>
  <g
     transform="matrix(4.5081787,0,0,4.5081787,-4.2827698,-4.9589966)"
     id="g111">
    <use
       xlink:href="#Layer7_0_MEMBER_0_MEMBER_0_MEMBER_0_MEMBER_2_MEMBER_1_MEMBER_0_FILL"
       id="use113"
       x="0"
       y="0"
       width="100%"
       height="100%" />
  </g>
  <g
     transform="matrix(4.5081787,0,0,4.5081787,-4.2827698,-4.9589966)"
     id="g115">
    <use
       xlink:href="#Layer7_0_MEMBER_0_MEMBER_0_MEMBER_0_MEMBER_3_FILL"
       id="use117"
       x="0"
       y="0"
       width="100%"
       height="100%" />
  </g>
  <g
     transform="matrix(4.5081787,0,0,4.5081787,-4.2827698,-4.9589966)"
     id="g119">
    <use
       xlink:href="#Layer7_0_MEMBER_0_MEMBER_1_MEMBER_0_MEMBER_0_MEMBER_0_MEMBER_0_MEMBER_0_FILL"
       id="use121"
       x="0"
       y="0"
       width="100%"
       height="100%" />
  </g>
  <g
     transform="matrix(4.5081787,0,0,4.5081787,-4.2827698,-4.9589966)"
     id="g123">
    <use
       xlink:href="#Layer7_0_MEMBER_0_MEMBER_1_MEMBER_0_MEMBER_0_MEMBER_0_MEMBER_0_MEMBER_1_MEMBER_0_FILL"
       id="use125"
       x="0"
       y="0"
       width="100%"
       height="100%" />
  </g>
  <g
     transform="matrix(4.5081787,0,0,4.5081787,-4.2827698,-4.9589966)"
     id="g127">
    <use
       xlink:href="#Layer7_0_MEMBER_0_MEMBER_1_MEMBER_0_MEMBER_1_MEMBER_0_MEMBER_0_MEMBER_0_FILL"
       id="use129"
       x="0"
       y="0"
       width="100%"
       height="100%" />
  </g>
  <g
     transform="matrix(4.5081787,0,0,4.5081787,-4.2827698,-4.9589966)"
     id="g131">
    <use
       xlink:href="#Layer7_0_MEMBER_0_MEMBER_1_MEMBER_0_MEMBER_1_MEMBER_0_MEMBER_0_MEMBER_1_MEMBER_0_FILL"
       id="use133"
       x="0"
       y="0"
       width="100%"
       height="100%" />
  </g>
  <g
     transform="matrix(4.5081787,0,0,4.5081787,-4.2827698,-4.9589966)"
     id="g135">
    <use
       xlink:href="#Layer7_0_MEMBER_0_MEMBER_1_MEMBER_0_MEMBER_2_FILL"
       id="use137"
       x="0"
       y="0"
       width="100%"
       height="100%" />
  </g>
  <g
     transform="matrix(4.5081787,0,0,4.5081787,-4.2827698,-4.9589966)"
     id="g139">
    <use
       xlink:href="#Layer7_0_MEMBER_0_MEMBER_1_MEMBER_0_MEMBER_3_FILL"
       id="use141"
       x="0"
       y="0"
       width="100%"
       height="100%" />
  </g>
  <g
     transform="matrix(4.5081787,0,0,4.5081787,-4.2827698,-4.9589966)"
     id="g143">
    <use
       xlink:href="#Layer7_0_MEMBER_0_MEMBER_1_MEMBER_1_MEMBER_0_MEMBER_0_MEMBER_0_MEMBER_0_FILL"
       id="use145"
       x="0"
       y="0"
       width="100%"
       height="100%" />
  </g>
  <g
     transform="matrix(4.5081787,0,0,4.5081787,-4.2827698,-4.9589966)"
     id="g147">
    <use
       xlink:href="#Layer7_0_MEMBER_0_MEMBER_1_MEMBER_1_MEMBER_0_MEMBER_0_MEMBER_0_MEMBER_1_MEMBER_0_FILL"
       id="use149"
       x="0"
       y="0"
       width="100%"
       height="100%" />
  </g>
  <g
     transform="matrix(4.5081787,0,0,4.5081787,-4.2827698,-4.9589966)"
     id="g151">
    <use
       xlink:href="#Layer7_0_MEMBER_0_MEMBER_1_MEMBER_1_MEMBER_1_MEMBER_0_MEMBER_0_MEMBER_0_FILL"
       id="use153"
       x="0"
       y="0"
       width="100%"
       height="100%" />
  </g>
  <g
     transform="matrix(4.5081787,0,0,4.5081787,-4.2827698,-4.9589966)"
     id="g155">
    <use
       xlink:href="#Layer7_0_MEMBER_0_MEMBER_1_MEMBER_1_MEMBER_1_MEMBER_0_MEMBER_0_MEMBER_1_MEMBER_0_FILL"
       id="use157"
       x="0"
       y="0"
       width="100%"
       height="100%" />
  </g>
  <g
     transform="matrix(4.5081787,0,0,4.5081787,-4.2827698,-4.9589966)"
     id="g159">
    <use
       xlink:href="#Layer7_0_MEMBER_0_MEMBER_1_MEMBER_1_MEMBER_2_FILL"
       id="use161"
       x="0"
       y="0"
       width="100%"
       height="100%" />
  </g>
  <g
     transform="matrix(4.5081787,0,0,4.5081787,-4.2827698,-4.9589966)"
     id="g163">
    <use
       xlink:href="#Layer7_0_MEMBER_0_MEMBER_1_MEMBER_1_MEMBER_3_FILL"
       id="use165"
       x="0"
       y="0"
       width="100%"
       height="100%" />
  </g>
</svg>
