
<svg xmlns="http://www.w3.org/2000/svg" version="1.1" xmlns:xlink="http://www.w3.org/1999/xlink" preserveAspectRatio="none" x="0px" y="0px" width="40px" height="39px" viewBox="0 0 40 39">
<defs>
<linearGradient id="Gradient_1" gradientUnits="userSpaceOnUse" x1="4.3" y1="68.2875" x2="4.3" y2="60.3125" spreadMethod="pad">
<stop  offset="0%" stop-color="#DF7272"/>

<stop  offset="100%" stop-color="#B0222A"/>
</linearGradient>

<linearGradient id="Gradient_2" gradientUnits="userSpaceOnUse" x1="6.9375" y1="64.65" x2="1.8625000000000003" y2="64.65" spreadMethod="pad">
<stop  offset="0%" stop-color="#BB3B3E"/>

<stop  offset="100%" stop-color="#992725"/>
</linearGradient>

<linearGradient id="Gradient_3" gradientUnits="userSpaceOnUse" x1="4.45" y1="63.8" x2="4.45" y2="61.5" spreadMethod="pad">
<stop  offset="0%" stop-color="#BB3B3E"/>

<stop  offset="100%" stop-color="#992725"/>
</linearGradient>

<g id="Layer0_0_MEMBER_0_MEMBER_0_FILL">
<path fill="url(#Gradient_1)" stroke="none" d="
M 8.3 64.3
Q 8.3 62.65 7.15 61.5 5.95 60.3 4.3 60.3 2.65 60.3 1.5 61.5 0.3 62.65 0.3 64.3 0.3 65.95 1.5 67.15 2.65 68.3 4.3 68.3 5.95 68.3 7.15 67.15 8.3 65.95 8.3 64.3 Z"/>
</g>

<g id="Layer0_0_MEMBER_0_MEMBER_1_FILL">
<path fill="#873333" stroke="none" d="
M 7.4 61.25
Q 6.1 60 4.3 60 2.55 60 1.25 61.25 0 62.5 0 64.3 0 66.1 1.25 67.35 2.55 68.6 4.3 68.6 6.1 68.6 7.4 67.35 8.65 66.1 8.65 64.3 8.65 62.5 7.4 61.25
M 1.5 61.5
Q 2.65 60.3 4.3 60.3 5.95 60.3 7.15 61.5 8.3 62.65 8.3 64.3 8.3 65.95 7.15 67.15 5.95 68.3 4.3 68.3 2.65 68.3 1.5 67.15 0.3 65.95 0.3 64.3 0.3 62.65 1.5 61.5 Z"/>
</g>

<g id="Layer0_0_MEMBER_0_MEMBER_2_MEMBER_0_FILL">
<path fill="#D65153" stroke="none" d="
M 7.15 61.5
Q 5.95 60.3 4.3 60.3 2.65 60.3 1.5 61.5 0.3 62.65 0.3 64.3 0.3 65.95 1.5 67.15 2.65 68.3 4.3 68.3 5.95 68.3 7.15 67.15 8.3 65.95 8.3 64.3 8.3 62.65 7.15 61.5
M 1.6 61.6
Q 2.75 60.5 4.3 60.5 5.9 60.5 7 61.6 8.1 62.75 8.1 64.3 8.1 65.9 7 67 5.9 68.1 4.3 68.1 2.75 68.1 1.6 67 0.5 65.9 0.5 64.3 0.5 62.75 1.6 61.6 Z"/>
</g>

<g id="Layer0_0_MEMBER_1_MEMBER_0_MEMBER_0_FILL">
<path fill="url(#Gradient_2)" stroke="none" d="
M 5.75 62.35
L 5.7 63.75
Q 5.9 64.15 5.9 64.5 5.9 65.15 5.45 65.55 5.05 66 4.4 66 3.8 66 3.4 65.55 2.95 65.15 2.95 64.5 2.95 64 3.25 63.6
L 3.25 62.25
Q 1.9 63 1.9 64.5 1.9 65.6 2.65 66.35 3.35 67.1 4.4 67.1 5.45 67.1 6.2 66.35 6.95 65.6 6.95 64.5 6.95 63.1 5.75 62.35 Z"/>
</g>

<g id="Layer0_0_MEMBER_1_MEMBER_0_MEMBER_1_MEMBER_0_FILL">
<path fill="#D6585C" stroke="none" d="
M 5.85 62.15
L 5.65 62.15 5.55 62.3 5.5 63.85
Q 5.7 64.1 5.7 64.5 5.7 65.05 5.3 65.45 4.95 65.8 4.4 65.8 3.85 65.8 3.5 65.45 3.15 65.05 3.15 64.5 3.15 64.05 3.4 63.7
L 3.45 63.6 3.45 62.25 3.35 62.1 3.25 62.05 3.15 62.05
Q 1.7 62.85 1.7 64.5 1.7 65.65 2.5 66.5 3.3 67.3 4.4 67.3 5.55 67.3 6.35 66.5 7.15 65.65 7.15 64.5 7.15 62.95 5.85 62.15
M 5.9 64.5
Q 5.9 64.15 5.7 63.75
L 5.75 62.35
Q 6.95 63.1 6.95 64.5 6.95 65.6 6.2 66.35 5.45 67.1 4.4 67.1 3.35 67.1 2.65 66.35 1.9 65.6 1.9 64.5 1.9 63 3.25 62.25
L 3.25 63.6
Q 2.95 64 2.95 64.5 2.95 65.15 3.4 65.55 3.8 66 4.4 66 5.05 66 5.45 65.55 5.9 65.15 5.9 64.5 Z"/>
</g>

<g id="Layer0_0_MEMBER_1_MEMBER_1_FILL">
<path fill="#8A292E" stroke="none" d="
M 2.6 65.5
Q 1.8 64.1 3.15 62.3 1.9 63.05 1.9 64.5 1.9 65.6 2.65 66.35 3.35 67.1 4.4 67.1 5.35 67.1 6.15 66.4 5.55 66.7 4.85 66.75 3.35 66.85 2.6 65.5 Z"/>
</g>

<g id="Layer0_0_MEMBER_1_MEMBER_2_MEMBER_0_FILL">
<path fill="url(#Gradient_3)" stroke="none" d="
M 5 61.5
L 3.9 61.5 3.9 63.8 5 63.8 5 61.5 Z"/>
</g>

<g id="Layer0_0_MEMBER_1_MEMBER_2_MEMBER_1_MEMBER_0_FILL">
<path fill="#D6585C" stroke="none" d="
M 5.2 61.5
Q 5.2 61.3 5 61.3
L 3.9 61.3
Q 3.7 61.3 3.7 61.5
L 3.7 63.8
Q 3.7 64 3.9 64
L 5 64
Q 5.2 64 5.2 63.8
L 5.2 61.5
M 3.9 61.5
L 5 61.5 5 63.8 3.9 63.8 3.9 61.5 Z"/>
</g>

<g id="Layer0_0_MEMBER_1_MEMBER_3_FILL">
<path fill="#8A292E" stroke="none" d="
M 4.35 61.5
L 3.9 61.5 3.9 63.8 5 63.8 5 63.45 4.35 63.45 4.35 61.5 Z"/>
</g>
</defs>

<g transform="matrix( 4.5130615234375, 0, 0, 4.5130615234375, 0,-270.8) ">
<use xlink:href="#Layer0_0_MEMBER_0_MEMBER_0_FILL"/>
</g>

<g transform="matrix( 4.5130615234375, 0, 0, 4.5130615234375, 0,-270.8) ">
<use xlink:href="#Layer0_0_MEMBER_0_MEMBER_1_FILL"/>
</g>

<g transform="matrix( 4.5130615234375, 0, 0, 4.5130615234375, 0,-270.8) ">
<use xlink:href="#Layer0_0_MEMBER_0_MEMBER_2_MEMBER_0_FILL"/>
</g>

<g transform="matrix( 4.5130615234375, 0, 0, 4.5130615234375, 0,-270.8) ">
<use xlink:href="#Layer0_0_MEMBER_1_MEMBER_0_MEMBER_0_FILL"/>
</g>

<g transform="matrix( 4.5130615234375, 0, 0, 4.5130615234375, 0,-270.8) ">
<use xlink:href="#Layer0_0_MEMBER_1_MEMBER_0_MEMBER_1_MEMBER_0_FILL"/>
</g>

<g transform="matrix( 4.5130615234375, 0, 0, 4.5130615234375, 0,-270.8) ">
<use xlink:href="#Layer0_0_MEMBER_1_MEMBER_1_FILL"/>
</g>

<g transform="matrix( 4.5130615234375, 0, 0, 4.5130615234375, 0,-270.8) ">
<use xlink:href="#Layer0_0_MEMBER_1_MEMBER_2_MEMBER_0_FILL"/>
</g>

<g transform="matrix( 4.5130615234375, 0, 0, 4.5130615234375, 0,-270.8) ">
<use xlink:href="#Layer0_0_MEMBER_1_MEMBER_2_MEMBER_1_MEMBER_0_FILL"/>
</g>

<g transform="matrix( 4.5130615234375, 0, 0, 4.5130615234375, 0,-270.8) ">
<use xlink:href="#Layer0_0_MEMBER_1_MEMBER_3_FILL"/>
</g>
</svg>
