
<svg xmlns="http://www.w3.org/2000/svg" version="1.1" xmlns:xlink="http://www.w3.org/1999/xlink" preserveAspectRatio="none" x="0px" y="0px" width="40px" height="39px" viewBox="0 0 40 39">
<defs>
<linearGradient id="Gradient_1" gradientUnits="userSpaceOnUse" x1="4.3" y1="8.2875" x2="4.3" y2="0.31249999999999956" spreadMethod="pad">
<stop  offset="0%" stop-color="#F07A74"/>

<stop  offset="49.80392156862745%" stop-color="#D82F30"/>
</linearGradient>

<radialGradient id="Gradient_2" gradientUnits="userSpaceOnUse" cx="0" cy="0" r="7.950000000000001" fx="0" fy="0" gradientTransform="matrix( 0, 0.9999999999999999, 1.4999999999999998, 0, 4.3,0.35) " spreadMethod="pad">
<stop  offset="0%" stop-color="#FFFFFF" stop-opacity="0.7490196078431373"/>

<stop  offset="54.11764705882353%" stop-color="#FFFFFF" stop-opacity="0.2"/>

<stop  offset="54.90196078431372%" stop-color="#FFFFFF" stop-opacity="0"/>
</radialGradient>

<linearGradient id="Gradient_3" gradientUnits="userSpaceOnUse" x1="6.9375" y1="4.7" x2="1.8625000000000003" y2="4.7" spreadMethod="pad">
<stop  offset="0%" stop-color="#D82F30"/>

<stop  offset="100%" stop-color="#B6232A"/>
</linearGradient>

<linearGradient id="Gradient_4" gradientUnits="userSpaceOnUse" x1="4.45" y1="3.8500000000000005" x2="4.45" y2="1.55" spreadMethod="pad">
<stop  offset="0%" stop-color="#D82F30"/>

<stop  offset="100%" stop-color="#B6232A"/>
</linearGradient>

<g id="Layer2_0_MEMBER_0_MEMBER_0_FILL">
<path fill="url(#Gradient_1)" stroke="none" d="
M 8.3 4.3
Q 8.3 2.65 7.15 1.5 5.95 0.35 4.3 0.35 2.65 0.35 1.5 1.5 0.3 2.65 0.3 4.3 0.3 6 1.5 7.15 2.65 8.3 4.3 8.3 5.95 8.3 7.15 7.15 8.3 6 8.3 4.3 Z"/>
</g>

<g id="Layer2_0_MEMBER_0_MEMBER_1_MEMBER_0_FILL">
<path fill="#873333" stroke="none" d="
M 8.65 4.3
Q 8.65 2.55 7.4 1.25 6.1 0 4.3 0 2.55 0 1.25 1.25 0 2.55 0 4.3 0 6.1 1.25 7.4 2.55 8.65 4.3 8.65 6.1 8.65 7.4 7.4 8.65 6.1 8.65 4.3
M 7.15 1.5
Q 8.3 2.65 8.3 4.3 8.3 6 7.15 7.15 5.95 8.3 4.3 8.3 2.65 8.3 1.5 7.15 0.3 6 0.3 4.3 0.3 2.65 1.5 1.5 2.65 0.35 4.3 0.35 5.95 0.35 7.15 1.5 Z"/>
</g>

<g id="Layer2_0_MEMBER_0_MEMBER_2_MEMBER_0_FILL">
<path fill="#ED5A6C" stroke="none" d="
M 8.3 4.3
Q 8.3 2.65 7.15 1.5 5.95 0.35 4.3 0.35 2.65 0.35 1.5 1.5 0.3 2.65 0.3 4.3 0.3 6 1.5 7.15 2.65 8.3 4.3 8.3 5.95 8.3 7.15 7.15 8.3 6 8.3 4.3
M 7 1.65
Q 8.1 2.75 8.1 4.3 8.1 5.9 7 7 5.9 8.1 4.3 8.1 2.75 8.1 1.65 7 0.55 5.9 0.55 4.3 0.55 2.75 1.65 1.65 2.75 0.55 4.3 0.55 5.85 0.55 7 1.65 Z"/>
</g>

<g id="Layer2_0_MEMBER_0_MEMBER_3_FILL">
<path fill="url(#Gradient_2)" stroke="none" d="
M 8.3 4.3
Q 8.3 2.65 7.15 1.5 5.95 0.35 4.3 0.35 2.65 0.35 1.5 1.5 0.3 2.65 0.3 4.3 0.3 6 1.5 7.15 2.65 8.3 4.3 8.3 5.95 8.3 7.15 7.15 8.3 6 8.3 4.3 Z"/>
</g>

<g id="Layer2_0_MEMBER_1_MEMBER_0_MEMBER_0_FILL">
<path fill="url(#Gradient_3)" stroke="none" d="
M 5.75 2.35
L 5.7 3.75
Q 5.9 4.25 5.9 4.55 5.9 5.15 5.45 5.6 5.05 6.05 4.4 6.05 3.8 6.05 3.4 5.6 2.95 5.15 2.95 4.55 2.95 4 3.25 3.6
L 3.25 2.3
Q 1.9 3 1.9 4.55 1.9 5.6 2.65 6.35 3.35 7.1 4.4 7.1 5.45 7.1 6.2 6.35 6.95 5.6 6.95 4.55 6.95 3.1 5.75 2.35 Z"/>
</g>

<g id="Layer2_0_MEMBER_1_MEMBER_0_MEMBER_1_MEMBER_0_FILL">
<path fill="#F29094" stroke="none" d="
M 5.9 2.1
L 5.6 2.1
Q 5.45 2.2 5.45 2.35
L 5.4 3.75 5.45 3.9
Q 5.6 4.2 5.6 4.55 5.6 5.05 5.25 5.4 4.9 5.75 4.4 5.75 3.9 5.75 3.55 5.4 3.2 5.05 3.2 4.55 3.2 4.15 3.45 3.8
L 3.5 3.6 3.5 2.3 3.4 2.05 3.25 2 3.1 2.05
Q 1.6 2.9 1.6 4.55 1.6 5.7 2.4 6.55 3.25 7.4 4.4 7.4 5.55 7.4 6.4 6.55 7.25 5.7 7.25 4.55 7.25 3 5.9 2.1
M 5.9 4.55
Q 5.9 4.25 5.7 3.75
L 5.75 2.35
Q 6.95 3.1 6.95 4.55 6.95 5.6 6.2 6.35 5.45 7.1 4.4 7.1 3.35 7.1 2.65 6.35 1.9 5.6 1.9 4.55 1.9 3 3.25 2.3
L 3.25 3.6
Q 2.95 4 2.95 4.55 2.95 5.15 3.4 5.6 3.8 6.05 4.4 6.05 5.05 6.05 5.45 5.6 5.9 5.15 5.9 4.55 Z"/>
</g>

<g id="Layer2_0_MEMBER_1_MEMBER_1_FILL">
<path fill="#7F171B" stroke="none" d="
M 2.6 5.55
Q 1.85 4.15 3.15 2.3 1.9 3.05 1.9 4.55 1.9 5.6 2.65 6.35 3.35 7.1 4.4 7.1 5.45 7.1 6.15 6.4 5.55 6.7 4.85 6.75 3.35 6.85 2.6 5.55 Z"/>
</g>

<g id="Layer2_0_MEMBER_1_MEMBER_2_MEMBER_0_FILL">
<path fill="url(#Gradient_4)" stroke="none" d="
M 5 1.55
L 3.9 1.55 3.9 3.85 5 3.85 5 1.55 Z"/>
</g>

<g id="Layer2_0_MEMBER_1_MEMBER_2_MEMBER_1_MEMBER_0_FILL">
<path fill="#F29094" stroke="none" d="
M 5.25 3.85
L 5.25 1.55
Q 5.25 1.25 5 1.25
L 3.9 1.25
Q 3.65 1.25 3.65 1.55
L 3.65 3.85
Q 3.65 4.1 3.9 4.1
L 5 4.1
Q 5.25 4.1 5.25 3.85
M 3.9 1.55
L 5 1.55 5 3.85 3.9 3.85 3.9 1.55 Z"/>
</g>

<g id="Layer2_0_MEMBER_1_MEMBER_3_FILL">
<path fill="#7F171B" stroke="none" d="
M 4.35 1.55
L 3.9 1.55 3.9 3.85 5 3.85 5 3.5 4.35 3.5 4.35 1.55 Z"/>
</g>
</defs>

<g transform="matrix( 4.5130615234375, 0, 0, 4.5130615234375, 0,0) ">
<use xlink:href="#Layer2_0_MEMBER_0_MEMBER_0_FILL"/>
</g>

<g transform="matrix( 4.5130615234375, 0, 0, 4.5130615234375, 0,0) ">
<use xlink:href="#Layer2_0_MEMBER_0_MEMBER_1_MEMBER_0_FILL"/>
</g>

<g transform="matrix( 4.5130615234375, 0, 0, 4.5130615234375, 0,0) ">
<use xlink:href="#Layer2_0_MEMBER_0_MEMBER_2_MEMBER_0_FILL"/>
</g>

<g transform="matrix( 4.5130615234375, 0, 0, 4.5130615234375, 0,0) ">
<use xlink:href="#Layer2_0_MEMBER_0_MEMBER_3_FILL"/>
</g>

<g transform="matrix( 4.5130615234375, 0, 0, 4.5130615234375, 0,0) ">
<use xlink:href="#Layer2_0_MEMBER_1_MEMBER_0_MEMBER_0_FILL"/>
</g>

<g transform="matrix( 4.5130615234375, 0, 0, 4.5130615234375, 0,0) ">
<use xlink:href="#Layer2_0_MEMBER_1_MEMBER_0_MEMBER_1_MEMBER_0_FILL"/>
</g>

<g transform="matrix( 4.5130615234375, 0, 0, 4.5130615234375, 0,0) ">
<use xlink:href="#Layer2_0_MEMBER_1_MEMBER_1_FILL"/>
</g>

<g transform="matrix( 4.5130615234375, 0, 0, 4.5130615234375, 0,0) ">
<use xlink:href="#Layer2_0_MEMBER_1_MEMBER_2_MEMBER_0_FILL"/>
</g>

<g transform="matrix( 4.5130615234375, 0, 0, 4.5130615234375, 0,0) ">
<use xlink:href="#Layer2_0_MEMBER_1_MEMBER_2_MEMBER_1_MEMBER_0_FILL"/>
</g>

<g transform="matrix( 4.5130615234375, 0, 0, 4.5130615234375, 0,0) ">
<use xlink:href="#Layer2_0_MEMBER_1_MEMBER_3_FILL"/>
</g>
</svg>
