<svg xmlns="http://www.w3.org/2000/svg" xmlns:xlink="http://www.w3.org/1999/xlink" width="50" height="22" viewBox="0 0 50 22"><defs><style>.a{opacity:0.2;}.b{fill:url(#a);}.c{fill:#b49b7f;}.d{fill:url(#b);}.e{fill:url(#c);}.f{fill:#357228;}</style><linearGradient id="a" x1="11" y1="19.5" x2="11" y2="2.5" gradientUnits="userSpaceOnUse"><stop offset="0" stop-color="#eae2c6"/><stop offset=".512" stop-color="#faf5eb"/><stop offset="1" stop-color="#fff"/></linearGradient><linearGradient id="b" x1="36" x2="36" xlink:href="#a"/><linearGradient id="c" x1="32.386" y1="13.019" x2="44.606" y2=".8" gradientUnits="userSpaceOnUse"><stop offset="0" stop-color="#57c742"/><stop offset="1" stop-color="#a3e46a"/></linearGradient></defs><title>core_form_checkbox_sprite</title><g class="a"><path d="M3.5 3.5h17v17h-17z"/><path d="M20 4v16H4V4h16m1-1H3v18h18V3z"/></g><path class="b" d="M2.5 2.5h17v17h-17z"/><path class="c" d="M19 3v16H3V3h16m1-1H2v18h18V2z"/><g class="a"><path d="M28.5 3.5h17v17h-17z"/><path d="M45 4v16H29V4h16m1-1H28v18h18V3z"/></g><path class="d" d="M27.5 2.5h17v17h-17z"/><path class="c" d="M44 3v16H28V3h16m1-1H27v18h18V2z"/><g class="a"><path d="M30.353 10.984a.766.766 0 0 1-.1-.9c.318-.77 2.027-2.583 2.9-2.583a.68.68 0 0 1 .486.195l3.41 3.41 7.7-8.777a.7.7 0 0 1 .51-.218c.875 0 2.583 1.813 2.9 2.583a.766.766 0 0 1-.1.9L37.092 17.726z"/><path d="M45.258 2.612c.67 0 2.842 2.234 2.447 2.628L37.075 17l-6.37-6.37c-.4-.4 1.778-2.627 2.447-2.627a.18.18 0 0 1 .132.048l3.79 3.79 8.05-9.18a.18.18 0 0 1 .133-.048m0-1a1.177 1.177 0 0 0-.84.34l-.024.024-.02.024-7.347 8.377-3.035-3.034A1.175 1.175 0 0 0 33.153 7c-1.21 0-3.028 2.077-3.365 2.892A1.253 1.253 0 0 0 30 11.34l6.366 6.367.744.744.705-.78L48.44 5.918a1.257 1.257 0 0 0 .183-1.417c-.337-.815-2.158-2.893-3.365-2.893z"/></g><path class="e" d="M29.353 9.984a.766.766 0 0 1-.1-.9c.318-.77 2.027-2.583 2.9-2.583a.68.68 0 0 1 .486.195l3.41 3.41 7.7-8.777a.7.7 0 0 1 .51-.218c.875 0 2.583 1.813 2.9 2.583a.766.766 0 0 1-.1.9L36.092 16.726z"/><path class="f" d="M44.258 1.612c.67 0 2.842 2.234 2.447 2.628L36.075 16l-6.37-6.37C29.308 9.235 31.484 7 32.153 7a.18.18 0 0 1 .132.048l3.79 3.788 8.05-9.18a.18.18 0 0 1 .133-.047m0-1a1.177 1.177 0 0 0-.84.34l-.024.023-.02.027-7.347 8.377-3.035-3.034A1.175 1.175 0 0 0 32.153 6c-1.21 0-3.028 2.077-3.365 2.892A1.253 1.253 0 0 0 29 10.34l6.366 6.367.744.744.705-.78L47.44 4.918a1.257 1.257 0 0 0 .183-1.417c-.337-.81-2.158-2.888-3.365-2.888z"/></svg>