<svg xmlns="http://www.w3.org/2000/svg" xmlns:xlink="http://www.w3.org/1999/xlink" width="160" height="40" viewBox="0 0 160 40"><defs><style>.a{opacity:0.2;}.b{fill:#357228;}.c{fill:url(#a);}.d{fill:#cf7528;}.e{fill:#eea921;}.f{fill:#8d211d;}.g{fill:url(#b);}</style><linearGradient id="a" x1="90.239" y1="25.308" x2="109.759" y2="5.788" gradientUnits="userSpaceOnUse"><stop offset="0" stop-color="#57c742"/><stop offset="1" stop-color="#a3e46a"/></linearGradient><linearGradient id="b" x1="140.001" y1="32.036" x2="140.001" y2="7.962" gradientUnits="userSpaceOnUse"><stop offset="0" stop-color="#db4528"/><stop offset="1" stop-color="#ef662e"/></linearGradient></defs><title>core_form_input_status_icn_sprite.svg</title><path class="a" d="M118.043,13.042c-.71-1.719-4.211-5.391-6.11-5.391a1.611,1.611,0,0,0-1.153.463L98.034,20.856l-6.818-6.814a1.608,1.608,0,0,0-1.149-.462h0c-1.9,0-5.4,3.668-6.11,5.389a1.776,1.776,0,0,0,.263,2.081L98.034,34.866l19.751-19.75A1.773,1.773,0,0,0,118.043,13.042Z"/><path class="b" d="M110.933,6.65a1.612,1.612,0,0,0-1.153.463L97.034,19.856l-6.818-6.814a1.608,1.608,0,0,0-1.149-.461h0c-1.9,0-5.4,3.669-6.11,5.389a1.776,1.776,0,0,0,.263,2.081L97.034,33.866l19.751-19.75a1.773,1.773,0,0,0,.258-2.075c-.71-1.719-4.211-5.391-6.11-5.391Z"/><path class="c" d="M110.663,7.994,97.034,21.619l-7.7-7.7a.363.363,0,0,0-.268-.1c-1.358,0-5.778,4.533-4.968,5.338L97.034,32.1,115.9,13.235C116.771,12.37,111.532,7.124,110.663,7.994Z"/><path class="d" d="M60,7.45c-6.136,0-12.347,4.217-12.347,12.277,0,8.248,7.043,15.654,20.241,11.724a2.107,2.107,0,0,0-1.208-4.036c-9.93,2.96-14.82-1.748-14.82-7.688,0-5.54,4.216-8.064,8.134-8.064,4.485,0,8.133,3.056,8.133,6.811,0,3.629-6.161,3.988-6.223,3.991-2.013,0-2.963-.871-2.963-2.739,0-1.29.525-1.539,3.427-1.534,3.335,0,3.636-4.212.069-4.212-1.422,0-4.3-.107-6.159,1.709a5.416,5.416,0,0,0-1.55,4.037c0,4.8,3.618,6.951,7.2,6.951,3.4,0,10.409-2.005,10.409-8.2C72.346,12.4,66.808,7.45,60,7.45Z"/><path class="e" d="M48.7,19.727c0,7.843,6.666,14.358,18.892,10.717a1.057,1.057,0,0,0-.6-2.025C47.307,34.287,46.253,10.613,60,10.613c5.064,0,9.183,3.527,9.183,7.861,0,4.665-7.174,5.041-7.247,5.041-2.6,0-4.04-1.345-4.04-3.788,0-2.5,1.979-2.589,4.479-2.583,1.884,0,2.3-2.112.067-2.112-3.74-.008-6.66.814-6.66,4.7,0,9.429,15.512,6.5,15.512-1.252C71.3,5.6,48.7,4.489,48.7,19.727Z"/><path class="a" d="M153.3,27.511,146.791,21l6.51-6.51c3.859-3.869-2.012-9.558-5.789-5.8L128.7,27.509c-3.829,3.849,1.964,9.6,5.79,5.8L141,26.791l6.51,6.512C151.3,37.1,157.136,31.354,153.3,27.511Z"/><path class="f" d="M146.512,7.694,140,14.208,133.491,7.7c-3.859-3.834-9.594,1.974-5.8,5.792L134.209,20,127.7,26.509c-3.83,3.85,1.966,9.6,5.79,5.8L140,25.791l6.51,6.512c3.795,3.794,9.626-1.949,5.792-5.792L145.791,20l6.51-6.51C156.128,9.654,150.343,3.878,146.512,7.694Z"/><path class="g" d="M151.24,27.57,143.67,20l7.57-7.57c2.421-2.427-1.235-6.1-3.669-3.673L140,16.33l-7.57-7.573c-2.436-2.42-6.09,1.243-3.672,3.673L136.331,20l-7.573,7.57C126.336,30,130,33.661,132.43,31.242L140,23.669l7.57,7.573a2.469,2.469,0,0,0,1.769.777A2.616,2.616,0,0,0,151.24,27.57Z"/></svg>