
<svg xmlns="http://www.w3.org/2000/svg" version="1.1" xmlns:xlink="http://www.w3.org/1999/xlink" preserveAspectRatio="none" x="0px" y="0px" width="350px" height="350px" viewBox="0 0 350 350">
<defs>
<filter id="Filter_1" x="-20%" y="-20%" width="140%" height="140%" color-interpolation-filters="sRGB">
<feColorMatrix in="SourceGraphic" type="matrix" values="1 0 0 0 0 0 1 0 0 0 0 0 1 0 0 0 0 0 0.1 0" result="result1"/>
</filter>

<g id="FlashAICB_Layer_2_spiral_0_Layer0_0_MEMBER_0_FILL">
<path fill="#0F4965" stroke="none" d="
M 0 247.8
L 0 267.75 18.4 248.55 35.45 276.25 21.35 285.65 11.55 280.4 20.35 268.45 13.95 260.3 0 276.4 0 277.55 26.8 297.8 47.15 282.8 14.35 230.7 0 247.8 Z"/>
</g>

<g id="FlashAICB_Layer_2_spiral_0_Layer0_0_MEMBER_1_FILL">
<path fill="#0F4965" stroke="none" d="
M 76.95 133.3
L 76.9 133.9 110.9 161 80.6 190.25 65.7 163.75 79.2 155.5 88.15 160.75 79.5 171.55 85.15 179.45 99.35 164.3 74.55 143.95 55 157.25 83.7 207.05 124.8 161.8 91 133.25 76.95 133.3 Z"/>
</g>

<g id="FlashAICB_Layer_2_spiral_0_Layer0_0_MEMBER_2_FILL">
<path fill="#0F4965" stroke="none" d="
M 151.9 234.15
L 161.15 203.35 141.35 190.3 106.25 236.1 164 256.75 177.35 214.7 171.35 201.75 159.4 243.55 120.6 226.75 139.4 202.75 152.25 212.1 150.85 222.4 137.5 218.55 132.4 226.8 151.9 234.15 Z"/>
</g>

<g id="FlashAICB_Layer_2_spiral_0_Layer0_0_MEMBER_3_FILL">
<path fill="#0F4965" stroke="none" d="
M 2.65 92.25
L 0 89.55 0 104.25 46.25 60.8 0 35.15 0 50.45 28.3 68.7 2.65 92.25 Z"/>
</g>

<g id="FlashAICB_Layer_2_spiral_0_Layer0_0_MEMBER_4_FILL">
<path fill="#0F4965" stroke="none" d="
M 157.8 31.15
L 128.1 49.4 118.05 34.3 123.65 23.8 136.45 33.25 145.2 26.4 127.2 10.8 105.05 40.15 121.1 61.95 176.9 26.8 144.9 0 125.25 0 157.8 31.15 Z"/>
</g>

<g id="FlashAICB_Layer_2_spiral_0_Layer0_0_MEMBER_5_FILL">
<path fill="#0F4965" stroke="none" d="
M 7.75 74.8
L 15.1 66.45 0 57.75 0 71.1 7.75 74.8 Z"/>
</g>

<g id="FlashAICB_Layer_2_spiral_0_Layer0_0_MEMBER_6_FILL">
<path fill="#0F4965" stroke="none" d="
M 194.35 19.75
L 201.45 0 193.85 0 190.05 9.75 194.35 19.75 Z"/>
</g>

<g id="FlashAICB_Layer_2_spiral_0_Layer0_0_MEMBER_7_FILL">
<path fill="#0F4965" stroke="none" d="
M 234 0
L 236.5 1.3 219.8 20.55 210.2 12.15 212.05 3.6 222.45 7.4 227.1 0.7 225.55 0 209.7 0 202.5 19.1 217.4 30.9 243.6 0 234 0 Z"/>
</g>

<g id="FlashAICB_Layer_2_spiral_0_Layer0_0_MEMBER_8_FILL">
<path fill="#0F4965" stroke="none" d="
M 188.15 164.7
L 191.3 158.95 178.7 154.7 173.35 175.75 186.25 183.8 207.8 151.8 170.5 139.95 162.65 169.45 166.95 177 173.7 148.65 198.8 158.6 187.25 175.4 178.85 169.55 179.55 162.6 188.15 164.7 Z"/>
</g>

<g id="FlashAICB_Layer_2_spiral_0_Layer0_0_MEMBER_9_FILL">
<path fill="#0F4965" stroke="none" d="
M 272.45 45.35
L 265.75 38.45 254 55.4 281.35 71.7 298.6 55.85 263.15 11.15 229.4 61.55 266.55 84.5 280.4 81.85 243.2 60.3 268.65 27.2 287.15 51 275.1 61.05 265.55 57.2 272.45 45.35 Z"/>
</g>

<g id="FlashAICB_Layer_2_spiral_0_Layer0_0_MEMBER_10_FILL">
<path fill="#0F4965" stroke="none" d="
M 11.95 195.2
L 0 185.9 0 199.8 12.8 208.45 35.5 171.15 32.65 159.05 11.95 195.2 Z"/>
</g>

<g id="FlashAICB_Layer_2_spiral_0_Layer0_0_MEMBER_11_FILL">
<path fill="#0F4965" stroke="none" d="
M 238 193.05
L 229.7 187 220.5 207 252.25 219.1 267.45 199.25 221.9 158.8 195.75 218 239.05 235.25 253.1 229.95 210 214.2 230.7 174.65 254.5 196.25 243.7 209.05 232.95 206.8 238 193.05 Z"/>
</g>

<g id="FlashAICB_Layer_2_spiral_0_Layer0_0_MEMBER_12_FILL">
<path fill="#0F4965" stroke="none" d="
M 259.7 158.3
L 277.85 179.65 332.85 139.35 274.2 96.75 244.95 140.3 246.8 156.8 247.55 156.85 275.05 113.25 313.45 145.2 284.15 166.2 272.7 151.35 277.7 140.1 291.6 148.9 300.15 141.2 280.45 126.45 259.7 158.3 Z"/>
</g>

<g id="FlashAICB_Layer_2_spiral_0_Layer0_0_MEMBER_13_FILL">
<path fill="#0F4965" stroke="none" d="
M 7.55 184.9
L 23.3 158.15 8.85 141.95 0 149.35 0 156.45 4.1 153.1 13.25 164.45 9.5 173.75 0 168.2 0 179.6 7.55 184.9 Z"/>
</g>

<g id="FlashAICB_Layer_2_spiral_0_Layer0_0_MEMBER_14_FILL">
<path fill="#0F4965" stroke="none" d="
M 336.2 0
L 324.6 0 310.7 8.55 305 0 289.45 0 304.25 20.1 336.2 0 Z"/>
</g>

<g id="FlashAICB_Layer_2_spiral_0_Layer0_0_MEMBER_15_FILL">
<path fill="#0F4965" stroke="none" d="
M 295.4 230.5
L 304.55 234.4 309.05 228.55 295.8 221.6 286.1 244.05 298.95 255.3 328.7 223.6 289.4 203.7 275.3 235.05 278.75 244.25 291.4 213.95 317.45 229.55 301.6 246.1 293.35 238.15 295.4 230.5 Z"/>
</g>

<g id="FlashAICB_Layer_2_spiral_0_Layer0_0_MEMBER_16_FILL">
<path fill="#0F4965" stroke="none" d="
M 64.2 242.85
L 77.75 235 59 200.05 30.3 228.15 53.3 249.55 62.25 249.3 39.75 229.45 60.85 211.5 70.55 230.05 61.25 234.85 55.25 230.85 61.3 224.05 57.55 218.45 47.65 227.9 64.2 242.85 Z"/>
</g>

<g id="FlashAICB_Layer_2_spiral_0_Layer0_0_MEMBER_17_FILL">
<path fill="#0F4965" stroke="none" d="
M 40.95 120.25
L 46.05 116.2 36.15 107.35 22.95 124.6 31.6 137.1 64.05 116.15 34.5 90.55 15.6 114.5 16.55 123.2 34 99.8 53.1 118.85 35.85 129.75 30.45 121.05 33.85 114.95 40.95 120.25 Z"/>
</g>

<g id="FlashAICB_Layer_2_spiral_0_Layer0_0_MEMBER_18_FILL">
<path fill="#0F4965" stroke="none" d="
M 144.35 100.45
L 152.5 120.4 142.25 125.05 136.4 120.55 143.45 113.7 140.15 107.65 128.8 117.05 144.5 133.55 159.45 125.95 143.65 88.3 110.65 116.55 131.85 139.5 141.85 140.4 120.4 118.35 144.35 100.45 Z"/>
</g>

<g id="FlashAICB_Layer_2_spiral_0_Layer0_0_MEMBER_19_FILL">
<path fill="#0F4965" stroke="none" d="
M 200.65 90.1
L 191.35 80.8 183.3 85.35 196.15 100.3 217.9 78.95 207.4 59.15 157.45 81.15 195.9 124.55 226.3 95.6 227.7 82.35 227.15 82.25 198.1 111.55 173.6 79.9 200.1 68.6 206.55 82.2 200.65 90.1 Z"/>
</g>

<g id="FlashAICB_Layer_2_spiral_0_Layer0_0_MEMBER_20_FILL">
<path fill="#0F4965" stroke="none" d="
M 88.9 81.95
L 81.05 74.2 74.35 78 85.1 90.55 103.35 72.65 94.5 56.05 52.6 74.45 84.9 110.9 110.4 86.6 111.55 75.5 111.1 75.35 86.75 99.95 66.2 73.45 88.45 63.95 93.8 75.35 88.9 81.95 Z"/>
</g>

<g id="FlashAICB_Layer_2_spiral_0_Layer0_0_MEMBER_21_FILL">
<path fill="#0F4965" stroke="none" d="
M 0 333.05
L 0 341.3 5.6 337.75 0 333.05 Z"/>
</g>

<g id="FlashAICB_Layer_2_spiral_0_Layer0_0_MEMBER_22_FILL">
<path fill="#0F4965" stroke="none" d="
M 350 267.75
L 350 247.8 322.25 280.85 350 302.4 350 290.5 337.2 281.1 350 267.75 Z"/>
</g>

<g id="FlashAICB_Layer_2_spiral_0_Layer0_0_MEMBER_23_FILL">
<path fill="#0F4965" stroke="none" d="
M 349.4 277.1
L 350 277.55 350 276.4 349.4 277.1 Z"/>
</g>

<g id="FlashAICB_Layer_2_spiral_0_Layer0_0_MEMBER_24_FILL">
<path fill="#0F4965" stroke="none" d="
M 350 341.3
L 350 333.05 306.2 296.25 277.5 333.1 278.1 347.9 278.75 347.95 305.9 310.95 338 341.75 324.6 350 336.2 350 350 341.3 Z"/>
</g>

<g id="FlashAICB_Layer_2_spiral_0_Layer0_0_MEMBER_25_FILL">
<path fill="#0F4965" stroke="none" d="
M 306.6 335
L 318.35 343.65 326.45 337.35 309.85 323 289.5 350 305 350 301.45 344.65 306.6 335 Z"/>
</g>

<g id="FlashAICB_Layer_2_spiral_0_Layer0_0_MEMBER_26_FILL">
<path fill="#0F4965" stroke="none" d="
M 193.85 350
L 201.45 350 206.7 335.45 234 350 243.6 350 248.6 344.1 203.95 324.2 193.85 350 Z"/>
</g>

<g id="FlashAICB_Layer_2_spiral_0_Layer0_0_MEMBER_27_FILL">
<path fill="#0F4965" stroke="none" d="
M 277.65 286.35
L 276.75 272.7 276.15 272.65 251.85 307.45 221.45 279.7 246.35 263.55 255.25 276.2 250.7 285.25 239.6 277.5 232.25 283.5 247.9 296.4 266.2 270.95 252.05 252.75 205.25 283.8 251.9 321.1 277.65 286.35 Z"/>
</g>

<g id="FlashAICB_Layer_2_spiral_0_Layer0_0_MEMBER_28_FILL">
<path fill="#0F4965" stroke="none" d="
M 348.55 167.4
L 341.95 174.05 350 179.6 350 168.2 348.55 167.4 Z"/>
</g>

<g id="FlashAICB_Layer_2_spiral_0_Layer0_0_MEMBER_29_FILL">
<path fill="#0F4965" stroke="none" d="
M 344.45 54.55
L 328.25 87.6 348.2 105.9 350 104.25 350 89.55 339.9 79.35 343.4 68 350 71.1 350 57.75 344.45 54.55 Z"/>
</g>

<g id="FlashAICB_Layer_2_spiral_0_Layer0_0_MEMBER_30_FILL">
<path fill="#0F4965" stroke="none" d="
M 350 35.15
L 335 26.8 312 72 315.7 87.65 316.4 87.6 337.75 42.55 350 50.45 350 35.15 Z"/>
</g>

<g id="FlashAICB_Layer_2_spiral_0_Layer0_0_MEMBER_31_FILL">
<path fill="#0F4965" stroke="none" d="
M 350 156.45
L 350 149.35 316.45 177.25 350 199.8 350 185.9 331.55 171.5 350 156.45 Z"/>
</g>

<g id="FlashAICB_Layer_2_spiral_0_Layer0_0_MEMBER_32_FILL">
<path fill="#0F4965" stroke="none" d="
M 168.7 309.2
L 176.1 300.9 171.9 294.3 159.8 305.85 178.85 323.3 195.2 313.55 174.35 272.15 139.2 306.75 165 331.05 176.45 331.25 150.4 308 176.1 285.8 186.9 307.8 175.65 313.85 168.7 309.2 Z"/>
</g>

<g id="FlashAICB_Layer_2_spiral_0_Layer0_0_MEMBER_33_FILL">
<path fill="#0F4965" stroke="none" d="
M 56.85 350
L 57.4 349.35 40.75 339.45 35.55 350 56.85 350 Z"/>
</g>

<g id="FlashAICB_Layer_2_spiral_0_Layer0_0_MEMBER_34_FILL">
<path fill="#0F4965" stroke="none" d="
M 24.65 309.3
L 24.7 308.65 0 290.5 0 302.4 9.65 309.95 24.65 309.3 Z"/>
</g>

<g id="FlashAICB_Layer_2_spiral_0_Layer0_0_MEMBER_35_FILL">
<path fill="#0F4965" stroke="none" d="
M 17.2 17.55
L 25.65 0 16.2 0 13.4 5.5 17.2 17.55 Z"/>
</g>

<g id="FlashAICB_Layer_2_spiral_0_Layer0_0_MEMBER_36_FILL">
<path fill="#0F4965" stroke="none" d="
M 42.6 33.2
L 77.1 0 66.45 0 68.2 1.15 46.6 21.5 36.5 10.65 39.6 0.95 51.2 6.6 56.85 0 35.55 0 26.75 17.8 42.6 33.2 Z"/>
</g>

<g id="FlashAICB_Layer_2_spiral_0_Layer0_0_MEMBER_37_FILL">
<path fill="#0F4965" stroke="none" d="
M 109.05 350
L 121.25 350 122.9 347.75 125.25 350 144.9 350 123.2 331.75 109.05 350 Z"/>
</g>

<g id="FlashAICB_Layer_2_spiral_0_Layer0_0_MEMBER_38_FILL">
<path fill="#0F4965" stroke="none" d="
M 209.7 350
L 225.55 350 212.05 343.7 209.7 350 Z"/>
</g>

<g id="FlashAICB_Layer_2_spiral_0_Layer0_0_MEMBER_39_FILL">
<path fill="#0F4965" stroke="none" d="
M 16.2 350
L 25.65 350 35.55 329.3 66.45 350 77.1 350 83.05 344.2 33.65 315.9 16.2 350 Z"/>
</g>

<g id="FlashAICB_Layer_2_spiral_0_Layer0_0_MEMBER_40_FILL">
<path fill="#0F4965" stroke="none" d="
M 92.7 37.8
L 93.4 37.9 121.25 0 109.05 0 92.05 21.75 92.7 37.8 Z"/>
</g>

<g id="FlashAICB_Layer_2_spiral_0_Layer0_0_MEMBER_41_FILL">
<path fill="#0F4965" stroke="none" d="
M 111.05 286.5
L 94.75 280.05 86.25 307.5 102.75 319 133.3 278.2 84.95 260 72.55 298.4 77.7 308.65 88.6 271.7 121 286.55 104.6 307.95 93.95 299.7 95.35 290.5 106.55 293.9 111.05 286.5 Z"/>
</g>
</defs>

<g transform="matrix( 1, 0, 0, 1, 0,0) ">
<g transform="matrix( 1, 0, 0, 1, 0,0) ">
<use filter="url(#Filter_1)" xlink:href="#FlashAICB_Layer_2_spiral_0_Layer0_0_MEMBER_0_FILL"/>
</g>

<g transform="matrix( 1, 0, 0, 1, 0,0) ">
<use filter="url(#Filter_1)" xlink:href="#FlashAICB_Layer_2_spiral_0_Layer0_0_MEMBER_1_FILL"/>
</g>

<g transform="matrix( 1, 0, 0, 1, 0,0) ">
<use filter="url(#Filter_1)" xlink:href="#FlashAICB_Layer_2_spiral_0_Layer0_0_MEMBER_2_FILL"/>
</g>

<g transform="matrix( 1, 0, 0, 1, 0,0) ">
<use filter="url(#Filter_1)" xlink:href="#FlashAICB_Layer_2_spiral_0_Layer0_0_MEMBER_3_FILL"/>
</g>

<g transform="matrix( 1, 0, 0, 1, 0,0) ">
<use filter="url(#Filter_1)" xlink:href="#FlashAICB_Layer_2_spiral_0_Layer0_0_MEMBER_4_FILL"/>
</g>

<g transform="matrix( 1, 0, 0, 1, 0,0) ">
<use filter="url(#Filter_1)" xlink:href="#FlashAICB_Layer_2_spiral_0_Layer0_0_MEMBER_5_FILL"/>
</g>

<g transform="matrix( 1, 0, 0, 1, 0,0) ">
<use filter="url(#Filter_1)" xlink:href="#FlashAICB_Layer_2_spiral_0_Layer0_0_MEMBER_6_FILL"/>
</g>

<g transform="matrix( 1, 0, 0, 1, 0,0) ">
<use filter="url(#Filter_1)" xlink:href="#FlashAICB_Layer_2_spiral_0_Layer0_0_MEMBER_7_FILL"/>
</g>

<g transform="matrix( 1, 0, 0, 1, 0,0) ">
<use filter="url(#Filter_1)" xlink:href="#FlashAICB_Layer_2_spiral_0_Layer0_0_MEMBER_8_FILL"/>
</g>

<g transform="matrix( 1, 0, 0, 1, 0,0) ">
<use filter="url(#Filter_1)" xlink:href="#FlashAICB_Layer_2_spiral_0_Layer0_0_MEMBER_9_FILL"/>
</g>

<g transform="matrix( 1, 0, 0, 1, 0,0) ">
<use filter="url(#Filter_1)" xlink:href="#FlashAICB_Layer_2_spiral_0_Layer0_0_MEMBER_10_FILL"/>
</g>

<g transform="matrix( 1, 0, 0, 1, 0,0) ">
<use filter="url(#Filter_1)" xlink:href="#FlashAICB_Layer_2_spiral_0_Layer0_0_MEMBER_11_FILL"/>
</g>

<g transform="matrix( 1, 0, 0, 1, 0,0) ">
<use filter="url(#Filter_1)" xlink:href="#FlashAICB_Layer_2_spiral_0_Layer0_0_MEMBER_12_FILL"/>
</g>

<g transform="matrix( 1, 0, 0, 1, 0,0) ">
<use filter="url(#Filter_1)" xlink:href="#FlashAICB_Layer_2_spiral_0_Layer0_0_MEMBER_13_FILL"/>
</g>

<g transform="matrix( 1, 0, 0, 1, 0,0) ">
<use filter="url(#Filter_1)" xlink:href="#FlashAICB_Layer_2_spiral_0_Layer0_0_MEMBER_14_FILL"/>
</g>

<g transform="matrix( 1, 0, 0, 1, 0,0) ">
<use filter="url(#Filter_1)" xlink:href="#FlashAICB_Layer_2_spiral_0_Layer0_0_MEMBER_15_FILL"/>
</g>

<g transform="matrix( 1, 0, 0, 1, 0,0) ">
<use filter="url(#Filter_1)" xlink:href="#FlashAICB_Layer_2_spiral_0_Layer0_0_MEMBER_16_FILL"/>
</g>

<g transform="matrix( 1, 0, 0, 1, 0,0) ">
<use filter="url(#Filter_1)" xlink:href="#FlashAICB_Layer_2_spiral_0_Layer0_0_MEMBER_17_FILL"/>
</g>

<g transform="matrix( 1, 0, 0, 1, 0,0) ">
<use filter="url(#Filter_1)" xlink:href="#FlashAICB_Layer_2_spiral_0_Layer0_0_MEMBER_18_FILL"/>
</g>

<g transform="matrix( 1, 0, 0, 1, 0,0) ">
<use filter="url(#Filter_1)" xlink:href="#FlashAICB_Layer_2_spiral_0_Layer0_0_MEMBER_19_FILL"/>
</g>

<g transform="matrix( 1, 0, 0, 1, 0,0) ">
<use filter="url(#Filter_1)" xlink:href="#FlashAICB_Layer_2_spiral_0_Layer0_0_MEMBER_20_FILL"/>
</g>

<g transform="matrix( 1, 0, 0, 1, 0,0) ">
<use filter="url(#Filter_1)" xlink:href="#FlashAICB_Layer_2_spiral_0_Layer0_0_MEMBER_21_FILL"/>
</g>

<g transform="matrix( 1, 0, 0, 1, 0,0) ">
<use filter="url(#Filter_1)" xlink:href="#FlashAICB_Layer_2_spiral_0_Layer0_0_MEMBER_22_FILL"/>
</g>

<g transform="matrix( 1, 0, 0, 1, 0,0) ">
<use filter="url(#Filter_1)" xlink:href="#FlashAICB_Layer_2_spiral_0_Layer0_0_MEMBER_23_FILL"/>
</g>

<g transform="matrix( 1, 0, 0, 1, 0,0) ">
<use filter="url(#Filter_1)" xlink:href="#FlashAICB_Layer_2_spiral_0_Layer0_0_MEMBER_24_FILL"/>
</g>

<g transform="matrix( 1, 0, 0, 1, 0,0) ">
<use filter="url(#Filter_1)" xlink:href="#FlashAICB_Layer_2_spiral_0_Layer0_0_MEMBER_25_FILL"/>
</g>

<g transform="matrix( 1, 0, 0, 1, 0,0) ">
<use filter="url(#Filter_1)" xlink:href="#FlashAICB_Layer_2_spiral_0_Layer0_0_MEMBER_26_FILL"/>
</g>

<g transform="matrix( 1, 0, 0, 1, 0,0) ">
<use filter="url(#Filter_1)" xlink:href="#FlashAICB_Layer_2_spiral_0_Layer0_0_MEMBER_27_FILL"/>
</g>

<g transform="matrix( 1, 0, 0, 1, 0,0) ">
<use filter="url(#Filter_1)" xlink:href="#FlashAICB_Layer_2_spiral_0_Layer0_0_MEMBER_28_FILL"/>
</g>

<g transform="matrix( 1, 0, 0, 1, 0,0) ">
<use filter="url(#Filter_1)" xlink:href="#FlashAICB_Layer_2_spiral_0_Layer0_0_MEMBER_29_FILL"/>
</g>

<g transform="matrix( 1, 0, 0, 1, 0,0) ">
<use filter="url(#Filter_1)" xlink:href="#FlashAICB_Layer_2_spiral_0_Layer0_0_MEMBER_30_FILL"/>
</g>

<g transform="matrix( 1, 0, 0, 1, 0,0) ">
<use filter="url(#Filter_1)" xlink:href="#FlashAICB_Layer_2_spiral_0_Layer0_0_MEMBER_31_FILL"/>
</g>

<g transform="matrix( 1, 0, 0, 1, 0,0) ">
<use filter="url(#Filter_1)" xlink:href="#FlashAICB_Layer_2_spiral_0_Layer0_0_MEMBER_32_FILL"/>
</g>

<g transform="matrix( 1, 0, 0, 1, 0,0) ">
<use filter="url(#Filter_1)" xlink:href="#FlashAICB_Layer_2_spiral_0_Layer0_0_MEMBER_33_FILL"/>
</g>

<g transform="matrix( 1, 0, 0, 1, 0,0) ">
<use filter="url(#Filter_1)" xlink:href="#FlashAICB_Layer_2_spiral_0_Layer0_0_MEMBER_34_FILL"/>
</g>

<g transform="matrix( 1, 0, 0, 1, 0,0) ">
<use filter="url(#Filter_1)" xlink:href="#FlashAICB_Layer_2_spiral_0_Layer0_0_MEMBER_35_FILL"/>
</g>

<g transform="matrix( 1, 0, 0, 1, 0,0) ">
<use filter="url(#Filter_1)" xlink:href="#FlashAICB_Layer_2_spiral_0_Layer0_0_MEMBER_36_FILL"/>
</g>

<g transform="matrix( 1, 0, 0, 1, 0,0) ">
<use filter="url(#Filter_1)" xlink:href="#FlashAICB_Layer_2_spiral_0_Layer0_0_MEMBER_37_FILL"/>
</g>

<g transform="matrix( 1, 0, 0, 1, 0,0) ">
<use filter="url(#Filter_1)" xlink:href="#FlashAICB_Layer_2_spiral_0_Layer0_0_MEMBER_38_FILL"/>
</g>

<g transform="matrix( 1, 0, 0, 1, 0,0) ">
<use filter="url(#Filter_1)" xlink:href="#FlashAICB_Layer_2_spiral_0_Layer0_0_MEMBER_39_FILL"/>
</g>

<g transform="matrix( 1, 0, 0, 1, 0,0) ">
<use filter="url(#Filter_1)" xlink:href="#FlashAICB_Layer_2_spiral_0_Layer0_0_MEMBER_40_FILL"/>
</g>

<g transform="matrix( 1, 0, 0, 1, 0,0) ">
<use filter="url(#Filter_1)" xlink:href="#FlashAICB_Layer_2_spiral_0_Layer0_0_MEMBER_41_FILL"/>
</g>
</g>
</svg>
