
<svg xmlns="http://www.w3.org/2000/svg" version="1.1" xmlns:xlink="http://www.w3.org/1999/xlink" preserveAspectRatio="none" x="0px" y="0px" width="500px" height="549px" viewBox="0 0 500 549">
<defs>
<linearGradient id="Gradient_1" gradientUnits="userSpaceOnUse" x1="161.3" y1="558.8" x2="161.3" y2="-11.199999999999989" spreadMethod="pad">
<stop  offset="0%" stop-color="#945229"/>

<stop  offset="100%" stop-color="#A26430"/>
</linearGradient>

<g id="gameFrame_0_Layer2_0_MEMBER_0_FILL">
<path fill="url(#Gradient_1)" stroke="none" d="
M 160.1 0
Q 159.1 4.55 156.9 7.05 154.1 10.2 157.4 15.55 159.75 19.45 160 19.9 161.2 22.4 160.9 24.35 156.85 48.75 158.9 57.35 160.2 62.7 157.55 72.35 155.5 79.7 153.9 82.35 152.55 84.55 152.75 95.55 152.95 109.5 157.15 121.05 160.9 131.4 160.3 149.1 159.9 161.5 157.9 171.7 155.8 182.35 157.8 211.9 158.8 226.7 160.2 239.35 158.85 241.15 155.35 244.2 153.45 245.85 153.55 248 153.85 252.05 159.85 252.15
L 160.1 266.2 160.15 268.45
Q 160.15 270.75 160.05 272.95
L 157.9 298
Q 156.05 307.75 157.65 318.35 159.6 331 159.2 337.65 158.7 345.8 155.05 362.75 151.75 378.15 151.9 383.35 152 386.2 156.3 412.65 160.2 441.3 158.55 457.65 157.65 466.5 158.05 481.85 158.45 497.5 158.2 500.35 157.3 511.6 157.45 529.35 157.6 541.4 158.4 548.8
L 170.7 548.8 170.7 0 160.1 0 Z"/>

<path fill="#6C4434" stroke="none" d="
M 160.1 0
L 159.05 0
Q 158.15 4.15 156.15 6.4 153.95 8.9 154.7 12.05 155.15 13.9 157.35 17.35 158.8 19.7 159.3 20.85 160.15 22.75 159.9 24.2 155.8 48.65 157.9 57.6 159.15 62.7 156.55 72.15 154.6 79.2 153.05 81.85 151.55 84.3 151.7 95.5 151.9 109.6 156.2 121.4 159.85 131.5 159.3 149 158.9 161.35 156.9 171.5 154.9 181.85 156.65 209.5 157.65 225.85 159.2 239.05 157.9 240.7 155.4 242.85 153.8 244.2 153.3 244.95 152.45 246.25 152.55 248.05 152.65 249.85 153.8 251.1 155.4 252.85 158.9 253.1 159.25 261.9 159.1 271.5 158.8 287.85 156.9 297.8 155.65 304.6 155.85 310.6 156 314.2 157.05 320.7 157.85 325.55 158.1 328.35 158.5 332.95 158.25 337.6 157.9 342.95 156.65 350.1 155.9 354.25 154.1 362.45 152.4 370.3 151.75 373.9 150.75 379.8 150.9 383.35 150.95 384.85 152.35 393.5 155.4 411.8 156.65 423.8 158.85 444.55 157.55 457.55 156.95 463.75 156.95 472.25 156.95 476.85 157.2 486.35 157.5 497.3 157.25 500.25 156.3 511.7 156.45 529.55 156.55 541.4 157.4 548.8
L 158.4 548.8
Q 157.6 541.4 157.45 529.35 157.3 511.6 158.2 500.35 158.45 497.5 158.05 481.85 157.65 466.5 158.55 457.65 160.2 441.3 156.3 412.65 152 386.2 151.9 383.35 151.75 378.15 155.05 362.75 158.7 345.8 159.2 337.65 159.6 331 157.65 318.35 156.05 307.75 157.9 298
L 160.05 272.95
Q 160.1 270.75 160.1 268.45
L 160.1 266.2 159.85 252.15
Q 153.85 252.05 153.55 248 153.45 245.85 155.35 244.2 158.85 241.15 160.2 239.35 158.8 226.7 157.8 211.9 155.8 182.35 157.9 171.7 159.9 161.5 160.3 149.1 160.9 131.4 157.15 121.05 152.95 109.5 152.75 95.55 152.55 84.55 153.9 82.35 155.5 79.7 157.55 72.35 160.2 62.7 158.9 57.35 156.85 48.75 160.9 24.35 161.2 22.4 160 19.9 159.75 19.45 157.4 15.55 154.1 10.2 156.9 7.05 159.1 4.55 160.1 0
M 171.7 0
L 170.7 0 170.7 548.8 171.7 548.8 171.7 0 Z"/>
</g>

<g id="gameFrame_0_Layer2_0_MEMBER_1_FILL">
<path fill="#68311A" stroke="none" d="
M 170.7 546.45
Q 169.95 546.15 169.2 545.8 162.2 542.7 157.75 539.6
L 157.9 542
Q 162.35 544.65 169.2 547.55 169.95 547.85 170.7 548.15
L 170.7 546.45
M 169.2 502.95
Q 169.95 502.75 170.75 502.6
L 170.75 501.05
Q 169.95 501.2 169.2 501.4 162.55 502.85 157.95 504.6
L 157.85 506.45
Q 162.15 504.45 169.2 502.95
M 169.2 451.05
Q 169.95 450.6 170.7 450.1
L 170.7 448.05
Q 169.95 448.6 169.2 449.1 164.45 452.35 158.85 454.75
L 158.65 456.5
Q 164 454.25 169.2 451.05
M 169.2 463.5
Q 169.95 463.05 170.7 462.55
L 170.75 460.5
Q 170 461.05 169.2 461.55 163.75 465.1 158 467.55
L 157.95 469
Q 163.75 466.8 169.2 463.5
M 169.2 406.05
Q 169.95 405.55 170.7 405.1
L 170.7 403.05
Q 170 403.55 169.2 404.1 164.05 407.55 156.15 411.65
L 156.35 413.05
Q 163.9 409.35 169.2 406.05
M 170.75 385.45
Q 170.1 386.8 169.2 388.15 167.3 391.05 164.35 394.1 160.85 397.75 154.8 402.65
L 155.1 404.25
Q 164.2 397.35 169.2 390.6 170.05 389.45 170.75 388.3
L 170.75 385.45
M 158.1 347.35
L 157.85 348.9
Q 164.25 350.65 169.2 353.15 169.95 353.5 170.7 353.9
L 170.7 351.7
Q 169.95 351.35 169.2 351.05 164.2 348.9 158.1 347.35
M 156.65 355.15
L 156.4 356.5
Q 165.2 359.55 169.2 364.65 170.15 365.8 170.8 367.1
L 170.7 364.05
Q 170 363.15 169.2 362.3 164.85 357.8 156.65 355.15
M 160.15 263.85
L 160.15 266
Q 164.55 269.95 169.2 273.7 169.95 274.35 170.75 274.95
L 170.75 272.95
Q 169.95 272.3 169.2 271.7 164.05 267.5 160.15 263.85
M 159.45 240.3
L 158.3 241.55
Q 163.95 248.65 169.2 254.1 169.95 254.85 170.7 255.6
L 170.75 253.35
Q 169.95 252.55 169.2 251.7 164.15 246.3 159.45 240.3
M 169.2 86.6
Q 169.95 85.6 170.75 84.55
L 170.75 81.65
Q 170 82.85 169.2 84 162.9 93.2 153.1 101.4
L 153.2 103.5
Q 161.15 97 169.2 86.6
M 163.45 52.75
Q 165.8 56.25 166.05 59.4 166.4 64.25 163.35 70.8 160.5 76.95 155.3 83.35
L 155.3 85.15
Q 167.2 72.2 167.2 61.25 167.2 59 166.8 57.25 165.3 50.35 158.35 45.05
L 158.3 47
Q 161.45 49.8 163.45 52.75
M 170.7 19.4
Q 169.95 18.45 169.2 17.5 164.1 11.15 157.85 5.75
L 156.9 7
Q 164.3 13.45 169.2 20.3 170 21.45 170.75 22.6
L 170.7 19.4 Z"/>
</g>

<g id="gameFrame_0_Layer2_0_MEMBER_2_FILL">
<path fill="#AD764E" stroke="none" d="
M 168.85 546.2
L 170.7 546.45 169.25 545.25 167.55 544.5
Q 165.35 543.5 164.3 542.9 162.35 541.95 161.1 541.15
L 159.55 540.2 157.75 539.6
Q 158.55 540.6 159 541.05
L 160.6 542
Q 162.05 542.9 163.85 543.8
L 168.85 546.2
M 169.2 501.9
L 170.75 501.05 169 500.9 159.3 503.55 157.95 504.6
Q 158.55 504.6 159.65 504.5
L 161.2 503.95
Q 164.15 503.1 164.4 503.05
L 169.2 501.9
M 169.6 449.45
Q 170.4 448.55 170.7 448.05
L 169.05 448.6 164.7 451.3
Q 164.05 451.65 161.7 452.85
L 160.15 453.55 158.8 454.7 160.55 454.45 165.2 452.15
Q 166.85 451.25 168.15 450.35
L 169.6 449.45
M 169.5 461.95
L 170.75 460.5 168.95 461.1 164.3 463.95
Q 161.5 465.45 161.1 465.6
L 159.45 466.35 158 467.55
Q 158.95 467.5 159.85 467.25
L 161.55 466.5 169.5 461.95
M 169.2 404.7
L 170.7 403.05 168.7 403.85 157.8 410.2 156.15 411.65 158.25 411.1 169.2 404.7
M 169.65 388.25
Q 170.25 387.1 170.75 385.45
L 168.8 387.7
Q 168.4 388.4 167.15 390.05 165.35 392.35 163.3 394.5 161.6 396.25 159.05 398.55
L 156.8 400.45 154.85 402.7
Q 155.2 402.55 157.45 401.2
L 159.7 399.25
Q 161.8 397.45 164 395.15 166.3 392.75 167.9 390.7
L 169.65 388.25
M 158.1 347.35
L 159.6 348.25 169 351.5 170.7 351.7
Q 170.2 351.2 169.35 350.6
L 164.65 348.8
Q 164.15 348.6 161.45 347.75
L 159.85 347.3 158.1 347.35
M 158.5 356.3
L 160.45 357.1
Q 162.6 358.05 164.15 358.95 165.85 359.95 167.5 361.35 168.7 362.4 169 362.8
L 170.7 364.05
Q 170.3 363 169.7 362.1
L 168.15 360.6
Q 166.65 359.3 164.65 358.1 163.1 357.2 160.8 356.15
L 158.85 355.4 156.65 355.15 158.5 356.3
M 160.15 263.85
L 161.15 265.4 169.1 272.2
Q 169.15 272.25 169.2 272.25 169.9 272.65 170.75 272.95
L 169.7 271.45 161.8 264.65 160.15 263.85
M 159.45 240.3
L 160.4 242.3 168.9 252.1 170.75 253.35 169.65 251.45 161.2 241.7 159.45 240.3
M 163.05 92.55
Q 165.55 89.8 167.35 87.4
L 169.3 84.7 170.75 81.65 166.55 86.8
Q 164.55 89.45 162.35 91.9 159.85 94.6 157.75 96.6
L 153.1 101.4 155.95 99.6 158.4 97.35
Q 160.8 95.05 163.05 92.55
M 166.6 58.95
Q 166.7 59.25 167.2 61.25 167.55 60.15 167.55 58.8 167.4 57.6 167.1 56.4 166.5 54 165.2 51.85 163.95 49.7 162.3 47.95
L 160.55 46.2 158.35 45.05 159.9 46.95
Q 161.05 48 161.55 48.6 163.25 50.4 164.35 52.35 165.55 54.35 166.15 56.65 166.45 57.8 166.6 58.95
M 168.9 17.85
L 170.7 19.4
Q 170.3 18.35 169.65 17.25
L 168.15 15.4
Q 166.8 13.8 165 11.9
L 159.95 6.95 157.85 5.75 159.25 7.7 161 9.3 168.9 17.85 Z"/>
</g>

<g id="gameFrame_0_Layer2_0_MEMBER_3_FILL">
<path fill="#AD754E" stroke="none" d="
M 155.05 362.75
Q 151.75 378.15 151.9 383.35 151.95 384.25 154.05 397.65 153.8 393.75 153.75 389.05 153.65 379.65 154.8 375.7 156.7 369.1 158.25 357.25 160 343.8 159.2 337.65 158.7 345.8 155.05 362.75
M 160.2 239.35
Q 158.85 241.15 155.35 244.2 153.45 245.85 153.55 248 153.8 247.45 154.5 246.65 155.95 245.05 158.25 244 159.4 243.5 159.95 242.2 160.45 241 160.3 239.65
L 160.2 239.35
M 153.9 82.35
Q 152.55 84.55 152.75 95.55 152.95 109.5 157.15 121.05 154.35 102.85 154.85 91.15
L 155.9 83.1
Q 161.1 71.15 160.55 63.05 160.35 60.55 159.6 58.7
L 158.9 57.35
Q 160.2 62.7 157.55 72.35 155.5 79.7 153.9 82.35
M 156.9 7.05
Q 154.6 9.6 156.1 13.1 156.75 12.15 158.15 10.8 160.05 8.9 161.4 3 161.75 1.45 161.95 0
L 160.1 0
Q 159.1 4.55 156.9 7.05 Z"/>

<path fill="#AC764E" stroke="none" d="
M 169.55 0
Q 170.15 0.2 170.7 0.35 170.65 0.2 170.65 0
L 169.55 0 Z"/>
</g>
</defs>

<g transform="matrix( 1, 0, 0, 1, 479.2,0) ">
<g transform="matrix( 1, 0, 0, 1, -150.9,0) ">
<use xlink:href="#gameFrame_0_Layer2_0_MEMBER_0_FILL"/>
</g>

<g transform="matrix( 1, 0, 0, 1, -150.9,0) ">
<use xlink:href="#gameFrame_0_Layer2_0_MEMBER_1_FILL"/>
</g>

<g transform="matrix( 1, 0, 0, 1, -150.9,0) ">
<use xlink:href="#gameFrame_0_Layer2_0_MEMBER_2_FILL"/>
</g>

<g transform="matrix( 1, 0, 0, 1, -150.9,0) ">
<use xlink:href="#gameFrame_0_Layer2_0_MEMBER_3_FILL"/>
</g>
</g>
</svg>
