
<svg xmlns="http://www.w3.org/2000/svg" version="1.1" xmlns:xlink="http://www.w3.org/1999/xlink" preserveAspectRatio="none" x="0px" y="0px" width="899px" height="549px" viewBox="0 0 899 549">
<defs>
<linearGradient id="Gradient_1" gradientUnits="userSpaceOnUse" x1="5.45" y1="958.8" x2="5.45" y2="388.79999999999995" spreadMethod="pad">
<stop  offset="0%" stop-color="#945229"/>

<stop  offset="100%" stop-color="#A26430"/>
</linearGradient>

<linearGradient id="Gradient_2" gradientUnits="userSpaceOnUse" x1="4.850000000000023" y1="389.45" x2="922.85" y2="389.45" spreadMethod="pad">
<stop  offset="0%" stop-color="#945229"/>

<stop  offset="100%" stop-color="#A26430"/>
</linearGradient>

<g id="gameFrame_0_Layer0_0_MEMBER_0_FILL">
<path fill="url(#Gradient_1)" stroke="none" d="
M 14.85 399.9
Q 14.65 399.9 14.35 399.75
L 14.35 400 14.85 400 14.85 399.9
M 14.8 398.85
L 14.85 398.9 14.85 398.85 14.8 398.85 Z"/>

<path fill="#68321B" stroke="none" d="
M 14.8 398.85
L 14.85 398.85 14.35 398.35 14.35 398.4 14.8 398.85 Z"/>

<path fill="#6C4434" stroke="none" d="
M 913.3 398.45
L 912.85 398.9 15.85 398.9 15.85 398.85 14.85 398.85 14.85 398.9 14.8 398.85 14.35 398.4 14.35 399.75
Q 14.65 399.9 14.85 399.9
L 14.85 400 15.85 400 15.85 399.9 912.85 399.9
Q 913.05 399.9 913.3 399.8
L 913.3 398.45
M 680.3 384.35
Q 671.75 387.5 650.15 387.5 638.6 387.5 626.1 386.6 615.6 385.9 611.15 385.1 596.95 382.5 570.3 382.5 544.95 382.5 510.25 384.75 491.8 385.95 476.6 387.35 474.95 386.05 472.8 383.55 471.5 382.05 470.8 381.55 469.6 380.75 468 380.75
L 467.6 380.75
Q 463 381 462.55 387.05 456.8 387.3 446.05 387.3 420.75 387.3 408.85 385.1 404.95 384.35 398.45 384.35 390.05 384.35 370.45 385.85 357.5 386.8 350.2 387.2 338.45 387.85 329.3 387.85 315.2 387.85 305.2 386.4 291.7 384.5 265.05 381.9 236.15 379.05 227.4 379.05
L 226.35 379.05
Q 225.1 379.1 215.6 380.45 198.15 382.9 187.6 384.1 168.2 386.2 155.2 386.2 148.95 386.2 144.15 385.75 137.95 385.1 122.2 385.1 116.7 385.1 95.8 385.35 82.3 385.55 78.1 385.55 73.25 385.55 71.45 385.4 62.55 384.6 42.55 384.6 24.2 384.6 14.35 385.75
L 14.35 386.8 37.35 385.65
Q 39.85 385.6 42.55 385.6 43.6 385.6 44.6 385.65
L 57.05 385.8
Q 58.75 385.85 60.5 385.9 64.3 386.05 67.05 386.15
L 72.5 386.45
Q 74.5 386.55 78.1 386.55 82.6 386.55 98.2 386.35 103.1 386.25 107.3 386.2
L 122.2 386.1
Q 138 386.15 144.05 386.75
L 152.25 387.2
Q 153.7 387.2 155.2 387.2 156 387.2 156.85 387.2
L 192 384.6
Q 193.1 384.45 194.2 384.35
L 197.95 383.9
Q 198.6 383.8 199.25 383.7 200.1 383.6 201 383.5
L 226.35 380.05 227.4 380.05
Q 227.8 380.05 228.3 380.05
L 237.05 380.5
Q 243.95 380.95 254.5 381.9
L 262.3 382.65
Q 263.6 382.75 264.95 382.9 265.55 382.95 266.1 383
L 273.85 383.8
Q 294 385.85 305.05 387.4 306.6 387.6 308.25 387.8
L 323.6 388.75
Q 326.35 388.85 329.3 388.85 331.05 388.85 332.95 388.8
L 352.7 388.05
Q 357.9 387.75 363.5 387.35 365.3 387.2 366.95 387.1 372.3 386.7 376.45 386.45
L 388.15 385.7
Q 391.8 385.5 394.5 385.4
L 408.65 386.05
Q 413.05 386.9 419.4 387.45
L 442.7 388.3
Q 444.35 388.3 446.05 388.3
L 463.5 388.05
Q 463.65 381.95 467.65 381.75 467.85 381.75 468 381.75 469 381.8 469.85 382.25 470.5 382.6 471.15 383.2
L 471.2 383.3
Q 471.3 383.35 471.35 383.45 471.4 383.5 471.45 383.55
L 471.5 383.6
Q 471.519140625 383.619140625 471.55 383.65 471.5884765625 383.7076171875 471.65 383.8 471.7 383.85 471.8 383.9
L 472 384.15
Q 474.7 387.15 476.35 388.4
L 507.4 385.95
Q 507.55 385.95 507.75 385.95
L 528.85 384.7
Q 529.2 384.7 529.55 384.65 529.95 384.65 530.35 384.6
L 570.3 383.5
Q 596.85 383.5 611 386.05 611.9 386.2 612.95 386.4
L 622.1 387.4
Q 624.05 387.5 626.2 387.65 638.6 388.5 650.15 388.5 650.95 388.5 651.7 388.55
L 679.95 385.55
Q 680 385.55 680.1 385.5 680.15 385.45 680.25 385.45 680.3 385.45 680.4 385.4 680.5 385.35 680.65 385.3 691.45 381.4 710.95 380.95
L 722.3 381
Q 725.55 381.15 728.5 381.35 733.6 381.7 734.3 382.05
L 734.35 382.05
Q 734.4 382.1 734.45 382.1
L 748.1 384.6
Q 749.8 384.8 751.75 385.05 769.15 387.45 778.15 387.45 778.8 387.45 779.4 387.45
L 782.3 387.25
Q 782.85 387.15 783.35 387.05
L 789.7 386.45
Q 791.1 386.4 792.7 386.4 793.05 386.4 793.4 386.4
L 805.4 386.85
Q 806.25 386.9 807.2 386.95
L 813.25 387.4
Q 813.65 387.4 814.05 387.45 816.75 387.7 819.1 387.85
L 829.35 389.05
Q 829.5 389.1 829.7 389.1
L 830.2 389.15
Q 830.8 389.15 831.6 388.95 832.85 388.6 834.5 387.75 835.55 387.2 836.8 386.4 839 385 840.65 384.3 842.2 383.65 843.2 383.65 844.65 383.65 845.95 384.5
L 846.3 384.75
Q 846.45 384.9 846.65 385.05
L 868.45 388.25
Q 869.05 388.25 869.7 388.3 884.15 389 905.75 389 907 389 908.2 389.05
L 913.3 389 913.3 388
Q 909.75 388 905.75 388 880.2 388 864.8 387.05 849.3 386.05 847.3 384.3 845.45 382.65 843.2 382.65 841.65 382.65 839.7 383.55 838.55 384.1 836.35 385.5 834.3 386.8 833.25 387.3 831.5 388.15 830.2 388.15
L 829.5 388.05
Q 824.8 387.3 814.05 386.45 801.15 385.4 792.7 385.4 785.85 385.4 783.1 386.1 781.65 386.45 778.15 386.45 769.35 386.45 752.15 384.15 736.6 382 734.8 381.2 734 380.7 728.15 380.3 722.35 379.9 715.6 379.9 692.65 379.9 680.3 384.35 Z"/>

<path fill="url(#Gradient_2)" stroke="none" d="
M 680.65 385.3
Q 680.5 385.35 680.4 385.4 680.3 385.45 680.25 385.45 680.15 385.45 680.1 385.5 680 385.55 679.95 385.55
L 651.7 388.55
Q 647.65 388.55 643.15 388.45 630.75 388.1 622.1 387.4
L 612.95 386.4
Q 611.9 386.2 611 386.05 596.85 383.5 570.3 383.5
L 530.35 384.6
Q 529.95 384.65 529.55 384.65 529.2 384.7 528.85 384.7
L 507.75 385.95
Q 507.55 385.95 507.4 385.95
L 476.35 388.4
Q 474.7 387.15 472 384.15
L 471.8 383.9
Q 471.7 383.85 471.65 383.8 471.5884765625 383.7076171875 471.55 383.65 471.519140625 383.619140625 471.5 383.6
L 471.45 383.55
Q 471.4 383.5 471.35 383.45 471.3 383.35 471.2 383.3
L 471.15 383.2
Q 470.5 382.6 469.85 382.25 469 381.8 468 381.75 467.85 381.75 467.65 381.75 463.65 381.95 463.5 388.05
L 446.05 388.3
Q 444.35 388.3 442.7 388.3
L 419.4 387.45
Q 413.05 386.9 408.65 386.05
L 394.5 385.4
Q 391.8 385.5 388.15 385.7
L 376.45 386.45
Q 372.3 386.7 366.95 387.1 365.3 387.2 363.5 387.35 357.9 387.75 352.7 388.05
L 332.95 388.8
Q 331.05 388.85 329.3 388.85 326.35 388.85 323.6 388.75
L 308.25 387.8
Q 306.6 387.6 305.05 387.4 294 385.85 273.85 383.8
L 266.1 383
Q 265.55 382.95 264.95 382.9 263.6 382.75 262.3 382.65
L 254.5 381.9
Q 243.95 380.95 237.05 380.5
L 228.3 380.05
Q 227.8 380.05 227.4 380.05
L 226.35 380.05 201 383.5
Q 199.45 383.7 197.95 383.9
L 194.2 384.35
Q 193.1 384.45 192 384.6
L 156.85 387.2
Q 154.45 387.25 152.25 387.2
L 144.05 386.75
Q 138 386.15 122.2 386.1
L 107.3 386.2
Q 103.1 386.25 98.2 386.35 82.6 386.55 78.1 386.55 74.5 386.55 72.5 386.45
L 67.05 386.15
Q 64.3 386.05 60.5 385.9 58.75 385.85 57.05 385.8
L 44.6 385.65
Q 41.6 385.6 38.35 385.65 37.85 385.65 37.35 385.65
L 14.35 386.8 14.35 398.35 14.85 398.85 15.85 398.85 912.85 398.85 913.3 398.45 913.3 389 908.2 389.05
Q 897.7 389.05 886.9 388.85 876.3 388.65 868.45 388.25
L 846.65 385.05
Q 846.45 384.9 846.3 384.75
L 845.95 384.5
Q 843.75 383.15 840.65 384.3 839 385 836.8 386.4 835.55 387.2 834.5 387.75 833.95 388.05 833.8 388.15 832.6 388.7 831.6 388.95 830.8 389.15 830.2 389.15
L 829.7 389.1
Q 829.5 389.1 829.35 389.05
L 819.1 387.85
Q 816.75 387.7 814.05 387.45 813.65 387.4 813.25 387.4
L 807.2 386.95
Q 806.25 386.9 805.4 386.85
L 793.4 386.4
Q 793.05 386.4 792.7 386.4 791.1 386.4 789.7 386.45
L 783.35 387.05
Q 782.85 387.15 782.3 387.25
L 779.4 387.45
Q 772.2 387.65 756.35 385.7 751.7 385.1 748.1 384.6
L 734.45 382.1
Q 734.4 382.1 734.35 382.05
L 734.3 382.05
Q 733.6 381.7 728.5 381.35 725.55 381.15 722.3 381
L 710.95 380.95
Q 691.45 381.4 680.65 385.3 Z"/>
</g>

<g id="gameFrame_0_Layer0_0_MEMBER_1_FILL">
<path fill="#68311A" stroke="none" d="
M 295.35 386.3
L 293.8 386
Q 291.8 393.35 288.8 398.85
L 291 398.85
Q 293.6 393.15 295.35 386.3
M 287.55 384.85
L 286.2 384.55
Q 282.5 395.3 275.6 398.85
L 278.65 398.85
Q 284.45 394.55 287.55 384.85
M 207.05 383
L 205.45 383.25
Q 213.55 393.95 221.4 398.85
L 224.25 398.85
Q 220.1 396.85 215.6 392.5 212 389.05 207.05 383
M 198.05 384.3
L 196.65 384.5
Q 200.9 393.15 204.6 398.85
L 206.65 398.85
Q 202.6 393.2 198.05 384.3
M 134.15 386.15
L 132.7 386.1
Q 135.2 392.7 139.15 398.85
L 141.2 398.85
Q 137 392.85 134.15 386.15
M 146.95 387
L 145.2 386.85
Q 147.8 392.9 151.6 398.9
L 153.65 398.85
Q 149.7 393.35 146.95 387
M 67.1 386.1
L 65.25 386.05
Q 67.45 390.7 69.1 398.85
L 70.65 398.85
Q 69.1 391.3 67.1 386.1
M 24.1 385.9
L 21.7 386.05
Q 18.75 391 15.55 398.85
L 17.25 398.85
Q 20.6 390.95 24.1 385.9
M 475.35 387.65
L 474.1 386.5
Q 466.15 392.75 460.05 398.85
L 462.3 398.85
Q 468.3 393.1 475.35 387.65
M 451.8 388.3
L 449.65 388.3
Q 444.7 393.85 440.7 398.85
L 442.7 398.85
Q 447.35 393.15 451.8 388.3
M 847.95 386
L 846.7 385.1
Q 839.1 393.8 831.1 398.85
L 834.3 398.85
Q 841.75 393.2 847.95 386
M 757.95 391.55
Q 738.85 387.95 733.35 383.45
L 731.55 383.45
Q 737.15 388.6 755.95 392.35 771.05 395.4 779.45 395.4 781.5 395.4 783.45 394.95 790.35 393.45 795.65 386.55
L 793.7 386.45
Q 790.9 389.6 787.95 391.6 784.45 393.95 781.3 394.2 774.7 394.7 757.95 391.55
M 715.3 381.3
L 713.2 381.4
Q 720.4 390.15 732.15 398.85
L 735.05 398.85
Q 724.65 392.4 715.3 381.3 Z"/>
</g>

<g id="gameFrame_0_Layer0_0_MEMBER_2_FILL">
<path fill="#AD764E" stroke="none" d="
M 295.4 388
L 295.35 386.3 294.45 387.75 291.85 395.6 291.2 397.15 291 398.85
Q 291.4 398.45 292.1 397.55
L 295.4 388
M 285.6 388.6
Q 284.65 390.75 283.75 392.3 282.6 394.25 281.35 395.65 280.6 396.6 279.9 397.15
L 278.65 398.85
Q 279.6 398.5 280.6 397.9
L 282.1 396.3
Q 283.4 394.8 284.6 392.8 285.35 391.6 286.55 389
L 287.3 387 287.55 384.85 286.4 386.65 285.6 388.6
M 207 383
Q 207.15 383.35 208.5 385.6
L 210.4 387.85
Q 212.8 390.55 214.55 392.15 216.55 394.15 219 396.05
L 221.45 397.8
Q 222.75 398.45 224.25 398.85
L 222 396.95
Q 220.7 396.15 219.65 395.3 217.35 393.5 215.2 391.45 213.45 389.75 211.15 387.2
L 209.25 385 207 383
M 198.6 386.4
L 201.65 392
Q 202.4 393.2 203.9 395.65
L 205.05 397.4 206.65 398.85 205.85 396.85 200.45 387.85 199.5 385.95 198.05 384.3 198.6 386.4
M 150.4 392.85
Q 149.7 391.65 148.85 389.85
L 148.15 388.35 147 386.95 147.25 388.75 149.55 393.35
Q 150.45 395 151.35 396.3
L 152.25 397.75
Q 153.15 398.55 153.65 398.85
L 153.1 397.2 150.4 392.85
M 134.15 386.15
Q 134.2 387.05 134.45 388.05
L 138.75 396.1 139.75 397.65
Q 140.7 398.5 141.2 398.85 140.8 397.7 140.6 397.1
L 137.75 392.45
Q 136.25 389.65 136.1 389.25
L 135.35 387.65 134.15 386.15
M 67.75 389.4
Q 68.5 391.95 68.65 392.55
L 69.8 397.35 70.65 398.85
Q 70.75 397.7 70.8 397.15
L 68.15 387.5 67.1 386.1 67.2 387.8 67.75 389.4
M 19.2 395.75
Q 20 393.95 20.8 392.45 21.75 390.5 22.55 389.25
L 23.5 387.7 24.1 385.9 22.65 387.2 21.7 388.75
Q 20.8 390.2 19.9 392
L 17.5 397 17.25 398.85 18.45 397.4 19.2 395.75
M 475.35 387.65
Q 475 387.8 473.35 388.6
L 463.55 397.05 462.3 398.85
Q 463.1 398.5 464.2 397.75
L 474 389.35 475.35 387.65
M 451.8 388.3
L 450.25 389.3 443.45 397.25
Q 443 397.95 442.7 398.85
L 444.2 397.85 451 389.95 451.8 388.3
M 841.8 393.15
Q 842.4 392.65 845.15 389.85
L 846.75 388.1 847.95 386
Q 847.55 386.25 846 387.45
L 844.4 389.15
Q 843.35 390.3 841.1 392.45
L 835.85 397.05 834.3 398.85
Q 835.35 398.45 836.45 397.8
L 841.8 393.15
M 784.3 395.25
Q 786.65 394.65 788.85 393.4 791.25 391.95 792.75 390.45
L 794.5 388.7 795.65 386.55
Q 794.4 387.6 793.75 388.05
L 792.1 389.75
Q 790.3 391.4 788.35 392.55 786.25 393.7 784.05 394.3
L 779.45 395.4
Q 780.55 395.65 781.9 395.75 783.25 395.6 784.3 395.25
M 719.35 386.55
Q 721.7 389.05 724.15 391.2 726.9 393.7 729.3 395.5
L 732 397.45
Q 734 398.45 735.05 398.85
L 729.9 394.7
Q 727.3 392.7 724.8 390.5 721.6 387.5 720.1 385.9
L 717.85 383.45 715.3 381.3
Q 715.75 382.05 717.1 384.1
L 719.35 386.55 Z"/>
</g>

<g id="gameFrame_0_Layer0_0_MEMBER_3_FILL">
<path fill="#AC764E" stroke="none" d="
M 14.35 400
L 14.8 400
Q 14.65 399.55 14.35 398.9
L 14.35 400
M 911.35 398.85
Q 911.9 398.75 913.15 398.2
L 913.3 398.05 913.3 395.7 911.95 397.05
Q 911.55 398.05 911.35 398.85 Z"/>

<path fill="#AD754E" stroke="none" d="
M 363.5 389.85
Q 386.1 387.95 390 387.75 402.9 386.95 408.65 388.05 419.7 390.15 442.7 390.8 454.2 391.15 463.5 391.05
L 463.5 388.05
Q 454.2 388.4 442.7 388.3 419.7 388.15 408.65 386.05 402.9 384.95 390 385.55 385.95 385.75 363.5 387.35 324.45 390.15 305.05 387.4 291.3 385.45 263.5 382.75 233.55 379.85 226.35 380.05 209.6 382.5 193.1 384.45 160.45 388.4 144.05 386.75 135.1 385.85 104.85 386.2 73.95 386.6 71.35 386.4 59.9 385.45 38.35 385.65 22.95 385.75 14.35 386.75
L 14.35 387.65
Q 23.15 386.9 39 387.1 58.9 387.4 71.35 388.4 73.85 388.6 104.85 388.7 135.1 388.85 144.05 389.75 160.4 391.4 193.1 386.95 209.6 384.75 226.35 382.05 233.25 381.85 263.5 385.25 288.75 388.1 305.05 390.4 324.45 393.15 363.5 389.85
M 846.65 385.05
Q 844.05 382.8 840.6 384.25
L 841.25 384.75
Q 842.05 385.45 842.9 386.35 844.35 387.8 879.7 389.6 902.15 390.75 913.3 390.25
L 913.3 389.05
Q 900.3 389.1 886.9 388.85 850.2 388.2 846.65 385.05
M 476.35 388.4
L 479.5 389.45 531.15 386.2
Q 587.45 383.75 611 388.05 615.4 388.9 627.35 389.3 640.6 389.7 652.9 389.15 641.05 389.1 627.35 387.95 615.95 387 611 386.05 587.45 381.75 529.55 384.65 511.35 385.55 492.1 387.05
L 476.35 388.4
M 476 388.45
L 476.35 388.4
Q 474.55 387.05 471.45 383.55 469.8 381.65 467.65 381.75
L 469 382.7
Q 470.6 384.1 471.65 386.45 472.15 387.55 473.45 388.1 474.65 388.6 476 388.45
M 652.9 389.15
Q 672.4 389.35 680.65 386.3 688.55 383.45 707.15 383.05 723.1 382.7 733.6 384.05 742.5 384.9 752.6 386.55 762.05 388.05 768.5 388.6 773.9 389.05 778.35 388.65 780.9 388.4 786.35 387.75 798.4 386.85 825.15 390.45 829.4 391 833 388.7 829.45 389 826.65 388.7 803.45 385.8 786.5 386.75 781.5 387 779.55 387.4 779.45 387.45 779.35 387.45 771.8 387.65 754.7 385.35 736.7 382.95 734.35 382.05 733.5 381.55 725.15 381.35 725.05 381.35 724.95 381.35 696.1 379.7 680.65 385.3 672.25 388.35 652.9 389.15 Z"/>
</g>
</defs>

<g transform="matrix( 1, 0, 0, 1, 0,528.05) ">
<g transform="matrix( 1, 0, 0, 1, -14.35,-379.05) ">
<use xlink:href="#gameFrame_0_Layer0_0_MEMBER_0_FILL"/>
</g>

<g transform="matrix( 1, 0, 0, 1, -15.55,-381.3) ">
<use xlink:href="#gameFrame_0_Layer0_0_MEMBER_1_FILL"/>
</g>

<g transform="matrix( 1, 0, 0, 1, -17.25,-381.3) ">
<use xlink:href="#gameFrame_0_Layer0_0_MEMBER_2_FILL"/>
</g>

<g transform="matrix( 1, 0, 0, 1, -14.35,-380.05) ">
<use xlink:href="#gameFrame_0_Layer0_0_MEMBER_3_FILL"/>
</g>
</g>
</svg>
