
<svg xmlns="http://www.w3.org/2000/svg" version="1.1" xmlns:xlink="http://www.w3.org/1999/xlink" preserveAspectRatio="none" x="0px" y="0px" width="500px" height="549px" viewBox="0 0 500 549">
<defs>
<linearGradient id="Gradient_1" gradientUnits="userSpaceOnUse" x1="36.8" y1="558.8" x2="36.8" y2="-11.199999999999989" spreadMethod="pad">
<stop  offset="0%" stop-color="#945229"/>

<stop  offset="100%" stop-color="#A26430"/>
</linearGradient>

<linearGradient id="Gradient_2" gradientUnits="userSpaceOnUse" x1="1.0125000000000028" y1="519.4" x2="72.6875" y2="519.4" spreadMethod="pad">
<stop  offset="0%" stop-color="#A26430"/>

<stop  offset="100%" stop-color="#925129"/>
</linearGradient>

<linearGradient id="Gradient_3" gradientUnits="userSpaceOnUse" x1="34.05" y1="550.1750000000001" x2="34.05" y2="494.725" spreadMethod="pad">
<stop  offset="0%" stop-color="#925129" stop-opacity="0.2"/>

<stop  offset="74.90196078431373%" stop-color="#925129" stop-opacity="0.6980392156862745"/>
</linearGradient>

<linearGradient id="Gradient_4" gradientUnits="userSpaceOnUse" x1="19.6" y1="489.88750000000005" x2="19.6" y2="-11.187500000000028" spreadMethod="pad">
<stop  offset="0%" stop-color="#945229"/>

<stop  offset="100%" stop-color="#A26430"/>
</linearGradient>

<filter id="Filter_1" x="-20%" y="-20%" width="140%" height="140%" color-interpolation-filters="sRGB">
<feColorMatrix in="SourceGraphic" type="matrix" values="1 0 0 0 0 0 1 0 0 0 0 0 1 0 0 0 0 0 0.5 0" result="result1"/>
</filter>

<filter id="Filter_2" x="-20%" y="-20%" width="140%" height="140%" color-interpolation-filters="sRGB">
<feColorMatrix in="SourceGraphic" type="matrix" values="1 0 0 0 0 0 1 0 0 0 0 0 1 0 0 0 0 0 0.7 0" result="result1"/>
</filter>

<filter id="Filter_3" x="-20%" y="-20%" width="140%" height="140%" color-interpolation-filters="sRGB">
<feColorMatrix in="SourceGraphic" type="matrix" values="1 0 0 0 0 0 1 0 0 0 0 0 1 0 0 0 0 0 0.25 0" result="result1"/>
</filter>

<g id="gameFrame_0_Layer3_0_MEMBER_0_FILL">
<path fill="url(#Gradient_1)" stroke="none" d="
M 69.8 548.7
Q 69.75 548.75 69.7 548.8
L 69.75 548.8
Q 69.9115234375 548.5982421875 70.05 548.4 69.95 548.55 69.8 548.7
M 37.75 478.5
L 37.55 478.45
Q 38 478.7 38.05 478.85 38.05 478.7 37.75 478.5
M 31.35 480.55
Q 31.2 480.45 31.05 480.35
L 29.35 479.25
Q 29.1 479.2 28.9 479.2 30.05 479.85 31.35 480.55
M 31.95 479.45
L 32.4 479.5
Q 33.3 479.55 34.1 479.55 35.5 479.55 36.5 479.4
L 36.7 479.35
Q 35.95 479.45 34.85 479.5 33.55 479.55 31.95 479.45
M 31.45 475.4
Q 32.1 475.75 32.75 476.1
L 33.9 476.65
Q 34.15 476.75 34.4 476.9
L 34.6 476.95
Q 34.8 477.05 35.05 477.15
L 36.65 477.85
Q 35.6 477.3 33.85 476.5 32.35 475.85 31 475.15 31.25 475.3 31.45 475.4
M 12.55 441.5
L 12.1 437.7
Q 12.3 444.05 13.5 449.45 12.95 445.8 12.55 441.5
M 12.85 394.7
Q 12.55 394.4 12.35 394.2 13.55 395.55 15.7 397.45
L 12.85 394.7
M 12.55 215.3
Q 12.55 219.5 14.15 225.5
L 12.55 215.3
M 18.25 237
Q 18.298046875 237.1439453125 18.35 237.3
L 18.35 237.25 18.3 237.2
Q 18.2927734375 237.100390625 18.25 237
M 11.25 180.2
Q 11.35 180.75 11.45 181.3 11.4 180.95 11.35 180.6 11.3 180.35 11.25 180.2 Z"/>

<path fill="url(#Gradient_2)" stroke="none" d="
M 1.05 548.8
L 1.8 548.8 1.7 548.7 1.05 547 1.05 548.8
M 38.75 486.95
Q 29.1 483.5 23.55 479.95 21.2 483.1 13.85 490.05 7.15 496.3 7.05 496.8 6.15 500.75 1.05 509.25
L 1.05 546.9 2.85 547.55 4.1 548.8 19.35 548.8
Q 10.75 546.25 7.2 541.85 4.2 538.25 4 532.3 3.9 530.05 7.55 527.8 13.1 524.4 13.5 524 10.2 520.6 8.25 518.55 4.65 514.7 4.6 512.55 4.45 508.05 6.05 505.1 8.05 501.4 13.05 499.15 13.5 497.45 18.55 496.2 23.3 495 29.8 494.75 45.7 494.2 48.9 498.75 55.85 501.15 59.55 504.15 63.7 507.45 64.1 512.9 64.55 519.15 59.3 524.2 64.95 529.1 63.2 536.55 61.4 544.15 51.55 548.8
L 69.7 548.8
Q 69.75 548.75 69.8 548.7 69.95 548.55 70.05 548.4
L 70.15 548.35
Q 71.1 547.3 71.45 546.55 73.05 544.2 72.65 542.1
L 72.45 541.65
Q 72.257421875 541.03984375 71.9 540.45 70.05 538.65 69.05 535.85 68.75 535.05 68.5 534.2
L 67.9 530.7
Q 67.2 528.7 68.4 523
L 69.7 517.7
Q 69.4 507.55 64.8 501.3 61.05 496.1 53.5 492.55 50.8 491.25 38.75 486.95 Z"/>

<path fill="#AC764E" stroke="none" d="
M 1 546.85
L 1.05 547 1.7 548.7 1.8 548.8 4.1 548.8 2.85 547.55 1.05 546.9 1 546.85 Z"/>

<path fill="#7E4522" stroke="none" d="
M 71.9 540.45
Q 71.700390625 540.1220703125 71.45 539.8 69.9 537.9 69.05 535.85 70.05 538.65 71.9 540.45
M 18.65 480.2
Q 15.15 484.65 6.25 491.75
L 1 498.4 1.05 509.25
Q 6.15 500.75 7.05 496.8 7.15 496.3 13.85 490.05 21.2 483.1 23.55 479.95 29.1 483.5 38.75 486.95 50.8 491.25 53.5 492.55 61.05 496.1 64.8 501.3 69.4 507.55 69.7 517.7
L 68.4 523
Q 67.2 528.7 67.9 530.7 67.85 529.45 68.05 528.1 68.15 527.65 70.5 520.3 72.95 512.95 68.9 504.25 64.2 494.25 53.45 490.2 52.8 489.95 52.2 489.75
L 47.75 488
Q 37.95 484.1 31.35 480.55 30.05 479.85 28.9 479.2 25.45 478.75 21.1 477.85 20.65 477.4 20.15 476.2
L 20.4 477.15 20.4 477.2
Q 20.4 478 18.65 480.2
M 1.05 483.05
L 1 483.1 1.05 485.6 1.05 483.05 Z"/>

<path fill="url(#Gradient_3)" stroke="none" d="
M 59.55 504.15
Q 55.85 501.15 48.9 498.75 45.7 494.2 29.8 494.75 23.3 495 18.55 496.2 13.5 497.45 13.05 499.15 8.05 501.4 6.05 505.1 4.45 508.05 4.6 512.55 4.65 514.7 8.25 518.55 10.2 520.6 13.5 524 13.1 524.4 7.55 527.8 3.9 530.05 4 532.3 4.2 538.25 7.2 541.85 10.75 546.25 19.35 548.8
L 51.55 548.8
Q 61.4 544.15 63.2 536.55 64.95 529.1 59.3 524.2 64.55 519.15 64.1 512.9 63.7 507.45 59.55 504.15 Z"/>

<path fill="#68311A" stroke="none" d="
M 3.3 489.55
Q 1.45 489.9 1.05 489.85
L 1 498.4 6.25 491.75
Q 15.15 484.65 18.65 480.2 20.4 478 20.4 477.2
L 20 477.95
Q 18.75 479.4 14.2 482.95 8.35 487.55 5.65 489 5.2 489.2 3.3 489.55
M 19.85 475.45
Q 20 475.85 20.15 476.2 20.65 477.4 21.1 477.85 25.45 478.75 28.9 479.2 29.1 479.2 29.35 479.25 29.75 479.25 30.1 479.3 31.05 479.4 31.95 479.45 33.55 479.55 34.85 479.5 35.95 479.45 36.7 479.35 37.6 479.2 37.95 478.95
L 37.8 479
Q 37.45 479.1 37.1 479.2
L 31.65 478.7
Q 31.55 478.65 31.5 478.65 31.4 478.6 31.35 478.6 31.25 478.6 31.15 478.55 31.1 478.5 31.05 478.5 30.75 478.45 30.5 478.35 30.35 478.3 30.25 478.25 30.1 478.2 29.95 478.15 29.8 478.1 29.7 478.05 29.6 478.05 29.5 478 29.4 477.95 29.3 477.95 29.1 477.85 28.95 477.8 28.85 477.75 28.7 477.7
L 23.75 475.5
Q 23.15 475.2 22.8 474.9
L 22.5 474.7
Q 21.05 473.5 18 465.15 18.1 467.95 18.7 470.7 19.15 473.45 19.85 475.45 Z"/>

<path fill="#AD764E" stroke="none" d="
M 16.15 457.85
Q 16.1205078125 457.7912109375 16.1 457.75 16.7646484375 461.476171875 18.95 465.4 21.15 469.25 24.05 471.85 27 474.5 31 476.35 32.65 477.05 34.85 477.75
L 37.55 478.45 37.75 478.5
Q 37.4 478.2 36.65 477.85
L 35.05 477.15
Q 34.8 477.05 34.6 476.95
L 34.4 476.9
Q 34.15 476.75 33.9 476.65
L 32.75 476.1
Q 32.1 475.75 31.45 475.4 31.25 475.3 31 475.15 29.6 474.35 28.1 473.3
L 25.1 470.8
Q 22.55 468.25 20.1 464.65 18.15 461.85 16.2 457.9
L 16.15 457.85 Z"/>

<path fill="#6C4434" stroke="none" d="
M 1.05 0
L 0.05 0 0.05 482.85 0 483.1 0.05 548.8 1.05 548.8 1.05 547 1 546.85 1.05 546.9 1.05 509.25 1 498.4 1.05 489.85 1.05 485.6 1 483.1 1 483.05 1.05 483.05 1.05 0
M 11.45 19
Q 10.95 7.85 11.15 0
L 10.15 0
Q 9.65 18.85 13.3 55.7 14.2 64.55 13.8 79.9 13.4 95.5 13.65 98.35 14.45 108.4 14.4 124.9 14.3 147.05 11.95 154.75 12.95 158.7 14.95 161.05 17.75 164.2 14.45 169.55 10.55 175.95 10.95 178.35 11 178.75 11.1 179.1 11.15 179.45 11.2 179.85
L 11.25 180.2
Q 11.3 180.35 11.35 180.6 11.4 180.95 11.45 181.3 13.65 195.35 13.65 203.75
L 13.65 203.9
Q 13.65 208.5 12.95 211.35 12.85 211.75 12.8 212.2
L 12.55 215.3 14.15 225.5 14.25 225.9
Q 14.3 226.1 14.35 226.3 16.35 233.65 17.95 236.3 18.10859375 236.577734375 18.25 237 18.2927734375 237.100390625 18.3 237.2
L 18.35 237.25 18.35 237.3
Q 19.1 239.85 19.15 246.65 19.1 247.7 19.1 248.85
L 19.1 249.5
Q 18.9 263.45 14.7 275 10.95 285.35 11.55 303.05 11.95 315.45 13.95 325.65 16.05 336.3 14.05 365.85
L 14.05 365.9
Q 13.05 380.65 11.65 393.3 12.1 393.9 12.85 394.7
L 15.7 397.45 15.9 397.65
Q 15.9 397.7 16 397.75 16.05 397.8 16.1 397.85 16.15 397.9 16.3 398 16.4 398.1 16.5 398.2 18.4 399.85 18.3 402 18 406.05 12 406.15
L 11.75 417.95
Q 11.75 418.375 11.75 418.8
L 12.4 439.2
Q 12.5 440.75 12.65 442.25
L 12.55 441.5
Q 12.95 445.8 13.5 449.45 13.55 449.6 13.55 449.7
L 15.3 455.7
Q 15.65 456.65 16.05 457.55 16.1 457.65 16.15 457.85
L 16.2 457.9
Q 18.15 461.85 20.1 464.65 22.55 468.25 25.1 470.8
L 28.1 473.3
Q 29.6 474.35 31 475.15 32.35 475.85 33.85 476.5 35.6 477.3 36.65 477.85
L 37.9 478.35
Q 38.2 478.45 38.35 478.6
L 38.35 478.8 37.95 478.95
Q 37.6 479.2 36.7 479.35
L 36.5 479.4
Q 35.5 479.55 34.1 479.55 33.3 479.55 32.4 479.5 31.65 479.45 30.8 479.4
L 30.1 479.3
Q 29.75 479.25 29.35 479.25
L 31.05 480.35
Q 31.2 480.45 31.35 480.55 37.95 484.1 47.75 488
L 52.2 489.75
Q 52.8 489.95 53.45 490.2 64.2 494.25 68.9 504.25 72.95 512.95 70.5 520.3 68.15 527.65 68.05 528.1 67.85 529.45 67.9 530.7
L 68.5 534.2
Q 68.75 535.05 69.05 535.85 69.9 537.9 71.45 539.8 71.700390625 540.1220703125 71.9 540.45 72.257421875 541.03984375 72.45 541.65
L 72.65 542.1
Q 73.05 544.2 71.45 546.55 71.1 547.3 70.15 548.35
L 70.05 548.4
Q 69.9115234375 548.5982421875 69.75 548.8
L 71.05 548.8
Q 73 546.45 73.5 544.2 74.05 541.45 72.2 539.15 68.6 534.75 68.9 529.45 69.1 526.45 70.85 522.15
L 71.45 520.65
Q 72.65 517 72.2 512.55 71.8 508.05 69.8 503.8 64.95 493.5 53.85 489.25
L 49.95 487.8
Q 42.85 485.15 40.45 484.15 36.25 482.35 33.2 480.55
L 34.1 480.55
Q 37.2 480.55 38.45 479.8 39.2 479.35 39.2 478.6 39.15 477.9 38.4 477.45 37.9 477.1 35.95 476.3 32.6 474.95 30.5 473.75 26.95 471.75 24.75 469.25 21.35 465.5 19.15 461.6 16.05 456.15 14.55 449.5 12.1 433.95 12.95 407.1 16.45 406.85 18.05 405.1 19.2 403.85 19.3 402.05 19.4 400.25 18.55 398.95 18.05 398.2 16.45 396.85 13.95 394.7 12.65 393.05 14.2 379.9 15.25 363.45 17 335.8 14.95 325.45 12.95 315.3 12.55 302.95 12 285.45 15.65 275.35 19.95 263.55 20.15 249.45 20.3 238.25 18.8 235.8 17.25 233.15 15.35 226.1 12.75 216.65 13.95 211.55 16.05 202.65 11.95 178.2 11.7 176.7 12.55 174.85 13.05 173.65 14.55 171.35 16.75 167.9 17.15 166.05 17.9 162.9 15.7 160.4 14 158.4 13 154.8 15.35 146.75 15.4 124.5 15.45 108.35 14.65 98.3 14.35 94.95 14.7 84.4 14.95 75.3 14.95 70.3 14.95 61.8 14.3 55.6 12.2 34.9 11.45 19 Z"/>

<path fill="url(#Gradient_4)" stroke="none" d="
M 10.15 0
L 1.05 0 1.05 483.05 1.05 485.6 1.05 489.85
Q 1.45 489.9 3.3 489.55 5.2 489.2 5.65 489 8.35 487.55 14.2 482.95 18.75 479.4 20 477.95
L 20.4 477.2 20.4 477.15 20.15 476.2
Q 20 475.85 19.85 475.45 19.15 473.45 18.7 470.7 18.1 467.95 18 465.15 21.05 473.5 22.5 474.7
L 22.8 474.9
Q 23.15 475.2 23.75 475.5
L 28.7 477.7
Q 28.85 477.75 28.95 477.8 29.1 477.85 29.3 477.95 29.4 477.95 29.5 478 29.6 478.05 29.7 478.05 29.8 478.1 29.95 478.15 30.1 478.2 30.25 478.25 30.35 478.3 30.5 478.35 30.75 478.45 31.05 478.5 31.1 478.5 31.15 478.55 31.25 478.6 31.35 478.6 31.4 478.6 31.5 478.65 31.55 478.65 31.65 478.7
L 37.1 479.2
Q 37.45 479.1 37.8 479
L 37.95 478.95 38.35 478.8 38.35 478.6
Q 38.2 478.45 37.9 478.35
L 36.65 477.85
Q 37.4 478.2 37.75 478.5 38.05 478.7 38.05 478.85 38 478.7 37.55 478.45
L 34.85 477.75
Q 32.65 477.05 31 476.35 27 474.5 24.05 471.85 21.15 469.25 18.95 465.4 16.7646484375 461.476171875 16.1 457.75 16.1205078125 457.7912109375 16.15 457.85 16.1 457.65 16.05 457.55 15.65 456.65 15.3 455.7
L 13.55 449.7
Q 13.55 449.6 13.5 449.45 12.3 444.05 12.1 437.7
L 12.55 441.5 12.65 442.25
Q 12.5 440.75 12.4 439.2
L 11.75 418.8
Q 11.75 418.375 11.75 417.95
L 12 406.15
Q 18 406.05 18.3 402 18.4 399.85 16.5 398.2 16.4 398.1 16.3 398 16.15 397.9 16.1 397.85 16.05 397.8 16 397.75 15.9 397.7 15.9 397.65
L 15.7 397.45
Q 13.55 395.55 12.35 394.2 12 393.8 11.75 393.45 11.7 393.4 11.65 393.35
L 11.65 393.3
Q 13.05 380.65 14.05 365.9
L 14.05 365.85
Q 16.05 336.3 13.95 325.65 11.95 315.45 11.55 303.05 10.95 285.35 14.7 275 18.9 263.45 19.1 249.5
L 19.1 248.85
Q 19.1 247.7 19.15 246.65 19.1 239.85 18.35 237.3 18.298046875 237.1439453125 18.25 237 18.198046875 236.869921875 18.15 236.75
L 17.95 236.35
Q 16.3 233.6 14.35 226.35 14.2986328125 226.11875 14.25 225.9
L 14.15 225.5
Q 12.55 219.5 12.55 215.3
L 12.8 212.2
Q 12.85 211.75 12.95 211.35 13.65 208.5 13.65 203.9
L 13.65 203.75
Q 13.65 195.35 11.45 181.3 11.35 180.75 11.25 180.2
L 11.2 179.85
Q 11.15 179.45 11.1 179.1 11 178.75 10.95 178.35 10.55 175.95 14.45 169.55 17.75 164.2 14.95 161.05 12.95 158.7 11.95 154.75 14.3 147.05 14.4 124.9 14.45 108.4 13.65 98.35 13.4 95.5 13.8 79.9 14.2 64.55 13.3 55.7 9.65 18.85 10.15 0 Z"/>
</g>

<g id="gameFrame_0_Layer3_0_MEMBER_0_MEMBER_0_FILL">
<path fill="url(#Gradient_3)" stroke="none" d="
M 18.55 496.2
Q 14.35 497.25 13.35 498.6 16.75 496.6 22.05 495.5 20.2 495.8 18.55 496.2
M 4.6 512.55
Q 4.65 514.7 8.25 518.55 10.2 520.6 13.5 524 13.1 524.4 7.55 527.8 3.9 530.05 4 532.3 4.05 533.95 4.35 535.4 5.05 539.25 7.2 541.85 10.75 546.25 19.35 548.8
L 20.1 548.8
Q 13.2 546.2 9.6 540.75 7.95 538.3 7.1 535.4 6.25 532.75 6.15 529.7 6.1 527.75 10.9 526.65 16.45 525.3 17.4 524.15 16.95 523.45 15 522.55 12.15 521.3 11.3 520.75 6.4 517.8 6.6 511.5 6.8 505.15 9.55 501.75 10.25 500.9 11.15 500.15 7.65 502.15 6.05 505.1 4.45 508.05 4.6 512.55
M 42.85 496.3
Q 45.85 497.1 48.4 498.15 45.05 494.7 33.15 494.7 37.9 494.95 42.85 496.3
M 60.95 508.5
Q 63.2 512.85 62.3 516.2 60.3 523.7 43.75 524.2 38.7 524.3 32.35 523.8 38.75 524.55 43.75 525.9 54.85 528.75 59.25 534.35 61.75 537.5 61.35 540.95 62.65 538.85 63.2 536.55 64.95 529.1 59.3 524.2 64.55 519.15 64.1 512.9 63.7 507.45 59.55 504.15 56.95 502.05 52.8 500.25 55.15 501.6 56.95 503.2 59.25 505.2 60.95 508.5 Z"/>

<path fill="#68311A" stroke="none" d="
M 62.3 516.2
Q 63.2 512.85 60.95 508.5 59.25 505.2 56.95 503.2 55.15 501.6 52.8 500.25 50.75 499.1 48.4 498.15 45.85 497.1 42.85 496.3 37.9 494.95 33.15 494.7 27.8 494.4 22.7 495.35 22.35 495.4 22.05 495.5 16.75 496.6 13.35 498.6 12.8 498.9 12.35 499.2 11.7 499.65 11.15 500.15 10.25 500.9 9.55 501.75 6.8 505.15 6.6 511.5 6.4 517.8 11.3 520.75 12.15 521.3 15 522.55 16.95 523.45 17.4 524.15 16.45 525.3 10.9 526.65 6.1 527.75 6.15 529.7 6.25 532.75 7.1 535.4 7.95 538.3 9.6 540.75 13.2 546.2 20.1 548.8
L 56 548.8
Q 56.45 548.5 56.85 548.15 60.55 545.15 61.25 541.5 61.3 541.2 61.35 540.95 61.75 537.5 59.25 534.35 54.85 528.75 43.75 525.9 38.75 524.55 32.35 523.8 38.7 524.3 43.75 524.2 60.3 523.7 62.3 516.2 Z"/>
</g>

<g id="gameFrame_0_Layer3_0_MEMBER_1_FILL">
<path fill="#68311A" stroke="none" d="
M 1.05 482.25
L 1.05 484.65
Q 10.25 495.4 24.05 499 31.15 500.9 42.35 500.05 51.8 499.35 59.25 497.25 59.1 497 58.7 496.6 58.25 496.15 58.1 495.95 51 497.9 41.95 498.55 31.25 499.3 24.45 497.5 10.05 493.7 1.05 482.25
M 12.5 443.2
L 12.3 441
Q 8.6 445.35 6.6 450.85 4.65 456.35 4.65 462.45
L 4.7 463.7
Q 4.95 471.45 8.25 478.1 11.55 484.75 16.85 488.25 23.25 492.55 33.35 493.5 41.95 494.3 50.9 492.6 50.65 492.3 49.45 491.95 48.15 491.6 47.95 491.35 39.75 492.75 32.4 491.95 23.8 490.95 17.7 486.95 12.5 483.45 9.4 476.8 6.25 470.1 6.25 462.45 6.2 451.45 12.5 443.2
M 11.75 423.15
Q 5.45 418.25 1.05 412.8
L 1.05 415.2
Q 5.95 420.5 11.75 424.7
L 11.75 423.15
M 15 338.7
L 14.95 337.5
Q 9 342.4 6.35 346.1 3.5 350.1 3.5 354.05 3.5 356.45 3.7 357.1 4.6 360.15 7.2 362.85 9.95 365.65 13.95 367.4
L 14 366.5
Q 6 362 4.6 356.55 3.65 353 6.7 348 9.55 343.4 15 338.7
M 14.3 327.5
Q 6.75 332.75 1.05 339.05
L 1.05 341.35
Q 6.45 334.6 14.45 328.75
L 14.3 327.5
M 1.05 199.5
L 1.05 200.9
Q 6.7 205.35 12.95 211.35
L 13.25 209.75
Q 7.9 204.8 1.05 199.5
M 1.1 214.75
L 1.05 216.1
Q 7.4 222.7 15.5 234.2
L 15.5 231.1
Q 8.7 222.2 1.1 214.75
M 1.05 128.65
L 1.05 132
Q 5.6 135.7 14.1 137.55
L 14.15 136.35
Q 4.6 134 1.05 128.65
M 1.05 138.7
L 1 139.85
Q 7.6 142.5 13.7 143.65
L 13.8 142.35
Q 6.75 141.05 1.05 138.7
M 13.55 97.45
L 13.5 96.15
Q 5.55 101.4 1.05 106.55
L 1.05 109.3
Q 4.85 103.5 13.55 97.45
M 13.55 89.9
Q 7 92.7 1 95.95
L 1 97.75
Q 6 94.8 13.5 91.4
L 13.55 89.9
M 13.4 57
Q 6.75 58.75 1.05 61.6
L 1 63.15
Q 6.15 60.3 13.55 58.3
L 13.4 57
M 12.6 48.55
L 12.5 47.45
Q 6.15 49.35 1.05 52.05
L 1.05 53.6
Q 6.25 50.55 12.6 48.55
M 10.45 18.65
Q 7 20.6 1.05 21.9
L 1.05 23.45
Q 6.5 22.25 10.55 20.5
L 10.45 18.65 Z"/>
</g>

<g id="_imageAssets__Path__3_1_0_Layer0_0_FILL">
<path fill="#68311A" stroke="none" d="
M 2.3 0.15
Q 0.45 0.8 0.35 3.25 -0.1 18 0.35 21.4 1.25 28.6 6.2 33.35 7.75 31.85 8.95 28.7 11.4 22.4 9.6 14.1 8.2 7.35 5.2 1.5 4.15 -0.55 2.3 0.15 Z"/>
</g>

<g id="_imageAssets__Path__2_1_0_Layer0_0_FILL">
<path fill="#68311A" stroke="none" d="
M 3.6 2.9
Q 1.8 1 0.3 0 -0.35 9.55 0.6 13.5 1.7 18.15 6.3 22 7.6 21.15 8.55 19.4 10.45 15.9 8.85 11.35 7.25 6.75 3.6 2.9 Z"/>
</g>

<g id="gameFrame_0_Layer3_0_MEMBER_1_MEMBER_2_MEMBER_0_FILL">
<path fill="#AE764E" stroke="none" d="
M 7 4.1
L 6.3 2.75
Q 5.9 1.85 5.5 1.4 5 0.7 4.3 0.3 3.4158203125 -0.289453125 2.5 0.2 2.134765625 0.35234375 1.7 0.7 1.35 1 1.1 1.45
L 0.7 2.3 0.5 3.15
Q 0.9 2.35 1.4 1.65 1.8 1.25 2.05 1.15 2.4 0.9 2.7 0.9
L 2.75 0.9 2.8 0.85
Q 3.65 0.5 4.65 2
L 5.85 4.6
Q 7.05 7.45 7.95 10.05 8.8 12.6 9.5 15.65 10.25 18.8 10.45 21.45 10.8 19.1 10.45 15.5 9.95 12.1 9.15 9.65 8.2 6.65 7 4.1 Z"/>
</g>

<g id="gameFrame_0_Layer3_0_MEMBER_1_MEMBER_3_MEMBER_0_FILL">
<path fill="#683018" stroke="none" d="
M 0.45 25.15
Q 0.8 27.1 1.4 28.6 2.15 30.4 3.05 31.8 4 33.3 5.25 34.65
L 6.3 35.85 8 33.7 8.6 32.45
Q 9.2 30.8 8.95 29.75 8.25 30.6 7.25 31.55
L 6.7 31.95
Q 5.4302734375 29.5171875 4.1 27.3
L 0.4 21.45
Q 0.1 23.2 0.45 25.15 Z"/>
</g>

<g id="gameFrame_0_Layer3_0_MEMBER_1_MEMBER_4_FILL">
<path fill="#68311A" stroke="none" d="
M 941.2 531.65
Q 949.9 525.9 951 515 951.9 505.8 947.85 499.9 946.25 497.6 940.2 497.4 934.65 497.2 927.75 498.8 920.75 500.45 916.2 503.05 911.15 505.95 911.25 509 911.55 516.3 913.6 520.7 916.1 526.15 922 529.4
L 941.2 531.65 Z"/>
</g>

<g id="_imageAssets__Path__9_1_0_Layer0_0_FILL">
<path fill="#68311A" stroke="none" d="
M 0.05 36.05
L 1.6 36
Q 1.25 26.6 5.5 17.7 9.75 8.9 17.8 2.1
L 17.85 0
Q 9 7.1 4.35 16.5 -0.3 25.95 0.05 36.05 Z"/>
</g>

<g id="_imageAssets__Path__8_2_0_Layer0_0_FILL">
<path fill="#68311A" stroke="none" d="
M 0 19.6
L 10.45 1.65 10.8 0
Q -0.3 11.1 0 19.6 Z"/>
</g>

<g id="_imageAssets__Group__13_0_Layer0_0_MEMBER_0_FILL">
<path fill="#AD764E" stroke="none" d="
M 5.9 6.15
Q 5.35 5.35 3.15 2.9 1.15 0.9 0 0 0.7 1.75 2.45 3.6 4.25 5.4 5.9 6.15 Z"/>
</g>

<g id="_imageAssets__Group__14_0_Layer0_0_MEMBER_0_FILL">
<path fill="#AD764E" stroke="none" d="
M 8.65 4.75
L 7.8 3.75 1.3 0.2 0 0 0.8 1.05 7.35 4.6
Q 7.95 4.75 8.65 4.75 Z"/>
</g>

<g id="_imageAssets__Group__15_0_Layer0_0_MEMBER_0_FILL">
<path fill="#AD764E" stroke="none" d="
M 8.75 0.25
Q 8.35 0.1 7.55 0
L 1 1.3 0 2 1.2 2.3 7.8 0.95 8.75 0.25 Z"/>
</g>

<g id="_imageAssets__Group__16_0_Layer0_0_MEMBER_0_FILL">
<path fill="#AD764E" stroke="none" d="
M 10.25 4.9
L 14.65 0
Q 13.45 0.7 11.85 1.85
L 9.5 4.25
Q 7.15 6.85 5.35 9.5 3.25 12.6 2 15.25 1.15 17.05 0.65 18.35 0.15 20.55 0 21.65
L 2.85 15.7
Q 4.3 12.7 6.15 10.05 8.05 7.35 10.25 4.9 Z"/>
</g>

<g id="gameFrame_0_Layer3_0_MEMBER_1_MEMBER_11_FILL">
<path fill="#AD764E" stroke="none" d="
M 930.4 476.55
Q 928.8 475.65 927.05 474.45
L 924.05 471.95
Q 921.5 469.4 919.05 465.8 917.05 462.95 915.05 458.85 915.7 462.6 917.9 466.55 920.1 470.4 923 473 925.95 475.65 929.95 477.5 931.6 478.2 933.8 478.9
L 936.75 479.65 937.2 479.8
Q 937.25 479.85 937.15 479.95
L 936.9 480.1 937.3 479.95 937.3 479.75
Q 937.15 479.6 936.85 479.5
L 934 478.3
Q 932.4 477.65 930.4 476.55 Z"/>
</g>

<g id="gameFrame_0_Layer3_0_MEMBER_2_FILL">
<path fill="#AD764E" stroke="none" d="
M 32.35 492.45
Q 35.95 492.85 40.2 492.7
L 44.15 492.4
Q 46.6 491.85 47.95 491.35
L 40.15 491.7
Q 35.95 491.85 32.45 491.45 28.3 490.95 24.9 489.85
L 17.7 486.95 20.9 489.3 24.6 490.8
Q 28.35 492 32.35 492.45
M 7.15 452.7
Q 5.6 457.75 5.75 463.6 6 469.25 7.85 474.4 8.7 476.85 10.15 479.4 12.05 482 13.8 483.5 12.1 481.2 11.05 478.9 9.85 476.8 8.75 474.05 7 469.1 6.75 463.55 6.55 458.2 8.05 453 8.9 450.3 10.05 448.05 10.9 445.9 12.5 443.2 10.7 445.15 9.2 447.6 7.85 450.2 7.15 452.7
M 1.05 411.95
L 1.9 413.75 5.75 418.15
Q 6.6 419.15 8.45 421
L 9.9 422.3
Q 11.35 423.05 11.75 423.15
L 10.55 421.55 9.15 420.25
Q 8.55 419.7 6.45 417.5
L 2.65 413.1 1.05 411.95
M 12.45 338.65
L 10.35 340.45
Q 8.45 342.2 6.65 344.4 4.6 347.05 3.75 349.05 3.2 350.45 2.9 351.75 2.85 353.1 3.5 354.5 3.5 352.8 3.9 351.9 4 351.25 4.65 349.45 5.6 347.35 7.45 345 8.9 343.15 11.05 341.15
L 14.95 337.5
Q 14.25 337.75 12.45 338.65
M 12.15 328.4
L 10.35 329.75
Q 7.95 331.55 6.8 332.55 4.9 334.1 3.5 335.75
L 2.05 337.45
Q 1.5 338.35 1 339.5
L 2.8 338.1 4.25 336.4
Q 5.85 334.65 7.4 333.3
L 12.75 329.2 14.3 327.5 12.15 328.4
M 3.4 215.85
L 1.1 214.1
Q 1.75 215.2 2.7 216.5
L 8.25 222.95
Q 9.45 224.4 11.75 227.4
L 13.45 229.7 15.5 231.7 14.25 229.1 9 222.3
Q 6.6 219.4 5.3 217.95
L 3.4 215.85
M 13.4 209.4
L 12.25 207.65 2.95 199.7
Q 1.7 199.05 1.05 198.8
L 2.3 200.45 11.55 208.4 13.4 209.4
M 2.75 138.15
Q 1.65 138.05 1.05 138.05
L 2.4 139.1 4 139.65
Q 5.45 140.2 7.2 140.7
L 12.1 142 13.85 141.85 12.3 141.05 10.7 140.65
Q 8.95 140.25 7.5 139.75
L 2.75 138.15
M 10.45 135.45
L 12.25 135.95
Q 12.9 136 14.2 135.9
L 12.5 135 10.75 134.5
Q 9.1 134 7.35 133.2 5.5 132.4 4.15 131.45 3.3 130.95 2.7 130.4
L 1.05 129.5
Q 1.4 130.35 2.05 131.15
L 3.6 132.3
Q 5.2 133.35 6.9 134.1 8.05 134.65 10.45 135.45
M 13.5 95.55
L 11.55 96.35 6.65 100.05
Q 4.9 101.45 3.55 102.75
L 2.05 104.15 1.05 106 2.75 104.85 12.1 97.15 13.5 95.55
M 2.3 94.4
Q 1.4 95.2 1 95.7
L 2.8 95.25 12.15 90.5 13.55 89.3 11.75 89.6 2.3 94.4
M 13.35 56.4
Q 12.5 56.3 11.65 56.4
L 10.05 56.9 2.25 60.1 1 61.3 2.7 60.95 11.9 57.35 13.35 56.4
M 12.5 47.15
Q 11.7 47.1 10.85 47.15
L 2.15 50.6
Q 1.75 50.95 1.05 51.75
L 2.6 51.5 4 50.8 11.15 48.05 12.5 47.15
M 2.1 21
L 1.05 21.8 2.35 22 9.55 19.8 10.5 18.85 9.2 18.9 2.1 21 Z"/>
</g>

<g id="gameFrame_0_Layer3_0_MEMBER_3_FILL">
<path fill="#AD764E" stroke="none" d="
M 23.55 479.95
Q 29.5 483.75 39.25 487.35 51.55 491.85 53.95 493 61.35 496.55 65 501.55 69.4 507.7 69.7 517.7
L 68.4 523
Q 67.2 528.7 67.9 530.7 67.95 529.5 68.3 527.6 69.05 523.8 70.5 520.3 71.55 518 71.45 514.1 71.2 506.35 65.3 498.55 60.85 492.7 50.75 489 36.7 483.9 31.05 480.35
L 23.55 479.95
M 11.65 393.35
L 11.65 395.1
Q 12 397.15 13.55 398.7 16.1 401.25 18.3 402 18.4 399.85 16.5 398.2 13 395.1 11.65 393.35
M 17.95 236.35
Q 16.3 233.6 14.35 226.35 12.1 218.25 12.65 213.2
L 11.8 218.05
Q 11.3 226.75 14.6 236.9 17.9 247.05 16.65 262.05 16 269.55 14.7 275 18.9 263.45 19.1 249.5 19.3 238.5 17.95 236.35
M 14.95 161.05
Q 12.95 158.7 11.95 154.75 10.65 156.8 11 158.8 11.15 159.8 11.55 160.4 13 163.6 14.8 164.9 15.65 165.6 16.25 165.6 16.75 163.05 14.95 161.05 Z"/>
</g>
</defs>

<g transform="matrix( 1, 0, 0, 1, 0,0) ">
<g transform="matrix( 1, 0, 0, 1, 0,0) ">
<use xlink:href="#gameFrame_0_Layer3_0_MEMBER_0_FILL"/>
</g>

<g transform="matrix( 1, 0, 0, 1, 0,0) ">
<use xlink:href="#gameFrame_0_Layer3_0_MEMBER_0_MEMBER_0_FILL"/>
</g>

<g transform="matrix( 1, 0, 0, 1, 0,0) ">
<use xlink:href="#gameFrame_0_Layer3_0_MEMBER_1_FILL"/>
</g>

<g transform="matrix( 1, 0, 0, 1, 6.95,244.1) ">
<g transform="matrix( 1, 0, 0, 1, 0,0) ">
<use filter="url(#Filter_1)" xlink:href="#_imageAssets__Path__3_1_0_Layer0_0_FILL"/>
</g>
</g>

<g transform="matrix( 1, 0, 0, 1, 6.85,255.45) ">
<g transform="matrix( 1, 0, 0, 1, 0,0) ">
<use filter="url(#Filter_2)" xlink:href="#_imageAssets__Path__2_1_0_Layer0_0_FILL"/>
</g>
</g>

<g transform="matrix( 1, 0, 0, 1, 6.85,243.55) ">
<use xlink:href="#gameFrame_0_Layer3_0_MEMBER_1_MEMBER_2_MEMBER_0_FILL"/>
</g>

<g transform="matrix( 1, 0, 0, 1, 6.85,243.55) ">
<use xlink:href="#gameFrame_0_Layer3_0_MEMBER_1_MEMBER_3_MEMBER_0_FILL"/>
</g>

<g transform="matrix( 1, 0, 0, 1, -898.95,-1.15) ">
<use xlink:href="#gameFrame_0_Layer3_0_MEMBER_1_MEMBER_4_FILL"/>
</g>

<g transform="matrix( 1, 0, 0, 1, 39.15,512.25) ">
<g transform="matrix( 1, 0, 0, 1, 0,0) ">
<use filter="url(#Filter_1)" xlink:href="#_imageAssets__Path__9_1_0_Layer0_0_FILL"/>
</g>
</g>

<g transform="matrix( 1, 0, 0, 1, 45.85,517) ">
<g transform="matrix( 1, 0, 0, 1, 0,0) ">
<use filter="url(#Filter_1)" xlink:href="#_imageAssets__Path__8_2_0_Layer0_0_FILL"/>
</g>
</g>

<g transform="matrix( 1, 0, 0, 1, 1.05,482.25) ">
<g transform="matrix( 1, 0, 0, 1, 0,0) ">
<g transform="matrix( 1, 0, 0, 1, 0,0) ">
<use filter="url(#Filter_3)" xlink:href="#_imageAssets__Group__13_0_Layer0_0_MEMBER_0_FILL"/>
</g>
</g>
</g>

<g transform="matrix( 1, 0, 0, 1, 11.85,492) ">
<g transform="matrix( 1, 0, 0, 1, 0,0) ">
<g transform="matrix( 1, 0, 0, 1, 0,0) ">
<use filter="url(#Filter_3)" xlink:href="#_imageAssets__Group__14_0_Layer0_0_MEMBER_0_FILL"/>
</g>
</g>
</g>

<g transform="matrix( 1, 0, 0, 1, 49.1,496.1) ">
<g transform="matrix( 1, 0, 0, 1, 0,0) ">
<g transform="matrix( 1, 0, 0, 1, 0,0) ">
<use filter="url(#Filter_3)" xlink:href="#_imageAssets__Group__15_0_Layer0_0_MEMBER_0_FILL"/>
</g>
</g>
</g>

<g transform="matrix( 1, 0, 0, 1, 42.3,514.35) ">
<g transform="matrix( 1, 0, 0, 1, 0,0) ">
<g transform="matrix( 1, 0, 0, 1, 0,0) ">
<use filter="url(#Filter_3)" xlink:href="#_imageAssets__Group__16_0_Layer0_0_MEMBER_0_FILL"/>
</g>
</g>
</g>

<g transform="matrix( 1, 0, 0, 1, -898.95,-1.15) ">
<use xlink:href="#gameFrame_0_Layer3_0_MEMBER_1_MEMBER_11_FILL"/>
</g>

<g transform="matrix( 1, 0, 0, 1, 0,0) ">
<use xlink:href="#gameFrame_0_Layer3_0_MEMBER_2_FILL"/>
</g>

<g transform="matrix( 1, 0, 0, 1, 0,0) ">
<use xlink:href="#gameFrame_0_Layer3_0_MEMBER_3_FILL"/>
</g>
</g>
</svg>
