
<svg xmlns="http://www.w3.org/2000/svg" version="1.1" xmlns:xlink="http://www.w3.org/1999/xlink" preserveAspectRatio="none" x="0px" y="0px" width="899px" height="549px" viewBox="0 0 899 549">
<defs>
<linearGradient id="Gradient_1" gradientUnits="userSpaceOnUse" x1="921.8" y1="9.45" x2="3.8000000000000114" y2="9.45" spreadMethod="pad">
<stop  offset="0%" stop-color="#945229"/>

<stop  offset="100%" stop-color="#A26430"/>
</linearGradient>

<g id="gameFrame_0_Layer1_0_MEMBER_0_FILL">
<path fill="#6C4434" stroke="none" d="
M 14.8 0.05
L 14.8 0 14.3 0 14.3 0.05 14.8 0.05 Z"/>

<path fill="#945229" stroke="none" d="
M 830.95 10.05
Q 829.5 9.65 828.3 9.85 827.7 9.95 827.05 10.05
L 830.95 10.05
M 912.7 10.05
L 912.7 9.9
Q 899.48203125 9.7900390625 885.85 10.05
L 912.7 10.05
M 912.7 0.05
L 911.8 0.05 912.7 0.95 912.7 0.05 Z"/>

<path fill="url(#Gradient_1)" stroke="none" d="
M 912.7 0.95
L 911.8 0.05 14.8 0.05 14.3 0.05 14.3 12.3
Q 22.7947265625 13.153515625 37.3 13.3 59.3 13.45 70.3 12.5 71.48203125 12.4125 78.05 12.45 86.484375 12.4751953125 103.8 12.7 134.1 13.1 143 12.2 159.4 10.55 192.05 14.45 208.55 16.4 225.3 18.85 232.45 19.1 262.45 16.15 290.05 13.5 304 11.5 323.35 8.75 362.45 11.55 384.7 13.15 388.95 13.35 401.85 13.95 407.6 12.85 418.65 10.75 441.65 10.6 453.15 10.55 462.45 10.9 462.6 16.95 466.6 17.15 468.75 17.3 470.4 15.4 473.5 11.85 475.3 10.5
L 491.05 11.85
Q 510.45 13.35 528.5 14.25 586.4 17.15 609.95 12.85 620.1 11 642.1 10.45 669.25 9.85 679.6 13.6 691.15 17.75 712.6 18 720.1 18.05 726.8 17.6 732.6 17.25 733.3 16.85 735.1 15.75 755.3 13.25 776.8 10.55 782.3 11.85 787.75 13.15 806.15 12 820.1 11.1 827.05 10.05 827.7 9.95 828.3 9.85 829.5 9.65 830.95 10.05 831.8 10.3 832.75 10.75 833.2 11 837.1 13.35 842.45 16.65 845.6 13.85 849.15 10.75 885.85 10.05 899.48203125 9.7900390625 912.7 9.9
L 912.7 0.95 Z"/>
</g>

<g id="gameFrame_0_Layer1_0_MEMBER_1_FILL">
<path fill="#68311A" stroke="none" d="
M 23.05 13
Q 19.65 8.1 16.2 0.05
L 14.5 0.05
Q 17.7 7.9 20.65 12.85
L 23.05 13
M 64.2 12.85
L 66.05 12.8
Q 68 7.75 69.6 0.05
L 68.05 0.05
Q 66.4 8.2 64.2 12.85
M 131.65 12.8
L 133.1 12.75
Q 135.95 6.05 140.15 0.05
L 138.1 0.05
Q 134.15 6.2 131.65 12.8
M 144.15 12.05
L 145.9 11.9
Q 148.65 5.55 152.6 0.05
L 150.55 0.05
Q 146.8 5.9 144.15 12.05
M 205.6 0.05
L 203.55 0.05
Q 199.85 5.75 195.6 14.4
L 197 14.6
Q 201.7 5.5 205.6 0.05
M 204.4 15.65
L 206 15.95
Q 210.9 9.9 214.55 6.4 219.05 2.05 223.2 0.05
L 220.35 0.05
Q 212.5 4.95 204.4 15.65
M 285.15 14.35
L 286.5 14.1
Q 283.4 4.35 277.6 0.05
L 274.55 0.05
Q 281.45 3.65 285.15 14.35
M 294.3 12.65
Q 292.5 5.7 289.95 0.05
L 287.75 0.05
Q 290.7 5.5 292.75 12.9
L 294.3 12.65
M 448.6 10.6
L 450.75 10.6
Q 446.8 6.35 441.65 0.05
L 439.65 0.05
Q 443.65 5.05 448.6 10.6
M 473.05 12.4
L 474.3 11.3
Q 467.1 5.6 461.25 0.05
L 459 0.05
Q 465.1 6.15 473.05 12.4
M 734 0.05
L 731.1 0.05
Q 719.35 8.75 712.15 17.55
L 714.25 17.65
Q 723.55 6.55 734 0.05
M 794.6 12.35
Q 789.3 5.45 782.4 3.95 780.45 3.5 778.4 3.5 770 3.5 754.9 6.55 736.1 10.3 730.5 15.45
L 732.3 15.45
Q 737.8 11 756.9 7.4 773.65 4.2 780.25 4.7 783.4 4.95 786.9 7.3 789.85 9.3 792.65 12.45
L 794.6 12.35
M 846.9 12.9
Q 840.7 5.7 833.25 0.05
L 830.05 0.05
Q 838.05 5.1 845.65 13.8
L 846.9 12.9 Z"/>
</g>

<g id="gameFrame_0_Layer1_0_MEMBER_2_FILL">
<path fill="#AD764E" stroke="none" d="
M 22.45 11.2
L 21.5 9.65
Q 20.7 8.4 19.75 6.45 19.15 5.4 18.15 3.2 17.7 2.35 17.4 1.5
L 16.2 0.05 16.45 1.9 18.85 6.9
Q 19.75 8.7 20.65 10.15
L 21.6 11.75 23.05 13 22.45 11.2
M 69.75 1.75
Q 69.7 0.6 69.6 0.05
L 68.75 1.55 67.6 6.35
Q 67.55 6.6 66.7 9.55
L 66.15 11.1 66.05 12.8 67.1 11.4 69.75 1.75
M 139.55 1.8
Q 140.05 0.35 140.15 0.05 139.2 0.85 138.7 1.25
L 134.15 9.2 133.4 10.85
Q 133.15 11.85 133.1 12.75
L 134.3 11.25 135.05 9.65
Q 135.2 9.25 136.7 6.45
L 139.55 1.8
M 152.05 1.7
L 152.6 0.05 151.2 1.15 150.3 2.6
Q 149.4 3.9 148.5 5.55
L 146.2 10.15 145.95 11.95 147.1 10.55 147.8 9.05
Q 148.65 7.25 149.35 6.05
L 152.05 1.7
M 204.8 2.05
L 205.6 0.05 204 1.5 197.55 12.5 197 14.6 198.45 12.95 204.8 2.05
M 217.95 2.85
Q 215.9 4.45 213.5 6.75 211.35 8.8 209.35 11.05
L 207.45 13.3
Q 206.1 15.55 205.95 15.9
L 208.2 13.95 210.1 11.7
Q 212.4 9.15 214.15 7.45 216.4 5.3 218.6 3.65 219.9 2.6 220.95 1.95
L 223.2 0.05
Q 222.15 0.35 220.4 1.1
L 217.95 2.85
M 285.5 9.9
Q 284.4 7.5 283.55 6.1 282.35 4.1 281.05 2.6 279.8 1.25 279.55 1 278.55 0.4 277.6 0.05
L 278.85 1.75
Q 279.55 2.3 280.3 3.25 281.55 4.65 282.7 6.6 283.6 8.15 284.55 10.3
L 285.35 12.25 286.5 14.1 286.25 11.9 285.5 9.9
M 294.35 10.9
L 293.9 9.25 291.05 1.35
Q 290.35 0.45 289.95 0.05
L 290.15 1.75 293.4 11.15 294.3 12.65 294.35 10.9
M 450.75 10.6
L 449.95 8.95 443.15 1.05 441.65 0.05
Q 441.95 0.95 442.4 1.65
L 449.2 9.6 450.75 10.6
M 463.15 1.15
L 461.25 0.05 462.5 1.9 472.3 10.35 474.3 11.3 472.95 9.55 463.15 1.15
M 734 0.05
Q 732.95 0.45 730.95 1.45
L 728.25 3.4
Q 725.85 5.2 723.1 7.7 721.1 9.45 718.3 12.35
L 716.05 14.8 714.25 17.65 719.05 13
Q 721.05 10.9 723.75 8.4 726.25 6.25 728.85 4.2
L 734 0.05
M 793.45 10.2
L 791.7 8.45
Q 790.05 6.85 787.8 5.5 785.6 4.25 783.25 3.65
L 780.85 3.15
Q 779.5 3.25 778.4 3.5
L 783 4.6
Q 785.2 5.2 787.3 6.35 789.25 7.5 791.05 9.15
L 792.7 10.85
Q 793.35 11.3 794.6 12.35
L 793.45 10.2
M 835.4 1.1
Q 834.3 0.45 833.25 0.05
L 834.8 1.85 844.95 11.45
Q 846.5 12.65 846.9 12.9
L 845.7 10.8 840.75 5.75 835.4 1.1 Z"/>
</g>

<g id="gameFrame_0_Layer1_0_MEMBER_3_FILL">
<path fill="#68311A" stroke="none" d="
M 462.35 10.9
L 462.35 7.9
Q 453.05 7.8 441.55 8.1 418.55 8.75 407.5 10.85 401.75 11.95 388.85 11.2 384.75 10.95 362.35 9.05 323.3 5.75 303.9 8.5 287.3 10.85 262.35 13.65 232.05 17.1 225.2 16.85 208.45 14.15 191.9 11.95 159.25 7.55 142.9 9.2 133.95 10.1 103.7 10.2 86.480859375 10.2556640625 78.05 10.35 71.351171875 10.4115234375 70.2 10.5 58.45 11.55 37.8 11.8 22.946484375 11.9955078125 14.3 11.3
L 14.3 12.35
Q 22.7453125 13.153515625 37.2 13.3 59.2 13.45 70.2 12.5 71.391015625 12.41171875 78.05 12.45 86.486328125 12.4763671875 103.7 12.7 134 13.1 142.9 12.2 159.3 10.55 191.9 14.45 208.45 16.4 225.2 18.85 232.35 19.1 262.35 16.15 289.95 13.5 303.9 11.5 323.25 8.75 362.35 11.55 384.6 13.15 388.85 13.35 401.75 13.95 407.5 12.85 418.55 10.75 441.55 10.6 453.05 10.55 462.35 10.9
M 470.4 15.4
Q 473.5 11.85 475.3 10.5
L 474.95 10.45
Q 473.6 10.3 472.4 10.8 471.1 11.35 470.6 12.45 469.55 14.8 467.95 16.2 467.2 16.9 466.6 17.15 468.75 17.3 470.4 15.4
M 831.85 10.2
Q 828.25 7.9 823.95 8.45 797.2 12.05 785.2 11.15 779.75 10.5 777.2 10.25 772.75 9.85 767.35 10.3 760.85 10.85 751.4 12.35 741.35 14 732.4 14.85 722.05 16.25 705.95 15.9 687.4 15.45 679.45 12.6 671.25 9.6 651.75 9.75 671.15 10.55 679.45 13.6 697.4 20.1 733.15 16.85 735.6 15.95 753.5 13.55 770.6 11.25 778.2 11.45 778.3 11.45 778.4 11.5 780.3 11.9 785.35 12.2 802.3 13.1 825.5 10.2 828.3 9.9 831.85 10.2
M 912.7 9.9
L 912.7 8.7
Q 901.557421875 8.140625 878.65 9.3 843.3 11.1 841.85 12.6 841 13.5 840.2 14.15
L 839.55 14.65
Q 843.05 16.15 845.6 13.85 849.15 10.75 885.85 10.05 899.48203125 9.7900390625 912.7 9.9 Z"/>
</g>

<g id="gameFrame_0_Layer1_0_MEMBER_3_MEMBER_0_FILL">
<path fill="#68311A" stroke="none" d="
M 691 567.05
Q 700.6 567.75 710.2 567.5 718.5 567.3 719.35 566.8
L 719.35 564.8
Q 718.4 565.4 710.2 566.2 700.45 567.15 691 567.05 Z"/>
</g>

<g id="gameFrame_0_Layer1_0_MEMBER_3_MEMBER_1_FILL">
<path fill="#68311A" stroke="none" d="
M 612.4 560.95
Q 626.15 559.75 637.95 559.7 625.75 559.15 612.4 559.6 600.55 560 596.05 560.8 572.5 565.1 516.15 562.65 498.65 561.9 479.8 560.6
L 464.55 559.4 461.35 560.45 477.1 561.8
Q 496.5 563.3 514.55 564.2 572.5 567.1 596.05 562.8 601.2 561.9 612.4 560.95 Z"/>
</g>
</defs>

<g transform="matrix( 1, 0, 0, 1, 0,0) ">
<g transform="matrix( 1, 0, 0, 1, -14.3,0) ">
<use xlink:href="#gameFrame_0_Layer1_0_MEMBER_0_FILL"/>
</g>

<g transform="matrix( 1, 0, 0, 1, -14.3,0) ">
<use xlink:href="#gameFrame_0_Layer1_0_MEMBER_1_FILL"/>
</g>

<g transform="matrix( 1, 0, 0, 1, -14.3,0) ">
<use xlink:href="#gameFrame_0_Layer1_0_MEMBER_2_FILL"/>
</g>

<g transform="matrix( 1, 0, 0, 1, -14.3,0) ">
<use xlink:href="#gameFrame_0_Layer1_0_MEMBER_3_FILL"/>
</g>

<g transform="matrix( 1, 0, 0, 1, -0.5,-549.95) ">
<use xlink:href="#gameFrame_0_Layer1_0_MEMBER_3_MEMBER_0_FILL"/>
</g>

<g transform="matrix( 1, 0, 0, 1, -0.5,-549.95) ">
<use xlink:href="#gameFrame_0_Layer1_0_MEMBER_3_MEMBER_1_FILL"/>
</g>
</g>
</svg>
