
<svg xmlns="http://www.w3.org/2000/svg" version="1.1" xmlns:xlink="http://www.w3.org/1999/xlink" preserveAspectRatio="none" x="0px" y="0px" width="40px" height="39px" viewBox="0 0 40 39">
<defs>
<linearGradient id="Gradient_1" gradientUnits="userSpaceOnUse" x1="5" y1="8.2875" x2="5" y2="0.31249999999999956" spreadMethod="pad">
<stop  offset="0%" stop-color="#8AC563"/>

<stop  offset="49.80392156862745%" stop-color="#3CAE4F"/>
</linearGradient>

<radialGradient id="Gradient_2" gradientUnits="userSpaceOnUse" cx="0" cy="0" r="7.950000000000001" fx="0" fy="0" gradientTransform="matrix( 0, 0.9999999999999999, 1.4999999999999998, 0, 5,0.35) " spreadMethod="pad">
<stop  offset="0%" stop-color="#FFFFFF" stop-opacity="0.7490196078431373"/>

<stop  offset="54.11764705882353%" stop-color="#FFFFFF" stop-opacity="0.2"/>

<stop  offset="54.90196078431372%" stop-color="#FFFFFF" stop-opacity="0"/>
</radialGradient>

<linearGradient id="Gradient_3" gradientUnits="userSpaceOnUse" x1="7.375" y1="6.7875000000000005" x2="5.625" y2="5.0125" spreadMethod="pad">
<stop  offset="0%" stop-color="#29B050"/>

<stop  offset="100%" stop-color="#288C47"/>
</linearGradient>

<linearGradient id="Gradient_4" gradientUnits="userSpaceOnUse" x1="2.5375" y1="1.7374999999999998" x2="4.362500000000001" y2="3.5625" spreadMethod="pad">
<stop  offset="0%" stop-color="#29B050"/>

<stop  offset="100%" stop-color="#288C47"/>
</linearGradient>

<linearGradient id="Gradient_5" gradientUnits="userSpaceOnUse" x1="2.5375" y1="6.775" x2="4.6625" y2="4.625" spreadMethod="pad">
<stop  offset="0%" stop-color="#29B050"/>

<stop  offset="100%" stop-color="#288C47"/>
</linearGradient>

<linearGradient id="Gradient_6" gradientUnits="userSpaceOnUse" x1="7.3625" y1="1.7249999999999999" x2="5.2375" y2="3.875" spreadMethod="pad">
<stop  offset="0%" stop-color="#29B050"/>

<stop  offset="100%" stop-color="#288C47"/>
</linearGradient>

<g id="Layer5_0_MEMBER_0_MEMBER_0_MEMBER_0_FILL">
<path fill="url(#Gradient_1)" stroke="none" d="
M 9 4.3
Q 9 2.65 7.85 1.5 6.65 0.3 5 0.3 3.3 0.3 2.15 1.5 1 2.65 1 4.3 1 5.95 2.15 7.15 3.3 8.3 5 8.3 6.65 8.3 7.85 7.15 9 5.95 9 4.3 Z"/>
</g>

<g id="Layer5_0_MEMBER_0_MEMBER_0_MEMBER_1_MEMBER_0_FILL">
<path fill="#3F7C3E" stroke="none" d="
M 9.3 4.3
Q 9.3 2.55 8.05 1.25 6.75 0 5 0 3.2 0 1.95 1.25 0.65 2.55 0.65 4.3 0.65 6.1 1.95 7.4 3.2 8.65 5 8.65 6.75 8.65 8.05 7.4 9.3 6.1 9.3 4.3
M 7.85 1.5
Q 9 2.65 9 4.3 9 5.95 7.85 7.15 6.65 8.3 5 8.3 3.3 8.3 2.15 7.15 1 5.95 1 4.3 1 2.65 2.15 1.5 3.3 0.3 5 0.3 6.65 0.3 7.85 1.5 Z"/>
</g>

<g id="Layer5_0_MEMBER_0_MEMBER_0_MEMBER_2_MEMBER_0_FILL">
<path fill="#5DB74D" stroke="none" d="
M 9 4.3
Q 9 2.65 7.85 1.5 6.65 0.3 5 0.3 3.3 0.3 2.15 1.5 1 2.65 1 4.3 1 5.95 2.15 7.15 3.3 8.3 5 8.3 6.65 8.3 7.85 7.15 9 5.95 9 4.3
M 7.65 1.65
Q 8.75 2.75 8.75 4.3 8.75 5.85 7.65 7 6.55 8.1 5 8.1 3.45 8.1 2.3 7 1.2 5.9 1.2 4.3 1.2 2.75 2.3 1.65 3.4 0.55 5 0.55 6.55 0.55 7.65 1.65 Z"/>
</g>

<g id="Layer5_0_MEMBER_0_MEMBER_0_MEMBER_3_FILL">
<path fill="url(#Gradient_2)" stroke="none" d="
M 9 4.3
Q 9 2.65 7.85 1.5 6.65 0.3 5 0.3 3.3 0.3 2.15 1.5 1 2.65 1 4.3 1 5.95 2.15 7.15 3.3 8.3 5 8.3 6.65 8.3 7.85 7.15 9 5.95 9 4.3 Z"/>
</g>

<g id="Layer5_0_MEMBER_1_MEMBER_0_MEMBER_0_MEMBER_0_MEMBER_0_FILL">
<path fill="url(#Gradient_3)" stroke="none" d="
M 5.15 5.45
L 5.75 6.1 5.15 6.65 7.35 6.85 7.4 4.65 6.8 5.2 6.15 4.5 5.15 5.45 Z"/>
</g>

<g id="Layer5_0_MEMBER_1_MEMBER_0_MEMBER_0_MEMBER_0_MEMBER_1_MEMBER_0_FILL">
<path fill="#82C25F" stroke="none" d="
M 7.4 4.45
L 7.25 4.5 6.8 4.85 6.3 4.35 6.15 4.25 6 4.3 5 5.3
Q 4.8 5.5 5 5.6 5.2 5.95 5.45 6.1
L 5 6.5
Q 4.9 6.6 4.95 6.75 5.1 6.9 5.15 6.9
L 7.35 7.05 7.35 7.1 7.5 7 7.6 6.85 7.6 4.65 7.5 4.45 7.4 4.45
M 5.75 6.1
L 5.15 5.45 6.15 4.5 6.8 5.2 7.4 4.65 7.35 6.85 5.15 6.65 5.75 6.1 Z"/>
</g>

<g id="Layer5_0_MEMBER_1_MEMBER_1_MEMBER_0_MEMBER_0_MEMBER_0_FILL">
<path fill="url(#Gradient_4)" stroke="none" d="
M 4.8 3.1
L 4.15 2.4 4.75 1.85 2.55 1.65 2.55 3.85 3.1 3.35 3.85 4.1 4.8 3.1 Z"/>
</g>

<g id="Layer5_0_MEMBER_1_MEMBER_1_MEMBER_0_MEMBER_0_MEMBER_1_MEMBER_0_FILL">
<path fill="#82C25F" stroke="none" d="
M 5.05 3.05
L 5 2.95 4.5 2.4 4.9 2.05
Q 5.05 1.9 4.95 1.8 4.95 1.7 4.75 1.6
L 2.55 1.45 2.4 1.5 2.35 1.65 2.3 3.85
Q 2.3 4 2.45 4.05
L 2.55 4.1 2.7 4 3.1 3.65 3.7 4.25 3.85 4.35 4.05 4.25 4.3 3.95
Q 5.05 3.15 5.05 3.05
M 4.75 1.85
L 4.15 2.4 4.8 3.1 3.85 4.1 3.1 3.35 2.55 3.85 2.55 1.65 4.75 1.85 Z"/>
</g>

<g id="Layer5_0_MEMBER_1_MEMBER_2_FILL">
<path fill="#22773E" stroke="none" d="
M 4.15 2.4
L 4.75 1.85 2.55 1.65 2.55 3.85 2.95 3.45 3 2.35 4.15 2.4 Z"/>
</g>

<g id="Layer5_0_MEMBER_1_MEMBER_3_FILL">
<path fill="#22773E" stroke="none" d="
M 6.3 6.05
L 5.8 5.55 6.5 4.85 6.15 4.5 5.15 5.45 5.75 6.1 5.15 6.65 6.65 6.8 5.8 6.45 6.3 6.05 Z"/>
</g>

<g id="Layer5_0_MEMBER_2_MEMBER_0_MEMBER_0_MEMBER_0_MEMBER_0_FILL">
<path fill="url(#Gradient_5)" stroke="none" d="
M 4.15 6.1
L 5.15 5.05 4.15 4.1 3.1 5.2 2.55 4.65 2.55 6.85 4.75 6.65 4.15 6.1 Z"/>
</g>

<g id="Layer5_0_MEMBER_2_MEMBER_0_MEMBER_0_MEMBER_0_MEMBER_1_MEMBER_0_FILL">
<path fill="#82C25F" stroke="none" d="
M 5.35 5.15
Q 5.4 5 5.3 4.9
L 4.3 3.95 4.15 3.9
Q 4 3.9 3.1 4.85
L 2.7 4.5 2.55 4.45 2.45 4.45
Q 2.3 4.55 2.3 4.65
L 2.35 6.85 2.4 7 2.55 7.1 2.6 7.05 4.75 6.9
Q 4.95 6.9 4.95 6.75 5.05 6.55 4.9 6.5
L 4.5 6.1 5.1 5.45 5.25 5.25 5.35 5.15
M 3.1 5.2
L 4.15 4.1 5.15 5.05 4.15 6.1 4.75 6.65 2.55 6.85 2.55 4.65 3.1 5.2 Z"/>
</g>

<g id="Layer5_0_MEMBER_2_MEMBER_1_MEMBER_0_MEMBER_0_MEMBER_0_FILL">
<path fill="url(#Gradient_6)" stroke="none" d="
M 5.75 2.4
L 4.8 3.45 5.75 4.4 6.8 3.35 7.4 3.85 7.35 1.65 5.15 1.85 5.75 2.4 Z"/>
</g>

<g id="Layer5_0_MEMBER_2_MEMBER_1_MEMBER_0_MEMBER_0_MEMBER_1_MEMBER_0_FILL">
<path fill="#82C25F" stroke="none" d="
M 7.5 1.5
L 7.35 1.45 5.15 1.6 4.95 1.8
Q 4.9 1.85 5 2.05
L 5.45 2.4 4.65 3.25 4.55 3.4
Q 4.55 3.55 4.65 3.6
L 5.6 4.55 5.75 4.65 5.8 4.65
Q 5.9 4.65 6.8 3.65
L 7.4 4.1 7.5 4.05 7.6 3.85 7.6 1.65 7.5 1.5
M 5.15 1.85
L 7.35 1.65 7.4 3.85 6.8 3.35 5.75 4.4 4.8 3.45 5.75 2.4 5.15 1.85 Z"/>
</g>

<g id="Layer5_0_MEMBER_2_MEMBER_2_FILL">
<path fill="#22773E" stroke="none" d="
M 5.15 1.85
L 5.75 2.4 6.95 2.35 6.95 3.45 7.4 3.85 7.35 1.65 5.15 1.85 Z"/>
</g>

<g id="Layer5_0_MEMBER_2_MEMBER_3_FILL">
<path fill="#22773E" stroke="none" d="
M 4.45 5.15
L 3.65 6.05 4.15 6.45 3.3 6.8 4.75 6.65 4.15 6.1 5.15 5.05 4.15 4.1 3.8 4.45 4.45 5.15 Z"/>
</g>
</defs>

<g transform="matrix( 4.5130615234375, 0, 0, 4.5130615234375, -2.95,0) ">
<use xlink:href="#Layer5_0_MEMBER_0_MEMBER_0_MEMBER_0_FILL"/>
</g>

<g transform="matrix( 4.5130615234375, 0, 0, 4.5130615234375, -2.95,0) ">
<use xlink:href="#Layer5_0_MEMBER_0_MEMBER_0_MEMBER_1_MEMBER_0_FILL"/>
</g>

<g transform="matrix( 4.5130615234375, 0, 0, 4.5130615234375, -2.95,0) ">
<use xlink:href="#Layer5_0_MEMBER_0_MEMBER_0_MEMBER_2_MEMBER_0_FILL"/>
</g>

<g transform="matrix( 4.5130615234375, 0, 0, 4.5130615234375, -2.95,0) ">
<use xlink:href="#Layer5_0_MEMBER_0_MEMBER_0_MEMBER_3_FILL"/>
</g>

<g transform="matrix( 4.5130615234375, 0, 0, 4.5130615234375, -2.95,0) ">
<use xlink:href="#Layer5_0_MEMBER_1_MEMBER_0_MEMBER_0_MEMBER_0_MEMBER_0_FILL"/>
</g>

<g transform="matrix( 4.5130615234375, 0, 0, 4.5130615234375, -2.95,0) ">
<use xlink:href="#Layer5_0_MEMBER_1_MEMBER_0_MEMBER_0_MEMBER_0_MEMBER_1_MEMBER_0_FILL"/>
</g>

<g transform="matrix( 4.5130615234375, 0, 0, 4.5130615234375, -2.95,0) ">
<use xlink:href="#Layer5_0_MEMBER_1_MEMBER_1_MEMBER_0_MEMBER_0_MEMBER_0_FILL"/>
</g>

<g transform="matrix( 4.5130615234375, 0, 0, 4.5130615234375, -2.95,0) ">
<use xlink:href="#Layer5_0_MEMBER_1_MEMBER_1_MEMBER_0_MEMBER_0_MEMBER_1_MEMBER_0_FILL"/>
</g>

<g transform="matrix( 4.5130615234375, 0, 0, 4.5130615234375, -2.95,0) ">
<use xlink:href="#Layer5_0_MEMBER_1_MEMBER_2_FILL"/>
</g>

<g transform="matrix( 4.5130615234375, 0, 0, 4.5130615234375, -2.95,0) ">
<use xlink:href="#Layer5_0_MEMBER_1_MEMBER_3_FILL"/>
</g>

<g transform="matrix( 4.5130615234375, 0, 0, 4.5130615234375, -2.95,0) ">
<use xlink:href="#Layer5_0_MEMBER_2_MEMBER_0_MEMBER_0_MEMBER_0_MEMBER_0_FILL"/>
</g>

<g transform="matrix( 4.5130615234375, 0, 0, 4.5130615234375, -2.95,0) ">
<use xlink:href="#Layer5_0_MEMBER_2_MEMBER_0_MEMBER_0_MEMBER_0_MEMBER_1_MEMBER_0_FILL"/>
</g>

<g transform="matrix( 4.5130615234375, 0, 0, 4.5130615234375, -2.95,0) ">
<use xlink:href="#Layer5_0_MEMBER_2_MEMBER_1_MEMBER_0_MEMBER_0_MEMBER_0_FILL"/>
</g>

<g transform="matrix( 4.5130615234375, 0, 0, 4.5130615234375, -2.95,0) ">
<use xlink:href="#Layer5_0_MEMBER_2_MEMBER_1_MEMBER_0_MEMBER_0_MEMBER_1_MEMBER_0_FILL"/>
</g>

<g transform="matrix( 4.5130615234375, 0, 0, 4.5130615234375, -2.95,0) ">
<use xlink:href="#Layer5_0_MEMBER_2_MEMBER_2_FILL"/>
</g>

<g transform="matrix( 4.5130615234375, 0, 0, 4.5130615234375, -2.95,0) ">
<use xlink:href="#Layer5_0_MEMBER_2_MEMBER_3_FILL"/>
</g>
</svg>
